<svg version="1.1" id="Layer_1" xmlns="http://www.w3.org/2000/svg" xmlns:xlink="http://www.w3.org/1999/xlink" x="0px" y="0px"
	 width="100%" viewBox="0 0 496 496" enable-background="new 0 0 496 496" xml:space="preserve">
<path fill="#000000" opacity="1.000000" stroke="none" 
	d="
M209.937515,339.159729 
	C207.548920,339.155060 205.737396,339.482330 204.564117,336.958099 
	C203.106720,333.822601 198.061356,333.118805 196.468857,336.028656 
	C193.132507,342.124908 188.084869,339.756897 183.156097,340.171295 
	C183.182281,335.633087 185.445099,332.412201 186.809952,328.926727 
	C188.996078,323.344055 191.593887,317.912781 193.569916,312.260925 
	C194.990723,308.197174 197.229202,306.265747 201.630753,306.607361 
	C203.669525,306.765625 205.920731,307.256622 208.246689,305.731018 
	C204.980240,302.282318 201.610123,299.140808 198.721512,295.605865 
	C181.610626,274.666443 176.905746,246.473846 192.042007,219.753403 
	C202.108246,201.983170 212.280716,184.404160 224.457275,168.013565 
	C232.110031,157.712372 239.940552,147.550827 248.319397,137.821915 
	C249.180939,136.821564 249.880035,135.681320 250.158417,135.294769 
	C252.432449,135.127548 253.087982,135.955658 253.705948,136.701630 
	C275.956879,163.561859 297.016510,191.181198 312.604492,222.671722 
	C327.688538,253.144135 318.815063,282.106903 298.314178,302.153046 
	C296.595123,303.834015 295.973236,305.059357 296.886780,307.669952 
	C300.214752,317.180420 296.196381,323.785278 286.294159,325.382629 
	C281.851929,326.099243 278.071045,326.996521 278.257263,332.672150 
	C278.318542,334.540863 276.969025,335.294800 275.270416,335.272491 
	C272.315094,335.233673 269.316467,335.872070 265.892059,334.756104 
	C266.644440,327.036591 267.162537,319.297180 268.209595,311.629974 
	C269.358276,303.218536 269.582794,303.371399 278.170593,302.540527 
	C282.499908,302.121674 286.762451,301.564667 291.077454,302.600220 
	C293.376923,303.152069 294.611481,302.086121 294.547791,299.707184 
	C294.264832,289.137482 296.055450,278.445953 291.414642,268.196716 
	C288.401062,261.541199 286.209351,254.503342 283.837524,247.572418 
	C282.840454,244.658752 281.290222,243.340103 278.064819,243.255219 
	C266.466278,242.949966 266.053406,242.798309 264.793488,254.097519 
	C264.186951,259.536835 261.754425,262.341278 257.236481,264.660278 
	C250.424911,268.156555 243.939331,272.282227 237.196579,275.920593 
	C233.729889,277.791229 232.020752,280.217499 232.282440,284.286469 
	C232.559967,288.601776 232.305649,292.949371 232.349930,297.282166 
	C232.385498,300.761871 231.184036,304.905701 236.989578,305.207611 
	C238.436981,305.282898 238.430542,307.304871 238.777466,308.528320 
	C239.814606,312.185944 240.709381,315.883972 241.840012,320.264618 
	C245.215012,316.815155 246.118240,312.739563 247.833939,309.143799 
	C249.932877,304.744843 259.640137,301.371063 263.945648,303.618408 
	C265.690887,304.529358 265.324615,306.198639 265.177032,307.596619 
	C264.287415,316.026489 263.226776,324.438507 262.362579,332.870758 
	C262.131042,335.129944 261.150604,336.226318 258.940521,336.242889 
	C256.493622,336.261261 253.993561,336.724670 251.443512,335.670349 
	C251.471771,331.199493 251.596344,326.946777 251.923538,322.535614 
	C250.217087,326.246735 248.328781,329.887329 246.854492,333.688507 
	C245.331268,337.615814 242.224930,337.293945 239.008926,337.308472 
	C235.699905,337.323425 235.528259,334.757660 234.853699,332.606415 
	C234.014923,329.931427 233.287338,327.221558 231.813721,324.502258 
	C231.540619,326.996552 231.051987,329.489685 231.038849,331.985321 
	C231.010666,337.338409 228.084656,338.849762 223.328278,338.275543 
	C222.346298,338.157013 221.354523,338.119537 220.104095,338.024750 
	C218.536942,332.321198 220.051987,326.616974 221.069748,321.324371 
	C222.279144,315.035309 220.204712,311.966156 214.943054,309.820953 
	C213.904312,309.397461 212.954254,308.756378 210.998932,307.689423 
	C213.292953,318.236755 215.386047,327.860291 217.458557,337.389160 
	C215.026550,339.048676 212.648926,338.883698 209.937515,339.159729 
M287.472931,221.942047 
	C289.208740,220.954285 290.966980,220.003372 292.672760,218.966187 
	C293.866730,218.240173 294.681580,217.249100 294.495361,215.693344 
	C294.065979,212.105698 285.660156,204.168930 282.014069,204.149597 
	C269.024841,204.080673 256.035095,204.087784 243.045593,204.105453 
	C238.858704,204.111145 236.149918,205.376053 236.223343,210.470276 
	C236.296707,215.559280 239.042068,216.698456 243.226181,216.683289 
	C245.557571,216.674835 247.892227,216.608292 250.219879,216.703293 
	C258.036407,217.022385 267.597351,225.955627 267.241302,233.299088 
	C266.954834,239.208542 270.455688,238.616577 274.258850,238.754120 
	C278.314606,238.900803 281.342804,238.379852 280.591492,233.216141 
	C279.828552,227.972519 281.472107,224.069809 287.472931,221.942047 
M216.109406,236.262573 
	C214.477463,234.516266 212.845505,232.769974 210.963028,230.755585 
	C209.059357,234.481140 205.842407,236.421036 203.710220,239.072571 
	C206.412796,241.819199 208.907059,244.354095 211.313171,246.799408 
	C213.867981,244.304840 216.420532,241.812485 219.385101,238.917816 
	C218.387299,238.112701 217.500458,237.397110 216.109406,236.262573 
M260.139587,226.911346 
	C258.466919,225.952118 257.195557,224.256912 254.903168,224.042114 
	C251.237503,227.387695 247.541367,230.761108 243.600204,234.358139 
	C250.046402,236.473022 258.839752,232.542206 260.139587,226.911346 
M266.588959,172.190033 
	C265.900452,171.572861 265.836243,170.260712 265.797272,170.262573 
	C262.975861,173.184113 260.818939,175.417557 258.640625,177.673203 
	C260.780243,178.884033 262.740997,181.307144 264.898834,184.213776 
	C266.477173,180.951431 269.137817,179.206757 271.054352,176.754410 
	C269.543335,175.259720 268.250092,173.980408 266.588959,172.190033 
M226.883163,259.932678 
	C227.708405,261.161652 228.533646,262.390594 229.513428,263.849701 
	C231.686554,261.525421 233.003815,260.116547 234.399689,258.623596 
	C233.097397,256.641724 231.793121,255.074921 229.167206,253.671890 
	C229.280426,256.427612 224.944092,256.140564 226.883163,259.932678 
M281.751312,311.570648 
	C279.674072,313.119598 279.721283,314.903320 281.701294,316.274078 
	C282.925446,317.121552 284.348663,316.235657 284.916016,314.963959 
	C285.986145,312.565430 284.455444,311.770416 281.751312,311.570648 
M228.084946,215.822250 
	C223.004242,215.486099 218.076050,216.528717 213.163071,217.784302 
	C218.060791,217.276215 222.958527,216.768127 228.084946,215.822250 
M200.157135,323.266724 
	C199.750549,324.521271 199.779388,326.114136 201.448700,325.343323 
	C203.785080,324.264496 202.532394,322.125763 202.290482,320.197571 
	C200.867905,320.778442 200.797195,321.862579 200.157135,323.266724 
M226.233780,205.675919 
	C227.354248,205.675919 228.474716,205.675919 231.039169,205.675919 
	C225.545456,204.321487 221.426697,204.240158 216.060684,204.260651 
	C220.002655,204.841171 222.729797,205.242783 226.233780,205.675919 
z"/>
<path fill="#000000" opacity="1.000000" stroke="none" 
	d="
M364.248322,326.907959 
	C362.299133,332.596771 357.658478,330.508728 354.439301,330.249420 
	C351.406281,330.005127 352.769958,326.428406 352.952240,324.335938 
	C353.585541,317.065094 354.561859,309.824707 355.248199,302.557648 
	C355.569794,299.152252 356.990631,297.712311 360.595673,297.628265 
	C369.550964,297.419403 369.529022,297.262787 372.858521,305.617981 
	C373.684692,307.691254 374.669739,309.701263 376.076202,312.845917 
	C376.691467,308.299713 377.132385,305.068176 377.565063,301.835602 
	C377.858795,299.641449 377.238464,296.459290 380.770325,296.851074 
	C383.987976,297.207977 388.874207,293.434937 389.779083,300.107452 
	C393.677612,299.681183 393.098938,295.562561 396.066315,293.717255 
	C398.872009,297.008911 401.346344,300.928284 406.449890,303.450684 
	C401.586548,306.135681 398.148468,309.061005 396.293030,313.932739 
	C393.366394,311.199158 393.181641,306.792328 388.883057,306.021240 
	C387.167572,312.361084 387.359314,318.861298 386.445068,325.199127 
	C386.026154,328.103394 384.974030,329.423340 382.087250,329.305756 
	C380.925232,329.258392 379.722168,329.146576 378.600159,329.373169 
	C373.484497,330.406036 370.993988,327.956055 369.669434,323.280151 
	C368.910339,320.600525 367.492065,318.107605 365.777313,314.167542 
	C365.171143,319.175446 364.729858,322.821198 364.248322,326.907959 
M396.387726,301.154602 
	C394.963318,300.162842 393.595398,299.938812 392.660339,301.722107 
	C392.077332,302.833893 392.232422,303.995819 393.184998,304.906403 
	C394.119720,305.799927 395.291321,306.005890 396.388977,305.397705 
	C398.130157,304.432831 397.901154,303.056213 396.387726,301.154602 
z"/>
<path fill="#000000" opacity="1.000000" stroke="none" 
	d="
M332.707520,333.118042 
	C321.619904,333.089264 316.157379,328.796722 315.174652,319.730682 
	C314.138855,310.175079 321.122040,300.724213 330.656219,298.778412 
	C340.988647,296.669647 348.764404,300.353821 350.905273,308.372375 
	C353.480865,318.019318 347.557495,328.861542 337.989594,331.920715 
	C336.410919,332.425476 334.755035,332.688751 332.707520,333.118042 
M327.701447,317.985779 
	C328.816162,321.176758 331.031006,322.594421 334.287140,321.534790 
	C338.106384,320.291809 338.962921,317.165771 338.699127,313.549408 
	C338.511566,310.977905 336.978607,309.638000 334.536499,309.414062 
	C330.627502,309.055634 328.808380,311.379395 327.995483,314.828125 
	C327.806152,315.631561 327.693787,316.453156 327.701447,317.985779 
z"/>
<path fill="#000000" opacity="1.000000" stroke="none" 
	d="
M142.438568,339.485718 
	C139.371887,342.288818 136.037888,343.740021 132.336212,344.221222 
	C124.038452,345.299896 117.653603,342.333252 115.068512,336.338593 
	C111.857719,328.892975 114.411446,318.845703 120.864571,313.739136 
	C122.153572,312.719116 123.580284,311.873077 124.851669,311.009216 
	C125.407440,308.874817 122.927612,308.766022 122.644646,306.917480 
	C124.457146,304.934753 127.015739,303.337006 128.901138,300.043762 
	C130.535126,303.678192 135.224579,304.450714 134.704346,309.436432 
	C138.478958,310.288849 142.727432,311.420197 145.044357,315.510040 
	C146.329269,317.778168 148.012939,320.953033 144.833801,322.409790 
	C141.824738,323.788635 138.114929,327.071960 134.671082,322.911682 
	C132.927139,320.804871 131.306458,319.695374 128.882141,321.782166 
	C126.206055,324.085663 125.403488,329.387268 127.450127,331.780212 
	C129.760864,334.481934 132.744949,333.982452 134.295624,331.640503 
	C137.892517,326.208069 142.636826,327.567993 147.954254,328.262604 
	C147.819473,332.889221 145.683151,336.245819 142.438568,339.485718 
z"/>
<path fill="#000000" opacity="1.000000" stroke="none" 
	d="
M165.334656,329.506104 
	C161.373077,331.021149 162.616257,334.268738 162.264603,336.907196 
	C161.999207,338.898407 162.005127,341.044159 159.435104,341.569244 
	C156.513199,342.166229 153.520599,342.864563 150.656998,341.568726 
	C149.480438,341.036316 149.617325,339.522491 149.720795,338.401825 
	C150.498062,329.984161 151.069672,321.533295 152.269257,313.173676 
	C153.109299,307.319702 158.385406,309.237976 161.932846,308.988647 
	C165.904190,308.709534 164.157806,312.094177 164.351257,314.124695 
	C164.504929,315.737335 163.755997,317.541107 165.031097,318.907135 
	C166.051025,319.999786 167.525955,319.744080 168.798187,319.416016 
	C170.669785,318.933502 170.512085,317.269867 170.694641,315.780762 
	C171.578796,308.568665 173.085495,307.366974 180.165161,307.734009 
	C182.335617,307.846588 183.696884,308.376923 183.471146,310.891174 
	C182.670715,319.806030 182.365280,328.797058 180.957916,337.613220 
	C180.170822,342.543732 175.096924,340.726959 171.755188,341.069489 
	C168.534210,341.399597 168.668640,338.796539 168.711990,336.590302 
	C168.738068,335.263031 168.700180,333.900024 168.986893,332.619293 
	C169.655151,329.634491 168.137070,329.114410 165.334656,329.506104 
z"/>
<path fill="#000000" opacity="1.000000" stroke="none" 
	d="
M299.732117,319.986145 
	C300.377869,314.432251 300.747131,309.286499 301.701324,304.251617 
	C302.807526,298.414520 307.701813,301.083496 311.021698,300.822540 
	C314.885742,300.518860 313.757019,303.485809 313.531830,305.738098 
	C312.757324,313.484436 312.045380,321.237000 311.292175,328.985504 
	C310.893036,333.091431 307.800781,334.524231 301.319519,333.725616 
	C297.527618,333.258331 298.836182,330.403015 298.882874,328.343597 
	C298.942688,325.705231 299.417999,323.076294 299.732117,319.986145 
z"/>
<path fill="#000000" opacity="1.000000" stroke="none" 
	d="
M147.130951,361.176819 
	C143.933975,360.378601 142.449127,358.660950 143.448563,355.735321 
	C144.192322,353.558105 146.166870,352.894409 148.249390,353.353027 
	C150.497803,353.848236 151.384247,355.606018 151.130768,357.814850 
	C150.894135,359.876801 149.558517,360.941650 147.130951,361.176819 
z"/>
<path fill="#000000" opacity="1.000000" stroke="none" 
	d="
M193.543640,351.562805 
	C196.075180,350.177124 198.251648,349.869690 199.857788,352.330872 
	C200.708969,353.635162 200.909607,355.129791 199.986221,356.517426 
	C198.826492,358.260254 197.010712,358.745697 195.208344,358.081268 
	C192.025116,356.907806 191.535950,354.637238 193.543640,351.562805 
z"/>
<path fill="#000000" opacity="1.000000" stroke="none" 
	d="
M292.748230,351.913330 
	C288.522064,352.589233 288.143951,351.881409 289.332672,345.509338 
	C291.239044,345.509338 293.226440,345.509338 295.240448,345.509338 
	C297.097778,351.038574 296.763763,352.038208 292.748230,351.913330 
z"/>
<path fill="#000000" opacity="1.000000" stroke="none" 
	d="
M273.892761,351.346710 
	C273.837250,349.501770 273.494507,347.976929 274.462952,346.561981 
	C276.412537,345.177612 278.441650,349.059265 280.028992,345.665039 
	C281.686188,348.723480 281.400818,350.922455 280.701843,354.149139 
	C278.735291,351.012512 275.465118,355.441803 273.892761,351.346710 
z"/>
<path fill="#000000" opacity="1.000000" stroke="none" 
	d="
M203.161041,355.251373 
	C202.936920,353.429688 202.639877,351.946625 203.705505,350.436096 
	C205.520462,349.448608 207.559814,352.592102 209.191681,349.790955 
	C210.843903,352.580231 210.185043,354.800995 210.016663,358.017792 
	C207.859253,355.334412 204.725571,359.306061 203.161041,355.251373 
z"/>
<path fill="#000000" opacity="1.000000" stroke="none" 
	d="
M305.991150,350.073364 
	C304.578156,353.000000 302.389832,352.648895 300.381439,351.753510 
	C298.677002,350.993622 298.353760,349.257782 298.715424,347.489624 
	C299.100220,345.608185 300.407349,344.680695 302.212799,344.533661 
	C306.159546,344.212219 305.125122,347.690460 305.991150,350.073364 
z"/>
<path fill="#000000" opacity="1.000000" stroke="none" 
	d="
M335.293823,342.905884 
	C338.560760,344.756836 337.008789,347.353271 337.073364,349.785797 
	C335.369476,350.004150 333.788330,350.206757 332.241882,350.404907 
	C329.688904,345.122009 330.254974,343.565552 335.293823,342.905884 
z"/>
<path fill="#000000" opacity="1.000000" stroke="none" 
	d="
M140.037231,359.165955 
	C138.759674,361.938751 136.379623,359.894012 134.923080,361.403870 
	C133.577621,358.745819 133.075195,356.480530 134.760284,354.454834 
	C135.661591,353.371368 137.257065,353.535065 138.510666,354.062408 
	C140.737595,354.999329 140.285004,356.972900 140.037231,359.165955 
z"/>
<path fill="#000000" opacity="1.000000" stroke="none" 
	d="
M167.271057,357.806763 
	C168.172958,360.730682 166.145355,360.175201 164.838898,360.165436 
	C162.693405,360.149414 162.192963,358.506134 162.026627,356.787781 
	C161.852890,354.993164 161.567184,353.040222 163.741516,352.141144 
	C164.816299,351.696747 165.983765,351.660126 167.111176,352.406982 
	C167.111176,354.093536 167.111176,355.820007 167.271057,357.806763 
z"/>
<path fill="#000000" opacity="1.000000" stroke="none" 
	d="
M256.317078,354.626038 
	C253.902954,348.014374 254.731522,346.618073 260.637787,347.338898 
	C259.075256,349.688354 259.823578,351.856445 261.167236,353.892578 
	C259.872864,355.750122 258.229279,355.220123 256.317078,354.626038 
z"/>
<path fill="#000000" opacity="1.000000" stroke="none" 
	d="
M266.170715,354.116547 
	C262.579620,354.198151 264.231903,352.154236 264.562134,350.796997 
	C264.943146,349.230835 265.103973,347.304504 267.063507,346.849518 
	C268.778046,346.451508 269.239624,348.081665 269.823639,349.200226 
	C270.494720,350.485504 271.494324,351.721802 271.063660,353.456024 
	C269.708008,354.806213 267.857635,352.728271 266.170715,354.116547 
z"/>
<path fill="#000000" opacity="1.000000" stroke="none" 
	d="
M131.093582,356.912292 
	C130.420700,359.819733 128.146454,360.481842 126.139999,361.867920 
	C124.601524,359.341522 123.885178,356.759216 125.941544,354.917267 
	C127.778358,353.272064 129.972534,353.996307 131.093582,356.912292 
z"/>
<path fill="#000000" opacity="1.000000" stroke="none" 
	d="
M327.779938,348.794495 
	C329.357025,351.017761 327.652527,351.071564 326.396179,351.209198 
	C325.046600,351.357025 323.783752,351.185150 323.047424,349.685547 
	C321.303070,346.133148 323.350952,343.219360 327.824341,343.263031 
	C328.610687,345.068237 326.064758,346.837036 327.779938,348.794495 
z"/>
<path fill="#000000" opacity="1.000000" stroke="none" 
	d="
M215.648956,349.978546 
	C220.408539,349.716583 218.837082,354.049103 221.683151,356.130188 
	C218.381805,356.883850 216.129150,355.832275 214.067322,356.983612 
	C213.038559,354.183472 214.401566,352.229828 215.648956,349.978546 
z"/>
<path fill="#000000" opacity="1.000000" stroke="none" 
	d="
M175.950012,358.536835 
	C174.546921,359.728333 173.294861,360.474945 171.337494,359.238617 
	C173.332169,357.220490 166.906891,351.937927 175.060593,351.776001 
	C174.446396,354.232239 176.869568,355.860535 175.950012,358.536835 
z"/>
<path fill="#000000" opacity="1.000000" stroke="none" 
	d="
M341.833984,347.225952 
	C341.265442,345.561676 339.986938,344.380280 340.885376,342.774475 
	C342.725372,342.077911 342.821350,344.189209 343.971222,344.634552 
	C345.328705,344.439484 344.961334,342.073883 346.902222,342.402863 
	C347.048584,342.732269 347.440216,343.178650 347.384308,343.559326 
	C347.054321,345.805664 347.027435,348.399506 344.797211,349.608795 
	C343.253479,350.445892 342.732697,348.530334 341.833984,347.225952 
z"/>
<path fill="#000000" opacity="1.000000" stroke="none" 
	d="
M243.691772,355.505432 
	C240.976807,356.600769 239.099167,355.831482 238.064194,353.554993 
	C237.343811,351.970459 237.544952,350.237213 238.913864,348.963684 
	C240.551666,347.439941 242.298370,347.259033 244.040833,348.647888 
	C243.898392,351.003296 240.663788,349.804474 240.822739,352.418457 
	C240.079681,354.887512 245.431335,351.775879 243.691772,355.505432 
z"/>
<path fill="#000000" opacity="1.000000" stroke="none" 
	d="
M318.085052,343.671478 
	C318.972839,346.756104 323.057404,350.851135 315.903381,351.549469 
	C317.716858,349.162537 310.698425,344.775909 318.085052,343.671478 
z"/>
<path fill="#000000" opacity="1.000000" stroke="none" 
	d="
M183.342651,352.930756 
	C185.232422,358.457977 185.021576,358.849701 179.486176,358.953705 
	C181.878891,356.542877 176.402451,353.777008 180.470764,351.564087 
	C181.661606,350.916321 183.084564,350.628021 183.342651,352.930756 
z"/>
<path fill="#000000" opacity="1.000000" stroke="none" 
	d="
M359.725647,341.272888 
	C360.668610,341.385101 361.278290,341.544434 361.924316,341.713287 
	C362.113525,344.002960 358.853210,343.178192 359.055939,344.860657 
	C359.078857,347.409363 361.727539,346.158600 362.249512,347.675903 
	C362.252533,348.444061 361.839600,348.889832 361.135773,349.051361 
	C358.689056,349.612793 356.730255,348.823853 356.065948,346.390289 
	C355.332397,343.703064 356.711395,341.982269 359.725647,341.272888 
z"/>
<path fill="#000000" opacity="1.000000" stroke="none" 
	d="
M373.932983,342.642914 
	C374.649353,340.533966 376.303802,339.225098 377.616516,340.590881 
	C378.804596,341.827026 379.281158,344.271271 379.151733,346.118317 
	C378.985626,348.488342 376.929535,348.494354 374.774567,347.921509 
	C374.376373,346.337646 375.082031,344.454498 373.932983,342.642914 
z"/>
<path fill="#000000" opacity="1.000000" stroke="none" 
	d="
M369.486633,343.557678 
	C369.454773,345.286163 369.556549,346.739746 370.807312,347.837616 
	C369.161591,349.231415 367.485474,349.542419 366.346436,347.902313 
	C365.171875,346.211121 365.448700,344.068695 366.008636,342.147278 
	C366.401581,340.798828 367.734894,340.685638 368.902374,340.791199 
	C371.567474,341.032104 370.213379,342.267303 369.486633,343.557678 
z"/>
<path fill="#000000" opacity="1.000000" stroke="none" 
	d="
M153.832581,356.640625 
	C153.735962,352.494202 156.062057,352.500397 158.883133,352.867828 
	C158.309692,355.684753 157.909103,358.304718 155.719223,360.110596 
	C153.707230,359.792664 154.031128,358.260223 153.832581,356.640625 
z"/>
<path fill="#000000" opacity="1.000000" stroke="none" 
	d="
M249.970551,350.943054 
	C250.958359,352.207977 251.807022,353.140869 252.862991,354.301605 
	C251.190323,355.598083 249.244919,356.092957 247.994461,354.753754 
	C246.367432,353.011230 246.556000,350.618317 247.523453,348.456787 
	C249.516632,348.177765 249.281784,349.770050 249.970551,350.943054 
z"/>
<path fill="#000000" opacity="1.000000" stroke="none" 
	d="
M227.266663,354.411469 
	C228.743011,355.372772 228.782440,356.169342 227.456573,356.700073 
	C226.126251,357.232605 224.555923,357.223267 224.054932,355.689423 
	C223.378738,353.619110 222.397156,351.346497 224.127701,349.194305 
	C226.965729,350.028534 225.538055,352.884674 227.266663,354.411469 
z"/>
<path fill="#000000" opacity="1.000000" stroke="none" 
	d="
M283.626099,349.142517 
	C283.785156,347.700226 283.301941,346.367462 285.156921,345.760345 
	C287.088043,348.085083 287.292603,350.368927 285.435242,352.857819 
	C283.421875,352.276245 283.848999,350.749695 283.626099,349.142517 
z"/>
</svg>