<?xml version="1.0" standalone="no"?>
<!DOCTYPE svg PUBLIC "-//W3C//DTD SVG 20010904//EN"
 "http://www.w3.org/TR/2001/REC-SVG-20010904/DTD/svg10.dtd">
<svg version="1.0" xmlns="http://www.w3.org/2000/svg"
 width="300.000000pt" height="169.000000pt" viewBox="0 0 300.000000 169.000000"
 preserveAspectRatio="xMidYMid meet">
<metadata>
Created by potrace 1.10, written by Peter Selinger 2001-2011
</metadata>
<g transform="translate(0.000000,169.000000) scale(0.100000,-0.100000)"
fill="#000000" stroke="none">
<path d="M1465 1003 l-25 -38 52 -3 c56 -3 82 -17 60 -31 -11 -7 -11 -17 1
-57 13 -45 15 -47 25 -27 16 30 15 58 -4 96 -22 42 -64 97 -75 97 -4 0 -20
-17 -34 -37z"/>
<path d="M1421 927 c-17 -31 -6 -84 20 -100 10 -6 19 -19 19 -28 0 -18 40 -21
52 -4 5 6 8 5 8 -3 0 -10 5 -10 20 -2 11 6 20 15 20 20 0 12 -59 10 -67 -3 -7
-11 -23 12 -23 34 0 9 11 22 25 29 27 15 36 54 10 44 -11 -5 -13 -2 -9 10 4
11 0 16 -14 16 -11 0 -27 2 -34 5 -8 3 -20 -4 -27 -18z"/>
<path d="M1593 814 c-8 -21 13 -42 28 -27 13 13 5 43 -11 43 -6 0 -13 -7 -17
-16z"/>
<path d="M1640 812 c0 -24 33 -25 48 -1 10 15 9 19 -2 19 -8 0 -17 -6 -19 -12
-4 -10 -6 -10 -6 0 -1 19 -21 14 -21 -6z"/>
<path d="M1320 800 c-9 -16 -8 -22 5 -26 9 -4 22 -1 28 5 9 9 8 11 -5 6 -11
-4 -18 -2 -18 4 0 6 7 11 16 11 8 0 12 5 9 10 -10 16 -23 12 -35 -10z"/>
<path d="M1371 795 c-1 -23 2 -26 9 -15 5 8 10 11 10 5 0 -5 14 -10 30 -10 22
0 30 5 30 17 0 25 -17 31 -29 11 -7 -12 -10 -13 -11 -4 0 7 -6 11 -14 8 -8 -3
-17 -1 -20 6 -2 7 -5 -1 -5 -18z"/>
</g>
</svg>
