<?xml version="1.0" encoding="UTF-8"?>
<!DOCTYPE svg PUBLIC "-//W3C//DTD SVG 1.1//EN" "http://www.w3.org/Graphics/SVG/1.1/DTD/svg11.dtd">
<!-- Creator: CorelDRAW -->
<svg xmlns="http://www.w3.org/2000/svg" xml:space="preserve" width="6.82666in" height="6.82666in" style="shape-rendering:geometricPrecision; text-rendering:geometricPrecision; image-rendering:optimizeQuality; fill-rule:evenodd; clip-rule:evenodd"
viewBox="0 0 6.82666 6.82666"
 xmlns:xlink="http://www.w3.org/1999/xlink">
 <defs>
  <style type="text/css">
   <![CDATA[
    .fil4 {fill:none}
    .fil3 {fill:#AED581}
    .fil1 {fill:#EBE5DF}
    .fil2 {fill:#F45A52}
    .fil0 {fill:#333333;fill-rule:nonzero}
   ]]>
  </style>
 </defs>
 <g id="Layer_x0020_1">
  <metadata id="CorelCorpID_0Corel-Layer"/>
  <path class="fil0" d="M1.7423 3.00339c0,-0.0589094 -0.0477598,-0.106669 -0.106669,-0.106669 -0.0589094,0 -0.106669,0.0477598 -0.106669,0.106669l0 2.67259c0,0.0589094 0.0477598,0.106669 0.106669,0.106669l3.55541 0c0.0589094,0 0.106669,-0.0477598 0.106669,-0.106669l0 -2.69c0,-0.0589094 -0.0477598,-0.106669 -0.106669,-0.106669 -0.0589094,0 -0.106669,0.0477598 -0.106669,0.106669l0 2.58333 -3.34207 0 0 -2.56593z"/>
  <path class="fil0" d="M5.36972 2.40044c-0.0487835,-0.0326732 -0.114827,-0.0196142 -0.1475,0.0291693 -0.0326732,0.0487835 -0.0196142,0.114827 0.0291693,0.1475l0.508606 0.340626 0 0.321335 -0.746587 -0.500008c-0.0487835,-0.0326732 -0.114827,-0.0196142 -0.1475,0.0291693 -0.0326732,0.0487835 -0.0196142,0.114827 0.0291693,0.1475l0.905272 0.60628c0.0182087,0.0144724 0.041248,0.023126 0.066315,0.023126 0.0589094,0 0.106669,-0.0477598 0.106669,-0.106669l0 -0.577071c2.3622e-005,-0.0344213 -0.0165709,-0.0682165 -0.047315,-0.0888071l-0.000192913 0.000287402 -0.556106 -0.372437z"/>
  <path class="fil0" d="M3.95722 2.28763c0.0487835,0.0326732 0.114827,0.0196142 0.1475,-0.0291693 0.0326732,-0.0487835 0.0196142,-0.114827 -0.0291693,-0.1475l-0.554957 -0.371669 0.000188976 -0.000291339c-0.0385236,-0.0257992 -0.0877638,-0.0231654 -0.122972,0.00298425l-2.33115 1.50118 0 -0.324031 2.39374 -1.54149 0.908406 0.608382c0.0487835,0.0326732 0.114827,0.0196142 0.1475,-0.0291693 0.0326732,-0.0487835 0.0196142,-0.114827 -0.0291693,-0.1475l-0.959098 -0.642335c-0.0348031,-0.0278189 -0.0848346,-0.0317835 -0.124362,-0.00633071l0.00011811 0.000185039 -2.49553 1.60704c-0.0327677,0.0182047 -0.0549449,0.0531654 -0.0549449,0.0933031l0 0.576713c-0.000122047,0.0199882 0.0053622,0.0402362 0.0169882,0.0582913 0.0318937,0.0495276 0.0979055,0.0638228 0.147433,0.0319291l-0.00011811 -0.000185039 2.44278 -1.57307 0.496819 0.332732z"/>
  <path class="fil0" d="M2.15933 5.56931l0.99411 0 0 -1.71084 -0.99411 0 0 1.71084zm1.10078 0.213339l-1.20745 0c-0.0589094,0 -0.106669,-0.0477598 -0.106669,-0.106669l0 -1.92418c0,-0.0589094 0.0477598,-0.106669 0.106669,-0.106669l1.20745 0c0.0589094,0 0.106669,0.0477598 0.106669,0.106669l0 1.92418c0,0.0589094 -0.0477598,0.106669 -0.106669,0.106669z"/>
  <path class="fil0" d="M3.84 4.6522l0.746661 0 0 -0.793732 -0.746661 0 0 0.793732zm0.853331 0.213339l-0.96 0c-0.0589094,0 -0.106669,-0.0477598 -0.106669,-0.106669l0 -1.00707c0,-0.0589094 0.0477598,-0.106669 0.106669,-0.106669l0.96 0c0.0589094,0 0.106669,0.0477598 0.106669,0.106669l0 1.00707c0,0.0589094 -0.0477598,0.106669 -0.106669,0.106669z"/>
  <path class="fil0" d="M4.73633 3.00194c0.0686063,-0.16037 0.167953,-0.30439 0.290622,-0.424634 0.116413,-0.114114 0.253819,-0.206906 0.405886,-0.272047 -0.160276,-0.0686417 -0.304236,-0.167988 -0.424465,-0.290634 -0.114134,-0.116429 -0.206921,-0.253886 -0.272055,-0.406028 -0.0651339,0.152142 -0.157917,0.289602 -0.272047,0.406031 -0.120228,0.12265 -0.264185,0.222008 -0.424465,0.29065 0.152059,0.0651417 0.289465,0.157917 0.405882,0.272028 0.122669,0.120244 0.222024,0.26426 0.290642,0.424634zm0.439787 -0.272965c-0.181256,0.177673 -0.301894,0.41678 -0.328059,0.683413 -0.000551181,0.058437 -0.0480906,0.10565 -0.106657,0.10565l-0.010126 0 0 -3.93701e-006c-0.054622,5.90551e-005 -0.10122,-0.0416181 -0.106232,-0.097063l0.000397638 -3.54331e-005c-0.0244173,-0.270071 -0.145717,-0.512386 -0.328917,-0.691961 -0.181382,-0.177787 -0.423563,-0.293776 -0.692469,-0.313957 -0.0580197,-0.00102756 -0.104748,-0.048378 -0.104748,-0.106646l0 -0.00622441 3.93701e-006 0c-5.51181e-005,-0.0555472 0.0429252,-0.102449 0.0991732,-0.106406l0.000409449 0.000153543c0.278862,-0.0196378 0.529394,-0.142406 0.713709,-0.330433 0.18235,-0.186024 0.299732,-0.435882 0.315465,-0.712843l-2.3622e-005 -0.00194094c0,-0.0589094 0.0477598,-0.106669 0.106669,-0.106669l0.0032126 0c0.0564764,-4.72441e-005 0.103646,0.044252 0.106531,0.10128l-0.000279528 0.000389764c0.0141496,0.279732 0.131988,0.532205 0.315866,0.71978 0.183177,0.186862 0.431764,0.309248 0.708563,0.330008 0.0580118,0.00103937 0.104728,0.0483858 0.104728,0.106646l0 0.00622835 -3.93701e-006 0c5.11811e-005,0.0555512 -0.0429213,0.102449 -0.0991732,0.106406l-0.00749213 -0.106406 0.00708268 0.106252c-0.270969,0.0190787 -0.515091,0.135449 -0.69763,0.314382z"/>
  <path class="fil0" d="M3.02972 4.55389c0,-0.0294528 -0.0238819,-0.0533346 -0.0533346,-0.0533346 -0.0294528,0 -0.0533346,0.0238819 -0.0533346,0.0533346l0 0.32c0,0.0294528 0.0238819,0.0533346 0.0533346,0.0533346 0.0294528,0 0.0533346,-0.0238819 0.0533346,-0.0533346l0 -0.32z"/>
  <path class="fil0" d="M4.26667 3.78317c0,-0.0294528 -0.0238819,-0.0533346 -0.0533346,-0.0533346 -0.0294528,0 -0.0533346,0.0238819 -0.0533346,0.0533346l0 0.944323c0,0.0294528 0.0238819,0.0533346 0.0533346,0.0533346 0.0294528,0 0.0533346,-0.0238819 0.0533346,-0.0533346l0 -0.944323z"/>
  <path class="fil0" d="M3.74117 4.202c-0.0294528,0 -0.0533346,0.0238819 -0.0533346,0.0533346 0,0.0294528 0.0238819,0.0533346 0.0533346,0.0533346l0.944323 0c0.0294528,0 0.0533346,-0.0238819 0.0533346,-0.0533346 0,-0.0294528 -0.0238819,-0.0533346 -0.0533346,-0.0533346l-0.944323 0z"/>
  <path class="fil1" d="M4.0398 2.30528c0.152059,0.0651417 0.289465,0.157917 0.405882,0.272028 0.122669,0.120244 0.222024,0.26426 0.290642,0.424634 0.0686063,-0.16037 0.167953,-0.30439 0.290622,-0.424634 0.116413,-0.114114 0.253819,-0.206906 0.405886,-0.272047 -0.160276,-0.0686417 -0.304236,-0.167988 -0.424465,-0.290634 -0.114134,-0.116429 -0.206921,-0.253886 -0.272055,-0.406028 -0.0651339,0.152142 -0.157917,0.289602 -0.272047,0.406031 -0.120228,0.12265 -0.264185,0.222008 -0.424465,0.29065z"/>
  <path class="fil2" d="M3.5206 1.73929l0.504512 0.337886c0.0859291,-0.0440315 0.165382,-0.0989449 0.236539,-0.162917l-0.801244 -0.536614 -2.39374 1.54149 0 0.324031 0.5055 -0.325524c0.00375984,-0.0027874 0.00770866,-0.00533465 0.0118228,-0.00761417l1.81383 -1.16804c0.0352087,-0.0261496 0.0844488,-0.0287835 0.122972,-0.00298425l-0.000188976 0.000291339z"/>
  <path class="fil2" d="M5.31037 2.61661c-0.047685,0.0339173 -0.0925748,0.0715118 -0.134252,0.112366 -0.0238583,0.0233898 -0.0466693,0.0478425 -0.0683504,0.0732795l0.135071 0.0904606c0.00512992,0.00285433 0.00999606,0.00612205 0.014563,0.00975197l0.502594 0.336602 0 -0.321335 -0.449626 -0.301126z"/>
  <path class="fil3" d="M4.62544 3.42094c-0.0244173,-0.270071 -0.145717,-0.512386 -0.328917,-0.691961 -0.181382,-0.177787 -0.423563,-0.293776 -0.692469,-0.313957 -0.0580197,-0.00102756 -0.104748,-0.048378 -0.104748,-0.106646l3.93701e-006 -0.00622441c-5.51181e-005,-0.0555472 0.0429252,-0.102449 0.0991732,-0.106406l0.000409449 0.000153543c0.0615354,-0.00433465 0.121693,-0.013689 0.180063,-0.0276614l-0.318547 -0.213339 -1.71811 1.10641 0 2.50801 0.203697 0 0 -1.81751c0,-0.0589094 0.0477598,-0.106669 0.106669,-0.106669l1.20745 0c0.0589094,0 0.106669,0.0477598 0.106669,0.106669l0 1.81751 1.71758 0 0 -2.52681 -0.0985 -0.0659724c-0.0741378,0.131091 -0.122386,0.278693 -0.137807,0.435858 -0.000551181,0.058437 -0.0480906,0.10565 -0.106657,0.10565l-0.010126 -3.93701e-006c-0.054622,5.90551e-005 -0.10122,-0.0416181 -0.106232,-0.097063l0.000397638 -3.54331e-005zm-0.998772 1.33793l0 -1.00707c0,-0.0589094 0.0477598,-0.106669 0.106669,-0.106669l0.96 0c0.0589094,0 0.106669,0.0477598 0.106669,0.106669l0 1.00707c0,0.0589094 -0.0477598,0.106669 -0.106669,0.106669l-0.96 0c-0.0589094,0 -0.106669,-0.0477598 -0.106669,-0.106669z"/>
  <g id="_443089344">
   <polygon id="_443089176" class="fil1" points="4.16,3.85847 3.84,3.85847 3.84,4.202 4.16,4.202 "/>
   <polygon id="_443089008" class="fil1" points="4.26667,3.85847 4.26667,4.202 4.58667,4.202 4.58667,3.85847 "/>
   <polygon id="_443089128" class="fil1" points="4.58667,4.30867 4.26667,4.30867 4.26667,4.6522 4.58667,4.6522 "/>
   <polygon id="_443088672" class="fil1" points="4.16,4.6522 4.16,4.30867 3.84,4.30867 3.84,4.6522 "/>
   <path id="_443089248" class="fil1" d="M3.15344 5.56931l0 -1.71084 -0.99411 0 0 1.71084 0.99411 0zm-0.177051 -1.06876c0.0294528,0 0.0533346,0.0238819 0.0533346,0.0533346l0 0.32c0,0.0294528 -0.0238819,0.0533346 -0.0533346,0.0533346 -0.0294528,0 -0.0533346,-0.0238819 -0.0533346,-0.0533346l0 -0.32c0,-0.0294528 0.0238819,-0.0533346 0.0533346,-0.0533346z"/>
  </g>
 </g>
 <rect class="fil4" width="6.82666" height="6.82666"/>
</svg>
