<?xml version="1.0" encoding="iso-8859-1"?>
<!-- Generator: Adobe Illustrator 19.0.0, SVG Export Plug-In . SVG Version: 6.00 Build 0)  -->
<svg version="1.1" id="Layer_1" xmlns="http://www.w3.org/2000/svg" xmlns:xlink="http://www.w3.org/1999/xlink" x="0px" y="0px"
	 viewBox="0 0 512 512" style="enable-background:new 0 0 512 512;" xml:space="preserve">
<path style="fill:#D83C39;" d="M299.116,8.084v32.337L223.15,57.302c-12.297,2.732-21.045,13.639-21.045,26.235l0,0l0,0v32.337
	H94.316V83.537V51.2c0-23.812,19.304-43.116,43.116-43.116H299.116z"/>
<path style="fill:#FF7A66;" d="M256,50.002l-32.85,7.3c-12.297,2.732-21.045,13.639-21.045,26.235l0,0l0,0v32.337H94.316V83.537
	V51.2c0-23.812,19.304-43.116,43.116-43.116H256V50.002z"/>
<path style="fill:#AEEF66;" d="M278.192,247.757c6.66,12.488,10.145,26.426,10.145,40.579V460.8
	c0,23.812-19.304,43.116-43.116,43.116H51.2c-23.812,0-43.116-19.304-43.116-43.116V288.337c0-14.154,3.484-28.091,10.145-40.579
	l76.086-142.663h107.789L278.192,247.757z"/>
<path style="fill:#8EC155;" d="M288.337,288.337V460.8c0,23.812-19.304,43.116-43.116,43.116h-43.116
	c23.812,0,43.116-19.304,43.116-43.116V288.337c0-14.154-3.484-28.091-10.145-40.579l-76.086-142.663h43.116l76.086,142.663
	C284.853,260.246,288.337,274.183,288.337,288.337z"/>
<path style="fill:#C3FFF9;" d="M288.337,406.905H8.084V277.558h280.253V406.905z"/>
<path style="fill:#A1E2CD;" d="M288.337,406.905h-43.116V277.558h43.116V406.905z"/>
<path style="fill:#C3FFF9;" d="M471.579,266.779c0,17.86-14.477,32.337-32.337,32.337c-17.86,0-32.337-14.477-32.337-32.337
	s14.477-32.337,32.337-32.337C457.102,234.442,471.579,248.919,471.579,266.779z"/>
<g>
	<path style="fill:#AFF2D8;" d="M471.579,266.779c0,17.86-14.477,32.337-32.337,32.337c-3.78,0-7.406-0.655-10.779-1.848
		c12.559-4.44,21.558-16.411,21.558-30.489c0-14.078-8.999-26.049-21.558-30.489c3.373-1.192,6.999-1.848,10.779-1.848
		C457.102,234.442,471.579,248.919,471.579,266.779z"/>
	<path style="fill:#AFF2D8;" d="M503.916,88.926c0,44.647-36.195,80.842-80.842,80.842s-80.842-36.195-80.842-80.842
		s36.195-80.842,80.842-80.842S503.916,44.279,503.916,88.926z"/>
</g>
<path style="fill:#A1E2CD;" d="M503.916,88.926c0,44.647-36.195,80.842-80.842,80.842c-5.537,0-10.944-0.559-16.168-1.62
	c36.9-7.49,64.674-40.112,64.674-79.222s-27.774-71.731-64.674-79.222c5.225-1.061,10.631-1.62,16.168-1.62
	C467.722,8.084,503.916,44.279,503.916,88.926z"/>
<path style="fill:#C3FFF9;" d="M406.905,158.989c0,23.812-19.304,43.116-43.116,43.116s-43.116-19.304-43.116-43.116
	s19.304-43.116,43.116-43.116S406.905,135.178,406.905,158.989z"/>
<path style="fill:#DCFFF9;" d="M374.568,158.989c0,18.092-11.149,33.572-26.947,39.969c-15.799-6.397-26.947-21.877-26.947-39.969
	c0-18.092,11.149-33.572,26.947-39.969C363.42,125.417,374.568,140.897,374.568,158.989z"/>
<path style="fill:#FFD327;" d="M202.105,342.232h247.916c23.812,0,43.116,19.304,43.116,43.116V460.8
	c0,23.812-19.304,43.116-43.116,43.116H202.105c-23.812,0-43.116-19.304-43.116-43.116v-75.453
	C158.989,361.536,178.293,342.232,202.105,342.232z"/>
<path style="fill:#FFE44C;" d="M385.347,503.916H202.105c-23.812,0-43.116-19.304-43.116-43.116v-75.453
	c0-23.812,19.304-43.116,43.116-43.116h183.242c23.812,0,43.116,19.304,43.116,43.116V460.8
	C428.463,484.612,409.16,503.916,385.347,503.916z"/>
<path style="fill:#FFC200;" d="M256,396.126c0,11.906-9.651,21.558-21.558,21.558s-21.558-9.651-21.558-21.558
	c0-11.906,9.651-21.558,21.558-21.558S256,384.22,256,396.126z M482.358,353.01c-11.906,0-21.558,9.651-21.558,21.558
	c0,11.906,9.651,21.558,21.558,21.558c11.906,0,21.558-9.651,21.558-21.558C503.916,362.662,494.264,353.01,482.358,353.01z
	 M169.768,439.242c-11.906,0-21.558,9.651-21.558,21.558c0,11.906,9.651,21.558,21.558,21.558s21.558-9.651,21.558-21.558
	C191.326,448.894,181.675,439.242,169.768,439.242z M417.684,417.684c-11.906,0-21.558,9.651-21.558,21.558
	c0,11.906,9.651,21.558,21.558,21.558c11.906,0,21.558-9.651,21.558-21.558C439.242,427.336,429.591,417.684,417.684,417.684z
	 M320.674,417.684c-11.906,0-21.558,9.651-21.558,21.558c0,11.906,9.651,21.558,21.558,21.558c11.906,0,21.558-9.651,21.558-21.558
	C342.232,427.336,332.58,417.684,320.674,417.684z M353.01,331.453c-11.906,0-21.558,9.651-21.558,21.558
	c0,11.906,9.651,21.558,21.558,21.558c11.906,0,21.558-9.651,21.558-21.558C374.568,341.104,364.917,331.453,353.01,331.453z"/>
<path style="fill:#FFA000;" d="M256,396.126c0,11.906-9.651,21.558-21.558,21.558c-3.931,0-7.606-1.069-10.779-2.908
	c6.437-3.728,10.779-10.675,10.779-18.65c0-7.974-4.342-14.921-10.779-18.65c3.173-1.839,6.848-2.908,10.779-2.908
	C246.349,374.568,256,384.22,256,396.126z M169.768,439.242c-3.931,0-7.606,1.069-10.779,2.908
	c6.437,3.728,10.779,10.675,10.779,18.65s-4.342,14.921-10.779,18.65c3.173,1.839,6.848,2.908,10.779,2.908
	c11.906,0,21.558-9.651,21.558-21.558C191.326,448.894,181.675,439.242,169.768,439.242z M320.674,417.684
	c-3.931,0-7.606,1.069-10.779,2.908c6.437,3.728,10.779,10.675,10.779,18.65s-4.342,14.921-10.779,18.65
	c3.173,1.839,6.848,2.908,10.779,2.908c11.906,0,21.558-9.651,21.558-21.558C342.232,427.336,332.58,417.684,320.674,417.684z
	 M353.01,331.453c-3.931,0-7.606,1.069-10.779,2.908c6.437,3.728,10.779,10.675,10.779,18.65s-4.342,14.921-10.779,18.65
	c3.173,1.839,6.848,2.908,10.779,2.908c11.906,0,21.558-9.651,21.558-21.558C374.568,341.104,364.917,331.453,353.01,331.453z
	 M417.684,417.684c-3.931,0-7.606,1.069-10.779,2.908c6.437,3.728,10.779,10.675,10.779,18.65s-4.342,14.921-10.779,18.65
	c3.173,1.839,6.848,2.908,10.779,2.908c11.906,0,21.558-9.651,21.558-21.558C439.242,427.336,429.591,417.684,417.684,417.684z
	 M482.358,353.01c-3.931,0-7.606,1.069-10.779,2.908c6.437,3.729,10.779,10.675,10.779,18.65c0,7.974-4.342,14.921-10.779,18.65
	c3.173,1.839,6.848,2.908,10.779,2.908c11.906,0,21.558-9.651,21.558-21.558C503.916,362.662,494.264,353.01,482.358,353.01z"/>
<path d="M463.495,266.779c0-13.372-10.88-24.253-24.253-24.253c-5.977,0-11.718,2.192-16.166,6.174
	c-3.329,2.976-8.439,2.694-11.416-0.633c-2.977-3.327-2.694-8.438,0.633-11.416c7.418-6.638,16.989-10.294,26.95-10.294
	c22.289,0,40.421,18.132,40.421,40.421S461.531,307.2,439.242,307.2c-22.289,0-40.421-18.132-40.421-40.421
	c0-4.466,3.618-8.084,8.084-8.084s8.084,3.618,8.084,8.084c0,13.372,10.88,24.253,24.253,24.253
	C452.614,291.032,463.495,280.151,463.495,266.779z M342.232,97.011c4.466,0,8.084-3.618,8.084-8.084
	c0-40.119,32.639-72.758,72.758-72.758s72.758,32.639,72.758,72.758c0,34.47-24.476,64.457-58.198,71.303
	c-4.376,0.887-7.202,5.154-6.313,9.531c0.778,3.833,4.149,6.477,7.914,6.477c0.532,0,1.075-0.053,1.617-0.163
	C482.077,167.705,512,131.055,512,88.926C512,39.893,472.107,0,423.074,0s-88.926,39.893-88.926,88.926
	C334.147,93.392,337.766,97.011,342.232,97.011z M463.495,88.926c0,4.466,3.618,8.084,8.084,8.084s8.084-3.618,8.084-8.084
	c0-31.203-25.387-56.589-56.589-56.589c-4.466,0-8.084,3.618-8.084,8.084s3.618,8.084,8.084,8.084
	C445.362,48.505,463.495,66.638,463.495,88.926z M363.789,210.189c4.466,0,8.084-3.618,8.084-8.084s-3.618-8.084-8.084-8.084
	c-19.317,0-35.032-15.715-35.032-35.032s15.715-35.032,35.032-35.032c19.317,0,35.032,15.715,35.032,35.032
	c0,10.045-4.323,19.623-11.862,26.276c-3.347,2.953-3.666,8.063-0.711,11.411c2.955,3.348,8.063,3.665,11.411,0.711
	c11.015-9.72,17.331-23.716,17.331-38.398c0-28.231-22.969-51.2-51.2-51.2s-51.2,22.969-51.2,51.2S335.558,210.189,363.789,210.189z
	 M137.432,495.832H51.2c-19.316,0-35.032-15.715-35.032-35.032v-45.811h99.705c4.465,0,8.084-3.618,8.084-8.084
	s-3.62-8.084-8.084-8.084H16.168V288.337c0-12.781,3.179-25.498,9.193-36.776l73.805-138.382h50.392
	c4.465,0,8.084-3.618,8.084-8.084c0-4.466-3.62-8.084-8.084-8.084H102.4V51.2c0-19.317,15.716-35.032,35.032-35.032h153.6v17.767
	l-69.635,15.475c-16.119,3.582-27.375,17.615-27.375,34.126v13.474h-13.743c-4.465,0-8.084,3.618-8.084,8.084
	c0,4.466,3.62,8.084,8.084,8.084h16.977l20.713,38.835c1.455,2.728,4.25,4.282,7.14,4.282c1.284,0,2.586-0.307,3.797-0.954
	c3.94-2.101,5.43-6.998,3.329-10.936l-22.044-41.333V83.537c0-8.874,6.05-16.417,14.714-18.344l75.966-16.881
	c3.699-0.821,6.33-4.101,6.33-7.891V8.084c0-4.466-3.618-8.084-8.084-8.084H137.432c-28.231,0-51.2,22.969-51.2,51.2v51.874
	L11.096,243.952C3.837,257.564,0,272.911,0,288.337V460.8C0,489.031,22.969,512,51.2,512h86.232c4.465,0,8.084-3.618,8.084-8.084
	S141.896,495.832,137.432,495.832z M288.337,319.057c4.466,0,8.084-3.618,8.084-8.084v-22.636c0-15.426-3.837-30.774-11.097-44.384
	l-38.756-72.667c-2.102-3.94-7-5.428-10.937-3.329c-3.94,2.101-5.43,6.998-3.329,10.936l38.757,72.667
	c3.021,5.665,5.326,11.695,6.873,17.912H61.979c-4.465,0-8.084,3.618-8.084,8.084s3.62,8.084,8.084,8.084h218.223
	c0.031,0.898,0.051,1.796,0.051,2.695v22.636C280.253,315.438,283.871,319.057,288.337,319.057z M234.442,366.484
	c16.345,0,29.642,13.298,29.642,29.642c0,16.344-13.297,29.642-29.642,29.642S204.8,412.47,204.8,396.126
	C204.8,379.782,218.097,366.484,234.442,366.484z M234.442,382.653c-7.43,0-13.474,6.044-13.474,13.474
	c0,7.43,6.044,13.474,13.474,13.474s13.474-6.044,13.474-13.474C247.916,388.696,241.872,382.653,234.442,382.653z M512,374.568
	c0,9.185-4.199,17.407-10.779,22.848V460.8c0,28.231-22.969,51.2-51.2,51.2h-43.116c-4.466,0-8.084-3.618-8.084-8.084
	s3.618-8.084,8.084-8.084h43.116c19.317,0,35.032-15.715,35.032-35.032v-56.718c-0.888,0.08-1.786,0.128-2.695,0.128
	c-16.344,0-29.642-13.298-29.642-29.642c0-8.701,3.769-16.538,9.76-21.965c-3.943-1.499-8.159-2.287-12.455-2.287h-67.497
	c0.081,0.888,0.128,1.786,0.128,2.695c0,16.344-13.298,29.642-29.642,29.642c-16.344,0-29.642-13.298-29.642-29.642
	c0-0.909,0.047-1.807,0.128-2.695H202.105c-19.316,0-35.032,15.715-35.032,35.032v45.939c0.888-0.08,1.786-0.128,2.695-0.128
	c16.345,0,29.642,13.298,29.642,29.642c0,12.535-7.826,23.271-18.845,27.597c6.074,4.729,13.635,7.434,21.54,7.434h172.463
	c4.466,0,8.084,3.618,8.084,8.084S379.034,512,374.568,512H202.105c-17.428,0-33.715-8.989-43.092-23.586
	c-11.042-4.316-18.887-15.062-18.887-27.613c0-9.185,4.199-17.407,10.779-22.848v-52.604c0-28.231,22.969-51.2,51.2-51.2h128.057
	c5.441-6.579,13.663-10.779,22.848-10.779c9.185,0,17.407,4.199,22.848,10.779h74.162c11.434,0,22.476,3.822,31.439,10.802
	c0.299-0.009,0.597-0.023,0.898-0.023C498.702,344.926,512,358.224,512,374.568z M169.768,447.326
	c-7.43,0-13.474,6.044-13.474,13.474s6.044,13.474,13.474,13.474s13.474-6.044,13.474-13.474S177.198,447.326,169.768,447.326z
	 M366.484,353.01c0-7.43-6.044-13.474-13.474-13.474s-13.474,6.044-13.474,13.474s6.044,13.474,13.474,13.474
	S366.484,360.44,366.484,353.01z M482.358,388.042c7.43,0,13.474-6.044,13.474-13.474c0-7.43-6.044-13.474-13.474-13.474
	s-13.474,6.044-13.474,13.474C468.884,381.998,474.928,388.042,482.358,388.042z M417.684,468.884
	c-16.344,0-29.642-13.298-29.642-29.642c0-16.344,13.298-29.642,29.642-29.642c16.344,0,29.642,13.298,29.642,29.642
	C447.326,455.586,434.028,468.884,417.684,468.884z M417.684,452.716c7.43,0,13.474-6.044,13.474-13.474
	s-6.044-13.474-13.474-13.474s-13.474,6.044-13.474,13.474S410.254,452.716,417.684,452.716z M320.674,409.6
	c16.344,0,29.642,13.298,29.642,29.642c0,16.344-13.298,29.642-29.642,29.642s-29.642-13.298-29.642-29.642
	C291.032,422.898,304.33,409.6,320.674,409.6z M320.674,425.768c-7.43,0-13.474,6.044-13.474,13.474s6.044,13.474,13.474,13.474
	s13.474-6.044,13.474-13.474S328.104,425.768,320.674,425.768z"/>
<g>
</g>
<g>
</g>
<g>
</g>
<g>
</g>
<g>
</g>
<g>
</g>
<g>
</g>
<g>
</g>
<g>
</g>
<g>
</g>
<g>
</g>
<g>
</g>
<g>
</g>
<g>
</g>
<g>
</g>
</svg>
