<svg id="Layer_2" data-name="Layer 2" xmlns="http://www.w3.org/2000/svg" viewBox="0 0 128 128"><title>MICROPHONE</title><path d="M86.586,18.32a1.75,1.75,0,0,0,1.75-1.75V13.9a1.75,1.75,0,1,0-3.5,0V16.57A1.75,1.75,0,0,0,86.586,18.32Z"/><path d="M80.652,21.773h2.675a1.75,1.75,0,0,0,0-3.5H80.652a1.75,1.75,0,0,0,0,3.5Z"/><path d="M86.78,21.532a1.75,1.75,0,0,0-1.75,1.75v2.675a1.75,1.75,0,0,0,3.5,0V23.282A1.75,1.75,0,0,0,86.78,21.532Z"/><path d="M90.04,21.579h2.675a1.75,1.75,0,0,0,0-3.5H90.04a1.75,1.75,0,0,0,0,3.5Z"/><path d="M60.41,25.176a5.25,5.25,0,1,0-5.25-5.25A5.256,5.256,0,0,0,60.41,25.176Zm0-7a1.75,1.75,0,1,1-1.75,1.75A1.752,1.752,0,0,1,60.41,18.176Z"/><path d="M96.128,91.833a5.178,5.178,0,0,0-1.456.231l-1.54-2.14,2.956-20.584a7.116,7.116,0,0,0,.169-14.213A13.015,13.015,0,0,0,83.319,43.355H76.883a13,13,0,0,0-25.766,0H44.681A13.015,13.015,0,0,0,31.743,55.128a7.116,7.116,0,0,0,.169,14.213l5.874,40.907c.008.054.018.107.03.16.781,3.258,3.112,5.447,5.8,5.447H84.384c2.688,0,5.019-2.189,5.8-5.447.013-.053.022-.106.03-.16L91.7,99.882a5.244,5.244,0,1,0,4.425-8.048Zm-5.944-6.005L78.33,69.355H92.55Zm9.246-23.6a3.629,3.629,0,0,1-3.625,3.625H75.811L70.594,58.6H95.806A3.629,3.629,0,0,1,99.431,62.23ZM66.667,53.148l-1.246-1.732a1.75,1.75,0,0,0-2.842,2.044L63.763,55.1h-2.43V52.438a2.667,2.667,0,0,1,5.334,0ZM44.681,46.855H52.75A1.75,1.75,0,0,0,54.5,45.1a9.5,9.5,0,0,1,19,0,1.75,1.75,0,0,0,1.75,1.75h8.069a9.514,9.514,0,0,1,9.418,8.25H70.167V52.438a6.167,6.167,0,0,0-12.334,0V55.1H35.263A9.514,9.514,0,0,1,44.681,46.855ZM28.569,62.23A3.629,3.629,0,0,1,32.194,58.6H66.281l5.217,7.25h-39.3A3.629,3.629,0,0,1,28.569,62.23Zm58.192,47.435c-.4,1.588-1.373,2.69-2.378,2.69H43.616c-1,0-1.976-1.1-2.378-2.69l-.562-3.915H60.519a1.75,1.75,0,0,0,0-3.5H40.174l-4.723-32.9H74.017l15.45,21.469Zm9.366-10.832a1.75,1.75,0,1,1,1.75-1.75A1.752,1.752,0,0,1,96.128,98.833Z"/></svg>