<?xml version="1.0" encoding="UTF-8"?>
<!DOCTYPE svg PUBLIC "-//W3C//DTD SVG 1.1//EN" "http://www.w3.org/Graphics/SVG/1.1/DTD/svg11.dtd">
<!-- Creator: CorelDRAW -->
<svg xmlns="http://www.w3.org/2000/svg" xml:space="preserve" width="6.82666in" height="6.82666in" style="shape-rendering:geometricPrecision; text-rendering:geometricPrecision; image-rendering:optimizeQuality; fill-rule:evenodd; clip-rule:evenodd"
viewBox="0 0 6.82666 6.82666"
 xmlns:xlink="http://www.w3.org/1999/xlink">
 <defs>
  <style type="text/css">
   <![CDATA[
    .fil2 {fill:none}
    .fil1 {fill:#F45A52}
    .fil0 {fill:#333333;fill-rule:nonzero}
   ]]>
  </style>
 </defs>
 <g id="Layer_x0020_1">
  <metadata id="CorelCorpID_0Corel-Layer"/>
  <g id="_443072736">
   <path id="_443073744" class="fil0" d="M1.45691 3.81917c-0.0287638,-0.051315 -0.0104803,-0.116236 0.0408346,-0.145 0.051315,-0.0287638 0.116236,-0.0104803 0.145,0.0408346l0.160236 0.285669c0.0287638,0.051315 0.0104803,0.116236 -0.0408346,0.145 -0.051315,0.0287638 -0.116236,0.0104803 -0.145,-0.0408346l-0.160236 -0.285669z"/>
   <path id="_443073792" class="fil0" d="M1.49444 3.88376c0.000830709,-0.00962205 0.00292126,-0.0188268 0.00607874,-0.0274843 -0.0195079,-0.0091063 -0.0364449,-0.024185 -0.0477756,-0.0443976l-0.520484 -0.92748c-0.0890591,-0.0968425 -0.0956496,-0.210929 -0.0549252,-0.306398 0.0158504,-0.0371614 0.0387835,-0.070752 0.0665984,-0.0985669 0.0278189,-0.027815 0.0614055,-0.050748 0.0985669,-0.0665984 0.0991457,-0.0422953 0.218366,-0.0335669 0.317504,0.065563l0.237098 0.237102 0 -0.799909c0,-0.140177 0.0782323,-0.230673 0.178354,-0.270921 0.0374252,-0.0150394 0.0773189,-0.022563 0.116594,-0.022563 0.0277087,0 0.0557244,0.00374803 0.0829606,0.0112323 0.0107244,-0.122476 0.0845236,-0.202531 0.177008,-0.239709 0.0374252,-0.0150394 0.0773189,-0.022563 0.116594,-0.022563 0.0392795,0 0.0791772,0.00752362 0.116594,0.022563 0.0924843,0.0371772 0.166287,0.117232 0.177008,0.239709 0.0272362,-0.00748425 0.055252,-0.0112323 0.0829567,-0.0112323 0.0392795,0 0.0791772,0.00752362 0.116594,0.022563 0.10013,0.040248 0.178358,0.130744 0.178358,0.270921l0 0.0936299c0.0307953,-0.00798031 0.0629094,-0.0112598 0.0947047,-0.00998425 0.044,0.00176378 0.087437,0.0120551 0.126024,0.0304606 0.0965945,0.0460669 0.166717,0.13826 0.155417,0.271201 -0.0414528,0.487406 -0.0781654,0.952547 -0.0827953,1.40874 -0.0046378,0.456587 0.0222205,0.913039 0.107358,1.39018 0.00990551,0.0497559 -0.0169409,0.100965 -0.0658425,0.120067l-7.08661e-005 -0.000185039 -0.235516 0.092c-0.00400787,0.00185827 -0.00817717,0.00348819 -0.0124921,0.00486614l-0.00811024 -0.0253819 -0.000137795 0.000228346 0.00785827 0.0247992 -0.0575669 0.0183976c-0.00230709,0.000980315 -0.00466142,0.00188583 -0.00707087,0.0027126l-0.000141732 -0.000405512 -1.1811e-005 3.93701e-006 0.00011811 0.00034252c-0.484728,0.166315 -0.935087,0.134169 -1.22083,0.0447638 -0.0909331,-0.0284528 -0.167016,-0.0632323 -0.22411,-0.0999724 -0.0699961,-0.0450354 -0.116669,-0.0972047 -0.13498,-0.150567 -0.0120197,-0.0350394 -0.0130039,-0.070252 -0.00217323,-0.104866 0.0621969,-0.198807 0.0762953,-0.475929 0.0907008,-0.75924 0.00669291,-0.131654 0.0134528,-0.264587 0.0239803,-0.383622zm0.151311 -0.0875276c0.0394449,0.0183858 0.0651496,0.0599803 0.0611929,0.105858 -0.0114213,0.129185 -0.0177323,0.253248 -0.0239803,0.376126 -0.0146772,0.288657 -0.0290591,0.571197 -0.0939213,0.792071 0.00746457,0.00809843 0.0219764,0.0191614 0.0428701,0.0326024 0.0417953,0.0268937 0.100177,0.0531969 0.172441,0.0758071 0.25228,0.078937 0.652571,0.106406 1.08832,-0.0430984l-2.3622e-005 -6.29921e-005c0.00387008,-0.00132677 0.00776378,-0.00241339 0.0116693,-0.00327953l0.0513858 -0.0164213 -1.5748e-005 -3.93701e-005 0.160665 -0.0627598c-0.075748,-0.458382 -0.0998898,-0.901071 -0.0953819,-1.34506 0.00479921,-0.472791 0.0414409,-0.938319 0.0827953,-1.42458 0.00256299,-0.0301496 -0.0130551,-0.0509252 -0.0345827,-0.0611929 -0.0132835,-0.00633465 -0.028,-0.00987402 -0.042685,-0.0104606 -0.0148819,-0.000594488 -0.0297402,0.00165354 -0.0430984,0.00687008 -0.0243031,0.00949606 -0.0432756,0.0332953 -0.0432756,0.0735354l-0.213339 0 0 -0.376555c0,-0.0391575 -0.0193819,-0.0634488 -0.044185,-0.0734173 -0.0111535,-0.00448031 -0.0239921,-0.00672835 -0.0374291,-0.00672835 -0.013437,0 -0.0262717,0.00224409 -0.0374291,0.00672835 -0.0247992,0.0099685 -0.0441811,0.0342598 -0.0441811,0.0734173l-0.213339 0 0 -0.251039c0,-0.0391575 -0.0193819,-0.0634488 -0.0441811,-0.0734173 -0.0111535,-0.00448031 -0.0239921,-0.00672835 -0.0374291,-0.00672835 -0.013437,0 -0.0262717,0.00224409 -0.0374291,0.00672835 -0.0247992,0.0099685 -0.0441811,0.0342598 -0.0441811,0.0734173l0 0.251039 -0.213339 0c0,-0.0391575 -0.0193819,-0.0634488 -0.044185,-0.0734173 -0.0111535,-0.00448031 -0.0239921,-0.00672835 -0.0374291,-0.00672835 -0.013437,0 -0.0262717,0.00224409 -0.0374291,0.00672835 -0.0247992,0.0099685 -0.0441811,0.0342598 -0.0441811,0.0734173l0 1.05741c0,0.0589094 -0.0477598,0.106669 -0.106669,0.106669 -0.0297913,0 -0.0567205,-0.0122165 -0.0760748,-0.0319094l-0.418528 -0.418531c-0.0276732,-0.0276732 -0.0586378,-0.0310984 -0.0833386,-0.020563 -0.011,0.00468898 -0.0216063,0.0121457 -0.031063,0.0215984 -0.00945669,0.00945669 -0.0169094,0.0200669 -0.0215984,0.031063 -0.0105354,0.0246969 -0.00711024,0.0556654 0.020563,0.0833386l7.87402e-006 -7.87402e-006c0.00858268,0.00858268 0.0153937,0.0182638 0.020437,0.0285906l0.524402 0.934461c0.0157795,0.0281535 0.0174016,0.0603937 0.00717323,0.0885197z"/>
   <path id="_443073600" class="fil0" d="M2.93929 2.30341c0.0062126,-0.0584488 -0.0361339,-0.110874 -0.0945827,-0.117087 -0.0584488,-0.0062126 -0.110874,0.0361339 -0.117087,0.0945827l-0.0713189 0.650594c-0.0062126,0.0584488 0.0361339,0.110874 0.0945827,0.117087 0.0584488,0.0062126 0.110874,-0.0361339 0.117087,-0.0945827l0.0713189 -0.650594z"/>
   <path id="_443073384" class="fil0" d="M2.56314 1.92184c0.00345276,-0.0586811 -0.0413189,-0.109051 -0.1,-0.112504 -0.0586811,-0.00345276 -0.109051,0.0413189 -0.112504,0.1l-0.0548228 0.915618c-0.00345276,0.0586811 0.0413189,0.109051 0.1,0.112504 0.0586811,0.00345276 0.109051,-0.0413189 0.112504,-0.1l0.0548228 -0.915618z"/>
   <path id="_443073312" class="fil0" d="M2.18658 1.91517c-0.000228346,-0.0586811 -0.0479882,-0.106063 -0.106669,-0.105835 -0.0586811,0.000228346 -0.106063,0.0479882 -0.105835,0.106669l0.00354331 0.880083c0.000228346,0.0586811 0.0479882,0.106063 0.106669,0.105835 0.0586811,-0.000228346 0.106063,-0.0479882 0.105835,-0.106669l-0.00354331 -0.880083z"/>
   <path id="_443073720" class="fil0" d="M5.36975 3.81917c0.0287638,-0.051315 0.0104803,-0.116236 -0.0408346,-0.145 -0.051315,-0.0287638 -0.116236,-0.0104803 -0.145,0.0408346l-0.160236 0.285669c-0.0287638,0.051315 -0.0104803,0.116236 0.0408346,0.145 0.051315,0.0287638 0.116236,0.0104803 0.145,-0.0408346l0.160236 -0.285669z"/>
   <path id="_443073432" class="fil0" d="M5.33222 3.88376c-0.000830709,-0.00962205 -0.00292126,-0.0188268 -0.00607874,-0.0274843 0.0195079,-0.0091063 0.0364449,-0.024185 0.0477756,-0.0443976l0.520484 -0.92748c0.0890591,-0.0968425 0.0956496,-0.210929 0.0549252,-0.306398 -0.0158504,-0.0371614 -0.0387835,-0.070752 -0.0665984,-0.0985669 -0.0278189,-0.027815 -0.0614055,-0.050748 -0.0985669,-0.0665984 -0.0991457,-0.0422953 -0.218366,-0.0335669 -0.317504,0.065563l-0.237098 0.237102 0 -0.799909c0,-0.140177 -0.0782323,-0.230673 -0.178354,-0.270921 -0.0374252,-0.0150394 -0.0773189,-0.022563 -0.116594,-0.022563 -0.0277087,0 -0.0557244,0.00374803 -0.0829606,0.0112323 -0.0107244,-0.122476 -0.0845236,-0.202531 -0.177008,-0.239709 -0.0374252,-0.0150394 -0.0773189,-0.022563 -0.116594,-0.022563 -0.0392795,0 -0.0791772,0.00752362 -0.116594,0.022563 -0.0924843,0.0371772 -0.166287,0.117232 -0.177008,0.239709 -0.0272362,-0.00748425 -0.055252,-0.0112323 -0.0829567,-0.0112323 -0.0392795,0 -0.0791772,0.00752362 -0.116594,0.022563 -0.10013,0.040248 -0.178358,0.130744 -0.178358,0.270921l0 0.0936299c-0.0307953,-0.00798031 -0.0629094,-0.0112598 -0.0947047,-0.00998425 -0.044,0.00176378 -0.087437,0.0120551 -0.126024,0.0304606 -0.0965945,0.0460669 -0.166717,0.13826 -0.155417,0.271201 0.0414528,0.487406 0.0781654,0.952547 0.0827953,1.40874 0.0046378,0.456587 -0.0222205,0.913039 -0.107358,1.39018 -0.00990551,0.0497559 0.0169409,0.100965 0.0658425,0.120067l7.08661e-005 -0.000185039 0.235516 0.092c0.00400787,0.00185827 0.00817717,0.00348819 0.0124921,0.00486614l0.00811024 -0.0253819 0.000137795 0.000228346 -0.00785827 0.0247992 0.0575669 0.0183976c0.00230709,0.000980315 0.00466142,0.00188583 0.00707087,0.0027126l0.000141732 -0.000405512 1.1811e-005 3.93701e-006 -0.00011811 0.00034252c0.484728,0.166315 0.935087,0.134169 1.22083,0.0447638 0.0909331,-0.0284528 0.167016,-0.0632323 0.22411,-0.0999724 0.0699961,-0.0450354 0.116669,-0.0972047 0.13498,-0.150567 0.0120197,-0.0350394 0.0130039,-0.070252 0.00217323,-0.104866 -0.0621969,-0.198807 -0.0762953,-0.475929 -0.0907008,-0.75924 -0.00669291,-0.131654 -0.0134528,-0.264587 -0.0239803,-0.383622zm-0.151311 -0.0875276c-0.0394449,0.0183858 -0.0651496,0.0599803 -0.0611929,0.105858 0.0114213,0.129185 0.0177323,0.253248 0.0239803,0.376126 0.0146772,0.288657 0.0290591,0.571197 0.0939213,0.792071 -0.00746457,0.00809843 -0.0219764,0.0191614 -0.0428701,0.0326024 -0.0417953,0.0268937 -0.100177,0.0531969 -0.172441,0.0758071 -0.25228,0.078937 -0.652571,0.106406 -1.08832,-0.0430984l2.3622e-005 -6.29921e-005c-0.00387008,-0.00132677 -0.00776378,-0.00241339 -0.0116693,-0.00327953l-0.0513858 -0.0164213 1.5748e-005 -3.93701e-005 -0.160665 -0.0627598c0.075748,-0.458382 0.0998898,-0.901071 0.0953819,-1.34506 -0.00479921,-0.472791 -0.0414409,-0.938319 -0.0827953,-1.42458 -0.00256299,-0.0301496 0.0130551,-0.0509252 0.0345827,-0.0611929 0.0132835,-0.00633465 0.028,-0.00987402 0.042685,-0.0104606 0.0148819,-0.000594488 0.0297402,0.00165354 0.0430984,0.00687008 0.0243031,0.00949606 0.0432756,0.0332953 0.0432756,0.0735354l0.213339 0 0 -0.376555c0,-0.0391575 0.0193819,-0.0634488 0.044185,-0.0734173 0.0111535,-0.00448031 0.0239921,-0.00672835 0.0374291,-0.00672835 0.013437,0 0.0262717,0.00224409 0.0374291,0.00672835 0.0247992,0.0099685 0.0441811,0.0342598 0.0441811,0.0734173l0.213339 0 0 -0.251039c0,-0.0391575 0.0193819,-0.0634488 0.0441811,-0.0734173 0.0111535,-0.00448031 0.0239921,-0.00672835 0.0374291,-0.00672835 0.013437,0 0.0262717,0.00224409 0.0374291,0.00672835 0.0247992,0.0099685 0.0441811,0.0342598 0.0441811,0.0734173l0 0.251039 0.213339 0c0,-0.0391575 0.0193819,-0.0634488 0.044185,-0.0734173 0.0111535,-0.00448031 0.0239921,-0.00672835 0.0374291,-0.00672835 0.013437,0 0.0262717,0.00224409 0.0374291,0.00672835 0.0247992,0.0099685 0.0441811,0.0342598 0.0441811,0.0734173l0 1.05741c0,0.0589094 0.0477598,0.106669 0.106669,0.106669 0.0297913,0 0.0567205,-0.0122165 0.0760748,-0.0319094l0.418528 -0.418531c0.0276732,-0.0276732 0.0586378,-0.0310984 0.0833386,-0.020563 0.011,0.00468898 0.0216063,0.0121457 0.031063,0.0215984 0.00945669,0.00945669 0.0169094,0.0200669 0.0215984,0.031063 0.0105354,0.0246969 0.00711024,0.0556654 -0.020563,0.0833386l-7.87402e-006 -7.87402e-006c-0.00858268,0.00858268 -0.0153937,0.0182638 -0.020437,0.0285906l-0.524402 0.934461c-0.0157795,0.0281535 -0.0174016,0.0603937 -0.00717323,0.0885197z"/>
   <path id="_443073408" class="fil0" d="M4.09904 2.2809c-0.0062126,-0.0584488 -0.0586378,-0.100795 -0.117087,-0.0945827 -0.0584488,0.0062126 -0.100795,0.0586378 -0.0945827,0.117087l0.0713189 0.650594c0.0062126,0.0584488 0.0586378,0.100795 0.117087,0.0945827 0.0584488,-0.0062126 0.100795,-0.0586378 0.0945827,-0.117087l-0.0713189 -0.650594z"/>
   <path id="_443073912" class="fil0" d="M4.47602 1.90933c-0.00345276,-0.0586811 -0.0538228,-0.103453 -0.112504,-0.1 -0.0586811,0.00345276 -0.103453,0.0538228 -0.1,0.112504l0.0548228 0.915618c0.00345276,0.0586811 0.0538228,0.103453 0.112504,0.1 0.0586811,-0.00345276 0.103453,-0.0538228 0.1,-0.112504l-0.0548228 -0.915618z"/>
   <path id="_443073264" class="fil0" d="M4.85258 1.916c0.000228346,-0.0586811 -0.0471535,-0.106441 -0.105835,-0.106669 -0.0586811,-0.000228346 -0.106441,0.0471535 -0.106669,0.105835l-0.00354331 0.880083c-0.000228346,0.0586811 0.0471535,0.106441 0.105835,0.106669 0.0586811,0.000228346 0.106441,-0.0471535 0.106669,-0.105835l0.00354331 -0.880083z"/>
  </g>
  <path class="fil1" d="M1.09373 2.74467l0 0zm1.86197 2.37117l0 0zm0.0652677 -1.40786c0.00479921,-0.472791 0.0414409,-0.938319 0.0827953,-1.42458 0.00256299,-0.0301496 -0.0130551,-0.0509252 -0.0345827,-0.0611929 -0.0132835,-0.00633465 -0.028,-0.00987402 -0.042685,-0.0104606 -0.0148819,-0.000594488 -0.0297402,0.00165354 -0.0430984,0.00687008 -0.0243031,0.00949606 -0.0432756,0.0332953 -0.0432756,0.0735354l-0.000228346 0c-3.93701e-006,0.00372047 -0.000204724,0.00748031 -0.000606299,0.0112638l-0.0713189 0.650594c-0.0062126,0.0584488 -0.0586378,0.100795 -0.117087,0.0945827 -0.0584488,-0.0062126 -0.100795,-0.0586378 -0.0945827,-0.117087l0.0704843 -0.64298 0 -0.372929c0,-0.0391575 -0.0193819,-0.0634488 -0.044185,-0.0734173 -0.0111535,-0.00448031 -0.0239921,-0.00672835 -0.0374291,-0.00672835 -0.013437,0 -0.0262717,0.00224409 -0.0374291,0.00672835 -0.0247992,0.0099685 -0.0441811,0.0342598 -0.0441811,0.0734173l-0.000232283 0c0,0.00207087 -6.29921e-005,0.00415748 -0.000185039,0.00625197l-0.0548228 0.915618c-0.00345276,0.0586811 -0.0538228,0.103453 -0.112504,0.1 -0.0586811,-0.00345276 -0.103453,-0.0538228 -0.1,-0.112504l0.0544488 -0.909366 -4.33071e-005 0 0 -0.251039c0,-0.0391575 -0.0193819,-0.0634488 -0.0441811,-0.0734173 -0.0111535,-0.00448031 -0.0239921,-0.00672835 -0.0374291,-0.00672835 -0.013437,0 -0.0262717,0.00224409 -0.0374291,0.00672835 -0.0247992,0.0099685 -0.0441811,0.0342598 -0.0441811,0.0734173l0 0.251039 -0.000417323 0 0.00354331 0.879665c0.000228346,0.0586811 -0.0471535,0.106441 -0.105835,0.106669 -0.0586811,0.000228346 -0.106441,-0.0471535 -0.106669,-0.105835l-0.00354331 -0.880083c0,-0.000137795 0,-0.000279528 0,-0.000417323l-0.000417323 0c0,-0.0391575 -0.0193819,-0.0634488 -0.044185,-0.0734173 -0.0111535,-0.00448031 -0.0239921,-0.00672835 -0.0374291,-0.00672835 -0.013437,0 -0.0262717,0.00224409 -0.0374291,0.00672835 -0.0247992,0.0099685 -0.0441811,0.0342598 -0.0441811,0.0734173l0 1.05741c0,0.0589094 -0.0477598,0.106669 -0.106669,0.106669 -0.0297913,0 -0.0567205,-0.0122165 -0.0760748,-0.0319094l-0.418528 -0.418531c-0.0276732,-0.0276732 -0.0586378,-0.0310984 -0.0833386,-0.020563 -0.011,0.00468898 -0.0216063,0.0121457 -0.031063,0.0215984 -0.00945669,0.00945669 -0.0169094,0.0200669 -0.0215984,0.031063 -0.0105354,0.0246969 -0.00711024,0.0556654 0.0205709,0.0833307 0.00858268,0.00858268 0.0153937,0.0182638 0.020437,0.0285906l0.524402 0.934461c0.000547244,0.000976378 0.0010748,0.00195669 0.00159055,0.00294094 0.000885827,0.0014252 0.00174409,0.00287402 0.0025748,0.00435433l0.160236 0.285669c0.0287638,0.051315 0.0104803,0.116236 -0.0408346,0.145 -0.0230433,0.0129173 -0.0488346,0.0163465 -0.0728583,0.0115551 -0.00223228,0.0405472 -0.00427953,0.0808268 -0.00632283,0.120984 -0.0146772,0.288657 -0.0290591,0.571197 -0.0939213,0.792071 0.00746457,0.00809843 0.0219764,0.0191614 0.0428701,0.0326024 0.0417953,0.0268937 0.100177,0.0531969 0.172441,0.0758071 0.25228,0.078937 0.652571,0.106406 1.08832,-0.0430984l-2.3622e-005 -6.29921e-005c0.00387008,-0.00132677 0.00776378,-0.00241339 0.0116693,-0.00327953l0.0513701 -0.0164606 0.160665 -0.0627598c-0.075748,-0.458382 -0.0998898,-0.901071 -0.0953819,-1.34506z"/>
  <path class="fil1" d="M3.87097 5.11579l0 0zm1.86196 -2.37113l0 0zm-2.01004 -0.461276c0.0413543,0.48626 0.0779961,0.951787 0.0827953,1.42458 0.00450787,0.443992 -0.0196339,0.886681 -0.0953819,1.34506l0.16065 0.0627992 0.0513858 0.0164213c0.00390551,0.000866142 0.00779921,0.00195276 0.0116693,0.00327953l-2.3622e-005 6.29921e-005c0.435748,0.149504 0.836039,0.122035 1.08832,0.0430984 0.0722638,-0.0226102 0.130646,-0.0489134 0.172441,-0.0758071 0.0208937,-0.0134409 0.0354055,-0.0245039 0.0428701,-0.0326024 -0.0648622,-0.220874 -0.0792441,-0.503413 -0.0939213,-0.792071 -0.00204331,-0.0401535 -0.00409055,-0.080437 -0.00632283,-0.120984 -0.0240236,0.00479134 -0.049815,0.0013622 -0.0728583,-0.0115551 -0.051315,-0.0287638 -0.0695984,-0.093685 -0.0408346,-0.145l0.160236 -0.285669c0.000830709,-0.00148031 0.00168898,-0.00292913 0.0025748,-0.00435433 0.000515748,-0.000984252 0.00104331,-0.00196457 0.00159055,-0.00294094l0.524402 -0.934461c0.00504331,-0.0103268 0.0118543,-0.0200079 0.0204449,-0.0285827 0.0276732,-0.0276732 0.0310984,-0.0586417 0.020563,-0.0833386 -0.00468898,-0.0109961 -0.0121417,-0.0216063 -0.0215984,-0.031063 -0.00945669,-0.00945276 -0.020063,-0.0169094 -0.031063,-0.0215984 -0.0247008,-0.0105354 -0.0556654,-0.00711024 -0.0833386,0.020563l-0.418528 0.418531c-0.0193543,0.0196929 -0.0462835,0.0319094 -0.0760748,0.0319094 -0.0589094,0 -0.106669,-0.0477598 -0.106669,-0.106669l0 -1.05741c0,-0.0391575 -0.0193819,-0.0634488 -0.0441811,-0.0734173 -0.0111575,-0.00448425 -0.0239921,-0.00672835 -0.0374291,-0.00672835 -0.013437,0 -0.0262756,0.00224803 -0.0374291,0.00672835 -0.0248031,0.0099685 -0.044185,0.0342598 -0.044185,0.0734173l-0.000417323 0c0,0.000137795 0,0.000279528 0,0.000417323l-0.00354331 0.880083c-0.000228346,0.0586811 -0.0479882,0.106063 -0.106669,0.105835 -0.0586811,-0.000228346 -0.106063,-0.0479882 -0.105835,-0.106669l0.00354331 -0.879665 -0.000417323 0 0 -0.251039c0,-0.0391575 -0.0193819,-0.0634488 -0.0441811,-0.0734173 -0.0111575,-0.00448425 -0.0239921,-0.00672835 -0.0374291,-0.00672835 -0.013437,0 -0.0262756,0.00224803 -0.0374291,0.00672835 -0.0247992,0.0099685 -0.0441811,0.0342598 -0.0441811,0.0734173l0 0.251039 -4.33071e-005 0 0.0544488 0.909366c0.00345276,0.0586811 -0.0413189,0.109051 -0.1,0.112504 -0.0586811,0.00345276 -0.109051,-0.0413189 -0.112504,-0.1l-0.0548228 -0.915618c-0.000122047,-0.00209449 -0.000185039,-0.0041811 -0.000185039,-0.00625197l-0.000232283 0c0,-0.0391575 -0.0193819,-0.0634488 -0.0441811,-0.0734173 -0.0111575,-0.00448425 -0.0239921,-0.00672835 -0.0374291,-0.00672835 -0.013437,0 -0.0262756,0.00224803 -0.0374291,0.00672835 -0.0248031,0.0099685 -0.044185,0.0342598 -0.044185,0.0734173l0 0.372929 0.0704843 0.64298c0.0062126,0.0584488 -0.0361339,0.110874 -0.0945827,0.117087 -0.0584488,0.0062126 -0.110874,-0.0361339 -0.117087,-0.0945827l-0.0713189 -0.650594c-0.000401575,-0.00378346 -0.000602362,-0.00754331 -0.000606299,-0.0112638l-0.000228346 0c0,-0.0402402 -0.0189724,-0.0640394 -0.0432756,-0.0735354 -0.0133583,-0.00521654 -0.0282165,-0.00746457 -0.0430984,-0.00687008 -0.014685,0.000586614 -0.0294016,0.00412598 -0.042685,0.0104606 -0.0215276,0.0102677 -0.0371457,0.0310433 -0.0345827,0.0611929z"/>
 </g>
 <rect class="fil2" width="6.82666" height="6.82666"/>
</svg>
