<?xml version="1.0" encoding="UTF-8"?>
<!DOCTYPE svg PUBLIC "-//W3C//DTD SVG 1.1//EN" "http://www.w3.org/Graphics/SVG/1.1/DTD/svg11.dtd">
<!-- Creator: CorelDRAW -->
<svg xmlns="http://www.w3.org/2000/svg" xml:space="preserve" width="6.82666in" height="6.82666in" style="shape-rendering:geometricPrecision; text-rendering:geometricPrecision; image-rendering:optimizeQuality; fill-rule:evenodd; clip-rule:evenodd"
viewBox="0 0 6.82666 6.82666"
 xmlns:xlink="http://www.w3.org/1999/xlink">
 <defs>
  <style type="text/css">
   <![CDATA[
    .fil4 {fill:none}
    .fil1 {fill:#949494}
    .fil3 {fill:#B38E85}
    .fil2 {fill:#EBE5DF}
    .fil0 {fill:#333333;fill-rule:nonzero}
   ]]>
  </style>
 </defs>
 <g id="Layer_x0020_1">
  <metadata id="CorelCorpID_0Corel-Layer"/>
  <g id="_444914760">
   <path id="_444914472" class="fil0" d="M2.38469 4.08885c0.0423819,-0.0423858 0.0423819,-0.11111 0,-0.153492 -0.0423819,-0.0423819 -0.111106,-0.0423819 -0.153492,0l-0.604921 0.604921 -0.35776 -0.35776 2.914 -2.914 0.35776 0.35776 -0.604921 0.604921c-0.0423819,0.0423858 -0.0423819,0.11111 0,0.153492 0.0423819,0.0423819 0.111106,0.0423819 0.153492,0l0.681059 -0.681059 0.000614173 -0.000602362c0.0423898,-0.0423858 0.0423898,-0.111118 0,-0.153504l-7.87402e-006 7.87402e-006 -0.510642 -0.510642 -0.000598425 -0.00061811c-0.0423858,-0.0423858 -0.111122,-0.0423858 -0.153508,0l7.87402e-006 7.87402e-006 -3.06689 3.06689 -0.00061811 0.000602362c-0.0423858,0.0423858 -0.0423858,0.111118 0,0.153508l7.87402e-006 -7.87402e-006 0.510642 0.510642 0.000598425 0.000614173c0.0423898,0.0423898 0.111122,0.0423898 0.153508,0l-7.87402e-006 -7.87402e-006 0.681669 -0.681665z"/>
   <path id="_444915120" class="fil0" d="M2.06139 3.76433l1.70355 -1.70355 -7.87402e-006 -7.87402e-006c0.0423858,-0.0423858 0.111118,-0.0423858 0.153508,0l0.000673228 0.00069685c0.411969,0.412051 0.450366,0.524539 0.157744,0.817161 -0.048252,0.0482559 -0.117661,0.110504 -0.201012,0.185252 -0.11485,0.103 -0.258579,0.231898 -0.438059,0.411378 -0.173394,0.17339 -0.301461,0.315425 -0.402913,0.427937 -0.0698189,0.0774331 -0.127634,0.141555 -0.17648,0.190402 -0.293197,0.293197 -0.385189,0.237264 -0.797614,-0.175169l-7.87402e-006 7.87402e-006c-0.0423858,-0.0423858 -0.0423858,-0.111118 0,-0.153504l0.00061811 -0.000602362zm1.77961 -1.47263l-1.54959 1.54959c0.217732,0.212213 0.279524,0.232787 0.413496,0.098815 0.0490039,-0.0490079 0.103295,-0.109217 0.16885,-0.181921 0.104898,-0.116335 0.237307,-0.263185 0.410539,-0.436417 0.172339,-0.172339 0.325228,-0.309453 0.44739,-0.419008 0.0743583,-0.066689 0.136295,-0.122232 0.191681,-0.177618 0.14113,-0.14113 0.128882,-0.213169 -0.0823661,-0.433441z"/>
   <path id="_444914976" class="fil0" d="M3.15344 3.45916l0.306335 -0.306331 -7.87402e-006 -7.87402e-006c0.0423858,-0.0423898 0.111122,-0.0423898 0.153508,0l0.000602362 0.000614173 2.26435 2.26435 7.87402e-006 7.87402e-006c0.0634016,0.0633976 0.0951024,0.14685 0.0951024,0.230209 0,0.0826181 -0.0311496,0.165331 -0.0934331,0.228516 -0.000992126,0.00103937 -0.00200787,0.00205118 -0.00303937,0.00305118 -0.0632283,0.0625039 -0.146087,0.0937638 -0.228854,0.0937638 -0.0833622,0 -0.166803,-0.0317087 -0.230213,-0.0951102l-3.93701e-006 -3.93701e-006 -2.26496 -2.26496 -7.87402e-006 7.87402e-006c-0.0423898,-0.0423858 -0.0423898,-0.111122 0,-0.153508l0.000614173 -0.000602362zm0.383083 -0.0760945l-0.153453 0.153453 2.18821 2.18821 3.93701e-006 3.93701e-006c0.021,0.0209961 0.0488189,0.0315079 0.0767205,0.0315079 0.0276732,0 0.0552638,-0.0103346 0.0762008,-0.0309921l0.000515748 -0.000527559 7.87402e-006 7.87402e-006 7.87402e-006 -7.87402e-006c0.0209961,-0.0209961 0.0315,-0.0488268 0.0315,-0.0767165 0,-0.0278937 -0.0105039,-0.0557205 -0.0315,-0.0767165l-7.87402e-006 -7.87402e-006 -2.18821 -2.18821z"/>
   <path id="_444914808" class="fil0" d="M0.885122 4.25893c-0.0423858,0.0423858 -0.0423858,0.11111 0,0.153492 0.0423819,0.0423819 0.111106,0.0423819 0.153488,0l0.335606 -0.335598c0.0423819,-0.0423858 0.0423819,-0.11111 0,-0.153492 -0.0423819,-0.0423819 -0.11111,-0.0423819 -0.153492,0l-0.335602 0.335598z"/>
   <path id="_444915048" class="fil0" d="M3.92333 1.22072c-0.0423819,0.0423819 -0.0423819,0.11111 0,0.153492 0.0423819,0.0423819 0.111106,0.0423819 0.153492,0l0.335598 -0.335602c0.0423819,-0.0423858 0.0423819,-0.11111 0,-0.153492 -0.0423819,-0.0423858 -0.111106,-0.0423858 -0.153492,0l-0.335598 0.335602z"/>
  </g>
  <path class="fil1" d="M3.76494 2.06078l0 0zm-1.70417 1.85766c-0.0423858,-0.0423858 -0.0423858,-0.111118 0,-0.153504l0.00061811 -0.000602362 1.70354 -1.70356c0.0423858,-0.0423858 0.111118,-0.0423858 0.153508,0l0.000673228 0.00069685c0.033122,0.033126 0.0638268,0.0643189 0.0921417,0.0938228l0.52902 -0.52902 -0.35776 -0.35776 -0.105697 0.105705c-0.000259843,0.000259843 -0.000523622,0.000519685 -0.000787402,0.000779528l-2.70104 2.70104c-0.000259843,0.00026378 -0.000519685,0.000527559 -0.000779528,0.000787402l-0.105705 0.105697 0.35776 0.35776 0.528669 -0.528669c-0.0294724,-0.0287244 -0.0607677,-0.0597795 -0.0941693,-0.0931693z"/>
  <path class="fil2" d="M3.841 2.2917l-1.54959 1.54959c0.217732,0.212213 0.279524,0.232787 0.413496,0.098815 0.0490039,-0.0490079 0.103295,-0.109217 0.16885,-0.181921 0.104898,-0.116335 0.237307,-0.263185 0.410539,-0.436417 0.172339,-0.172339 0.325228,-0.309453 0.44739,-0.419008 0.0743583,-0.066689 0.136295,-0.122232 0.191681,-0.177618 0.14113,-0.14113 0.128882,-0.213169 -0.0823661,-0.433441z"/>
  <path class="fil3" d="M5.72473 5.72473l0 0zm0 -0.153449l-2.18821 -2.18821 -0.153453 0.153453 2.18822 2.18821c0.0423071,0.0423031 0.112713,0.0416457 0.153445,-3.93701e-006 0.0420157,-0.0420157 0.0420157,-0.111433 0,-0.153449z"/>
 </g>
 <rect class="fil4" width="6.82666" height="6.82666"/>
</svg>
