<?xml version="1.0" encoding="UTF-8"?>
<!DOCTYPE svg PUBLIC "-//W3C//DTD SVG 1.1//EN" "http://www.w3.org/Graphics/SVG/1.1/DTD/svg11.dtd">
<!-- Creator: CorelDRAW -->
<svg xmlns="http://www.w3.org/2000/svg" xml:space="preserve" width="6.82666in" height="6.82666in" style="shape-rendering:geometricPrecision; text-rendering:geometricPrecision; image-rendering:optimizeQuality; fill-rule:evenodd; clip-rule:evenodd"
viewBox="0 0 6.82666 6.82666"
 xmlns:xlink="http://www.w3.org/1999/xlink">
 <defs>
  <style type="text/css">
   <![CDATA[
    .fil6 {fill:none}
    .fil2 {fill:#63CBE5}
    .fil1 {fill:#949494}
    .fil3 {fill:#AED581}
    .fil4 {fill:#B38E85}
    .fil5 {fill:#FFD3B3}
    .fil0 {fill:#333333;fill-rule:nonzero}
   ]]>
  </style>
 </defs>
 <g id="Layer_x0020_1">
  <metadata id="CorelCorpID_0Corel-Layer"/>
  <path class="fil0" d="M2.26678 3.34869c0.0497047,-0.0312953 0.0646299,-0.0969606 0.0333346,-0.146665 -0.0312953,-0.0497047 -0.0969606,-0.0646299 -0.146665,-0.0333346 -0.780134,0.491075 -0.511228,0.90572 -0.253705,1.30281 0.125453,0.193441 0.247504,0.38165 0.182894,0.547524 -0.0211693,0.0547638 0.00606693,0.116331 0.0608307,0.1375 0.0547638,0.0211693 0.116331,-0.00606693 0.1375,-0.0608307 0.103953,-0.266874 -0.0473622,-0.500201 -0.202894,-0.740028 -0.200094,-0.308535 -0.409031,-0.630717 0.188705,-1.00698z"/>
  <path class="fil0" d="M1.39324 5.55555c-0.0589094,0 -0.106669,0.0477598 -0.106669,0.106669 0,0.0589094 0.0477598,0.106669 0.106669,0.106669l0.818984 0c0.0589094,0 0.106669,-0.0477598 0.106669,-0.106669l0 -0.306665c0,-0.141886 -0.0579724,-0.270803 -0.151362,-0.364193 -0.0933898,-0.0933898 -0.222307,-0.151362 -0.364193,-0.151362l-0.715559 0c-0.0589094,0 -0.106669,0.0477598 -0.106669,0.106669l0 0.538661c0,0.0589094 0.0477598,0.106669 0.106669,0.106669 0.0589094,0 0.106669,-0.0477598 0.106669,-0.106669l0 -0.431992 0.60889 0c0.083,0 0.158535,0.0340354 0.213358,0.0888583 0.0548228,0.0548228 0.0888583,0.130358 0.0888583,0.213358l0 0.199996 -0.712315 0z"/>
  <path class="fil0" d="M1.19 5.3511c0.0858976,0 0.163677,0.0348268 0.21998,0.0911339 0.0563071,0.0563031 0.0911339,0.134083 0.0911339,0.21998 0,0.0858976 -0.0348268,0.163677 -0.0911339,0.219984 -0.0563031,0.0563031 -0.134083,0.0911299 -0.21998,0.0911299 -0.0858976,0 -0.163677,-0.0348268 -0.219984,-0.0911299 -0.0563031,-0.0563071 -0.0911299,-0.134087 -0.0911299,-0.219984 0,-0.0858976 0.0348268,-0.163677 0.0911299,-0.21998 0.0563071,-0.0563071 0.134087,-0.0911339 0.219984,-0.0911339zm0.0691457 0.241969c-0.017685,-0.017689 -0.0421339,-0.0286299 -0.0691457,-0.0286299 -0.0270118,0 -0.0514646,0.0109449 -0.0691496,0.0286299 -0.017685,0.017685 -0.028626,0.0421339 -0.028626,0.0691457 0,0.0270118 0.0109409,0.0514646 0.028626,0.0691496 0.017685,0.017685 0.0421378,0.028626 0.0691496,0.028626 0.0270118,0 0.0514606,-0.0109409 0.0691457,-0.028626 0.017685,-0.017685 0.0286299,-0.0421378 0.0286299,-0.0691496 0,-0.0270118 -0.0109409,-0.0514606 -0.0286299,-0.0691457z"/>
  <path class="fil0" d="M4.4222 0.853327c0.16322,0 0.311004,0.0661693 0.417984,0.173146 0.106976,0.10698 0.173146,0.254764 0.173146,0.417984 0,0.16322 -0.0661732,0.311008 -0.173146,0.41798 -0.10698,0.10698 -0.254764,0.17315 -0.417984,0.17315 -0.16322,0 -0.311004,-0.0661693 -0.41798,-0.17315 -0.10698,-0.106976 -0.17315,-0.25476 -0.17315,-0.41798 0,-0.16322 0.0661693,-0.311004 0.17315,-0.417984 0.106972,-0.106972 0.25476,-0.173146 0.41798,-0.173146zm0.26715 0.32398c-0.0683622,-0.0683583 -0.162815,-0.110642 -0.26715,-0.110642 -0.104335,0 -0.198787,0.0422835 -0.267146,0.110642 -0.0683583,0.0683583 -0.110646,0.162815 -0.110646,0.26715 0,0.104335 0.0422835,0.198787 0.110646,0.267146 0.0683583,0.0683622 0.162811,0.110646 0.267146,0.110646 0.104335,0 0.198791,-0.0422874 0.26715,-0.110646 0.0683583,-0.0683583 0.110642,-0.162811 0.110642,-0.267146 0,-0.104335 -0.0422835,-0.198787 -0.110642,-0.26715z"/>
  <path class="fil0" d="M2.71045 3.35902c-0.0515472,-0.0280748 -0.116094,-0.00904724 -0.144169,0.0425 -0.0280748,0.0515472 -0.00904724,0.116094 0.0425,0.144169l1.72624 0.9435c0.0515472,0.0280748 0.116094,0.00904724 0.144169,-0.0425 0.0280748,-0.0515472 0.00904724,-0.116094 -0.0425,-0.144169l-1.72624 -0.9435zm2.15284 1.18265c-0.0515472,-0.0280748 -0.116094,-0.00904724 -0.144169,0.0425 -0.0280748,0.0515472 -0.00904724,0.116094 0.0425,0.144169l0.626217 0.34078c0.0515472,0.0280748 0.116094,0.00904724 0.144169,-0.0425 0.0280748,-0.0515472 0.00904724,-0.116094 -0.0425,-0.144169l-0.626217 -0.34078z"/>
  <path class="fil0" d="M5.84111 5.39905l-0.853327 0c-0.0589094,0 -0.106669,-0.0477598 -0.106669,-0.106669 0,-0.134665 0.0639606,-0.230437 0.161516,-0.295339 0.102354,-0.0680945 0.242929,-0.0970118 0.377067,-0.0991024 0.0226732,-0.000346457 0.00239764,-0.000523622 0.0150394,-0.000523622 0.121976,0 0.241854,0.0233976 0.335039,0.0790354 0.105697,0.0631102 0.17513,0.162764 0.177539,0.308961l7.87402e-006 0 0 7.87402e-006 0.000401575 -7.87402e-006c3.54331e-005,0.00233858 -1.1811e-005,0.00466535 -0.000125984,0.0069685l3.54331e-005 0c9.84252e-005,-0.00234646 0.000145669,-0.00817717 0.000145669,0 0,0.0589094 -0.0477598,0.106669 -0.106669,0.106669zm-0.696039 -0.213339l0.549677 0c-0.00991339,-0.0102598 -0.0213937,-0.0191457 -0.0341378,-0.0267559 -0.0568307,-0.0339331 -0.13852,-0.0482008 -0.225874,-0.0482008 -0.0218228,0 0.000933071,-0.000515748 -0.0125354,-0.000311024 -0.0974488,0.00151969 -0.196173,0.0202638 -0.262067,0.0641024 -0.00527165,0.00350787 -0.0102992,0.00723228 -0.015063,0.0111654zm0.802528 0.106669l-3.93701e-005 0.000858268c2.75591e-005,-7.87402e-006 5.11811e-005,-0.000350394 7.48031e-005,-0.000858268l-3.54331e-005 0z"/>
  <path class="fil0" d="M2.32588 3.28994c-0.0167598,0.0545354 0.000996063,0.0975197 0.0327638,0.123122 0.0141024,0.0113661 0.0307047,0.0199921 0.0483937,0.0254252 0.017378,0.00533858 0.0360236,0.00746063 0.054563,0.00593701 0.0405591,-0.00333071 0.0792953,-0.0288622 0.0960157,-0.0832598 0.000523622,-0.00170079 0.156752,-0.3785 0.410232,-0.631213 0.136157,-0.135744 0.302004,-0.239902 0.49311,-0.246894l-1.1811e-005 -0.000350394c0.0588701,-0.00214173 0.108335,0.0438504 0.110476,0.10272 0.000787402,0.0216417 -0.00493701,0.0420079 -0.0154094,0.0592244l-0.56839 1.10456c-0.0645276,0.240331 -0.0891929,0.871217 -0.108098,1.35489 -0.00737795,0.188819 -0.0139134,0.355921 -0.0211929,0.465319l0.000181102 0.000417323c-0.000106299,0.00157087 -0.000251969,0.00312598 -0.00042126,0.00467717 -0.00242126,0.0547244 0.0241654,0.0912402 0.0600039,0.108583 0.0161102,0.00779528 0.0342756,0.0124134 0.0529961,0.0137323 0.0188504,0.00133071 0.0374252,-0.000645669 0.0542283,-0.00601969 0.0389921,-0.0124764 0.0711575,-0.046315 0.075189,-0.103461l2.75591e-005 3.93701e-006 0 -3.93701e-006 -0.000177165 -1.1811e-005c0.000145669,-0.00205512 0.000350394,-0.00409055 0.000610236,-0.0061063 0.0145394,-0.20435 0.0638268,-0.491976 0.120996,-0.751839 0.0623465,-0.283398 0.136437,-0.540209 0.188028,-0.629744l-0.000338583 -0.000338583c0.0294094,-0.0510394 0.0946378,-0.0685748 0.145677,-0.0391654 0.0239291,0.0137874 0.0404921,0.0354528 0.0483071,0.0598307l0.51852 1.28982c0.0212795,0.0530827 0.0622126,0.0754213 0.103118,0.0753819 0.0176732,-1.5748e-005 0.035937,-0.00380315 0.0533937,-0.0107992 0.0172283,-0.00690157 0.0330591,-0.0168622 0.046122,-0.029311 0.0295472,-0.0281654 0.043689,-0.0725039 0.0224488,-0.125492l-0.499902 -1.24976 -0.000287402 3.14961e-005c-0.0106614,-0.0266535 -0.00980709,-0.0550591 0.000200787,-0.0797126 0.0407008,-0.133469 0.098748,-0.327425 0.158902,-0.529732 0.082622,-0.277874 0.158752,-0.536382 0.198661,-0.673197l-0.000314961 -0.000291339c0.0164961,-0.0565512 0.0757205,-0.0890197 0.132272,-0.0725236 0.0136811,0.00399213 0.0259409,0.0104843 0.0364528,0.0188346 0.185937,0.135772 0.290583,0.383894 0.316925,0.663303 0.0266299,0.282469 -0.0263386,0.601205 -0.156028,0.864681l0.00023622 0.00011811c-0.00421654,0.00856299 -0.00943307,0.0163071 -0.0154291,0.0231654 -0.0306654,0.0432953 -0.0284173,0.0874882 -0.00846457,0.12128 0.00926378,0.015689 0.0217362,0.0295827 0.0362559,0.0407992 0.0143858,0.0111102 0.0309606,0.0196181 0.0485709,0.0246417 0.0375984,0.0107205 0.080685,0.00192126 0.114701,-0.038063 0.152724,-0.288094 0.238031,-0.589295 0.246244,-0.878461 0.0078622,-0.276862 -0.0552559,-0.543059 -0.197988,-0.77589 -0.211748,-0.345409 -0.539913,-0.614008 -0.893878,-0.722685 -0.141996,-0.0435984 -0.28789,-0.061189 -0.431508,-0.0472165 -0.141992,0.013815 -0.282693,0.0588898 -0.416177,0.140717 -0.278012,0.170433 -0.525157,0.500811 -0.690807,1.04032zm-0.100567 0.288957c-0.0948425,-0.0764409 -0.149323,-0.19998 -0.102764,-0.351461 0.182425,-0.594138 0.463433,-0.963394 0.783303,-1.15948 0.161669,-0.0991063 0.333138,-0.153803 0.507012,-0.170717 0.172244,-0.0167559 0.345965,0.00396063 0.514012,0.0555551 0.403004,0.123736 0.774886,0.426689 1.01304,0.815181 0.164886,0.268969 0.237839,0.575126 0.228823,0.892559 -0.00915748,0.322461 -0.10324,0.656146 -0.271555,0.973205 -0.00350787,0.00832677 -0.00813386,0.0163465 -0.0139173,0.0238386l-0.000259843 -0.00019685c-0.0968622,0.125429 -0.229067,0.152201 -0.346047,0.118843 -0.0431772,-0.0123189 -0.0842087,-0.0334803 -0.12024,-0.061311 -0.0358976,-0.0277244 -0.0667047,-0.0620512 -0.0895866,-0.100799 -0.0602953,-0.102102 -0.0690157,-0.232583 0.0200984,-0.355169 0.109559,-0.226858 0.154114,-0.499886 0.131248,-0.742406 -0.0142953,-0.15163 -0.0546378,-0.289429 -0.1215,-0.392571 -0.043185,0.147067 -0.0960118,0.326091 -0.146661,0.496445 -0.0506102,0.170201 -0.10402,0.348421 -0.151642,0.504839l0.486067 1.21517c0.0589685,0.147114 0.0149016,0.274768 -0.0732835,0.358823 -0.0327205,0.0311811 -0.0716969,0.0558504 -0.113626,0.0726496 -0.0416969,0.0167126 -0.0869843,0.0257559 -0.132559,0.0257992 -0.121744,0.000122047 -0.241697,-0.0617165 -0.300622,-0.20872l-0.416008 -1.03482c-0.0255866,0.0932638 -0.0525866,0.203988 -0.0783504,0.321087 -0.0555551,0.252535 -0.103248,0.529055 -0.116882,0.72098 -2.75591e-005,0.00203937 -0.000106299,0.00409055 -0.000251969,0.00615354l-0.000149606 -1.1811e-005c-0.0111614,0.158146 -0.106579,0.253803 -0.222693,0.290965 -0.0435157,0.0139213 -0.0894331,0.0191811 -0.134228,0.0160197 -0.0449213,-0.00316929 -0.0896102,-0.0147795 -0.1305,-0.0345669 -0.108291,-0.0523937 -0.188654,-0.158303 -0.180173,-0.312913 1.9685e-005,-0.00205118 9.05512e-005,-0.00411024 0.000228346,-0.0061811l0.000153543 1.1811e-005 2.75591e-005 -0.000429134 5.51181e-005 3.93701e-006c0.00780315,-0.117594 0.0140709,-0.277756 0.0211378,-0.458661 0.0194764,-0.498319 0.0449213,-1.14905 0.116449,-1.40881 0.00194488,-0.00868504 0.00501575,-0.0172677 0.00927953,-0.0255512l0.0948465 0.0488071 -0.0945827 -0.048752 0.458799 -0.891594c-0.0471417,0.0304173 -0.0919882,0.0682402 -0.133965,0.110087 -0.222799,0.222126 -0.356461,0.541449 -0.356902,0.542882 -0.0465984,0.151606 -0.161169,0.22328 -0.282677,0.23326 -0.0444843,0.00365354 -0.0902047,-0.00173228 -0.133736,-0.0151102 -0.0432126,-0.0132756 -0.0840906,-0.0346063 -0.11922,-0.0629213z"/>
  <path class="fil1" d="M1.12085 5.59307c-0.017685,0.017685 -0.028626,0.0421339 -0.028626,0.0691457 0,0.0270118 0.0109409,0.0514646 0.028626,0.0691496 0.017685,0.017685 0.0421378,0.028626 0.0691496,0.028626 0.0270118,0 0.0514606,-0.0109409 0.0691457,-0.028626 0.0152126,-0.0152126 0.025437,-0.0354291 0.028,-0.0579803 -0.00038189,-0.00366929 -0.00057874,-0.00739764 -0.00057874,-0.0111693 0,-0.00377165 0.00019685,-0.0075 0.00057874,-0.0111732 -0.00256299,-0.0225472 -0.0127835,-0.0427598 -0.028,-0.0579724 -0.017685,-0.017689 -0.0421339,-0.0286299 -0.0691457,-0.0286299 -0.0162913,0 -0.0316496,0.00398031 -0.0451535,0.0110197 -0.00243307,0.00154331 -0.00493307,0.00299213 -0.00749213,0.00433858 -0.00597638,0.00382283 -0.0115118,0.00827953 -0.0165039,0.0132717z"/>
  <path class="fil2" d="M1.80333 5.05333l-0.60889 0 0 0.297799c0.0841339,0.00117717 0.160205,0.0357677 0.215535,0.0911024 0.0317441,0.0317441 0.0566614,0.070311 0.0723583,0.113311l0.623213 0 0 -0.199996c0,-0.083 -0.0340354,-0.158535 -0.0888583,-0.213358 -0.0548228,-0.0548228 -0.130358,-0.0888583 -0.213358,-0.0888583z"/>
  <g id="_442813560">
   <path id="_442813656" class="fil3" d="M3.10054 5.58735l0 0zm-0.113736 -1.83505c-0.0639134,0.242606 -0.0884488,0.870185 -0.107276,1.3518 -0.00737795,0.188819 -0.0139134,0.355921 -0.0211929,0.465319l-0.000240157 0.00509449c-0.00242126,0.0547244 0.0241654,0.0912402 0.0600039,0.108583 0.0693386,0.0335512 0.174854,0.0114016 0.182441,-0.095748l-0.000177165 -1.1811e-005c0.0147047,-0.207441 0.0637953,-0.495173 0.121606,-0.757945 0.0623465,-0.283398 0.136437,-0.540209 0.188028,-0.629744l-0.000338583 -0.000338583c0.0430787,-0.0747598 0.159878,-0.0738701 0.193984,0.0206654l0.51852 1.28982c0.0398031,0.0991496 0.146484,0.0887874 0.202634,0.0352717 0.0295472,-0.0281654 0.043689,-0.0725039 0.0224488,-0.125492l-0.472862 -1.18217 -0.887579 -0.485114z"/>
   <path id="_442813512" class="fil3" d="M3.55601 2.64465l-0.47252 0.91826 0.792331 0.433059c0.0372402,-0.123264 0.0831378,-0.276843 0.130331,-0.435563 0.082622,-0.277874 0.158752,-0.536382 0.198661,-0.673197l-0.000314961 -0.000291339c0.0204724,-0.070189 0.105413,-0.101917 0.168724,-0.053689 0.185937,0.135772 0.290583,0.383894 0.316925,0.663303 0.0266299,0.282469 -0.0263386,0.601205 -0.156028,0.864681l0.00023622 0.00011811c-0.00421654,0.00856299 -0.00943307,0.0163071 -0.0154291,0.0231654 -0.0306654,0.0432953 -0.0284173,0.0874882 -0.00846457,0.12128 0.0185354,0.0313937 0.0496417,0.0554055 0.0848268,0.0654409 0.0375984,0.0107205 0.080685,0.00192126 0.114701,-0.038063 0.152724,-0.288094 0.238031,-0.589295 0.246244,-0.878461 0.0078622,-0.276862 -0.0552559,-0.543059 -0.197988,-0.77589 -0.211748,-0.345409 -0.539913,-0.614008 -0.893878,-0.722685 -0.288634,-0.088622 -0.584327,-0.0679449 -0.847685,0.0935 -0.278012,0.170433 -0.525157,0.500811 -0.690807,1.04032 -0.0167598,0.0545354 0.000996063,0.0975197 0.0327638,0.123122 0.0602835,0.0485866 0.167736,0.0496496 0.198972,-0.0518976 0.000523622,-0.00170079 0.156752,-0.3785 0.410232,-0.631213 0.136157,-0.135744 0.302004,-0.239902 0.49311,-0.246894l-1.1811e-005 -0.000350394c0.0785709,-0.00285827 0.140579,0.0807441 0.0950669,0.161945z"/>
  </g>
  <path class="fil4" d="M5.4222 5.11044c-0.099437,0.0015315 -0.213134,0.0224331 -0.27713,0.0752677l0.549677 0c-0.0609409,-0.0630709 -0.188087,-0.0765669 -0.272547,-0.0752677z"/>
  <path class="fil5" d="M4.15506 1.17731c-0.0683583,0.0683583 -0.110646,0.162815 -0.110646,0.26715 0,0.104335 0.0422835,0.198787 0.110646,0.267146 0.0683583,0.0683622 0.162811,0.110646 0.267146,0.110646 0.104335,0 0.198791,-0.0422874 0.26715,-0.110646 0.0683583,-0.0683583 0.110642,-0.162811 0.110642,-0.267146 0,-0.104335 -0.0422835,-0.198787 -0.110642,-0.26715 -0.0683622,-0.0683583 -0.162815,-0.110642 -0.26715,-0.110642 -0.104335,0 -0.198787,0.0422835 -0.267146,0.110642z"/>
 </g>
 <rect class="fil6" width="6.82666" height="6.82666"/>
</svg>
