<?xml version="1.0" encoding="UTF-8"?>
<!DOCTYPE svg PUBLIC "-//W3C//DTD SVG 1.1//EN" "http://www.w3.org/Graphics/SVG/1.1/DTD/svg11.dtd">
<!-- Creator: CorelDRAW -->
<svg xmlns="http://www.w3.org/2000/svg" xml:space="preserve" width="6.82666in" height="6.82666in" style="shape-rendering:geometricPrecision; text-rendering:geometricPrecision; image-rendering:optimizeQuality; fill-rule:evenodd; clip-rule:evenodd"
viewBox="0 0 6.82666 6.82666"
 xmlns:xlink="http://www.w3.org/1999/xlink">
 <defs>
  <style type="text/css">
   <![CDATA[
    .fil5 {fill:none}
    .fil3 {fill:#9DD5C0}
    .fil0 {fill:#F19A7B}
    .fil4 {fill:#FECA5F}
    .fil2 {fill:#FFD3B3}
    .fil1 {fill:#333333;fill-rule:nonzero}
   ]]>
  </style>
 </defs>
 <g id="Layer_x0020_1">
  <metadata id="CorelCorpID_0Corel-Layer"/>
  <path class="fil0" d="M3.84832 3.27289l4.33071e-005 1.5748e-005 -4.33071e-005 -1.5748e-005zm0.133949 -0.432228l0 0zm-2.78256 0.107906c-0.107236,0.17811 -0.173831,0.354024 -0.212602,0.513248 -0.0521181,0.214024 -0.0536614,0.398984 -0.0359528,0.51972 0.0530276,0.361465 0.0158937,0.628547 -0.028748,0.949669 -0.0247913,0.178343 -0.0518189,0.372748 -0.0678386,0.607512 -0.000295276,0.00233858 -0.000519685,0.00470866 -0.000661417,0.00709843l0.000232283 1.1811e-005c-0.00916535,0.15585 0.072,0.261429 0.180839,0.31252 0.0405591,0.0190433 0.0846339,0.0299724 0.12874,0.032563 0.0440197,0.00258661 0.0890512,-0.0031063 0.131606,-0.0172756 0.112071,-0.037315 0.203795,-0.129941 0.215713,-0.280839l0.137748 -0.777071 0.00601969 0.0469094c0.0245669,0.191512 0.049248,0.383949 0.0940669,0.7425 0.0189488,0.155217 0.11789,0.244685 0.234311,0.2755 0.0434291,0.0114921 0.0888307,0.0143543 0.13274,0.00899606 0.0440157,-0.00537008 0.0874646,-0.0190827 0.12689,-0.0407047 0.10548,-0.0578465 0.179909,-0.168457 0.160961,-0.323728 -0.012185,-0.0975 -0.0236496,-0.188665 -0.0344213,-0.274425 -0.075874,-0.603728 -0.11813,-0.939957 -0.145094,-1.3342 -0.000677165,-0.0101535 -0.00275591,-0.019878 -0.00603543,-0.029 -9.84252e-005,0.00816142 9.44882e-005,0.0162913 0.000594488,0.0243937 0.00345276,0.0586811 -0.0413189,0.109051 -0.1,0.112504 -0.0470354,0.00276772 -0.0887283,-0.0254449 -0.105205,-0.0669685 -0.00407874,-0.0102835 -0.00661417,-0.0213858 -0.00729921,-0.0330315 -0.0118858,-0.193012 0.0742874,-0.355291 0.187937,-0.569303 0.0382795,-0.0720827 0.0799488,-0.150547 0.121236,-0.236882l-0.00940551 -0.00498425c-0.0520039,-0.0273819 -0.0719646,-0.0917441 -0.0445827,-0.143748 0.0273819,-0.0520039 0.0917441,-0.0719646 0.143748,-0.0445827l0.0946575 0.0501535c0.00301969,0.0014252 0.00594094,0.00297638 0.00876378,0.00464567 0.0457756,0.0270551 0.0651339,0.084685 0.0431772,0.134567 -0.0160079,0.036189 -0.0320157,0.0707205 -0.0478937,0.103807l0.485728 0.257366c0.0402047,0.0224134 0.0958465,0.027752 0.161945,0.0203819 0.0519646,-0.00579528 0.116327,-0.0193504 0.187248,-0.0377126 0.125846,-0.0325906 0.218453,-0.0614016 0.2945,-0.087189l-0.0206339 -0.00670079c-0.041937,-0.0136339 -0.0648819,-0.058689 -0.051248,-0.100626 0.0136339,-0.041937 0.058689,-0.0648819 0.100626,-0.051248l0.186205 0.0604803 4.33071e-005 1.5748e-005 0.024874 0.00807874c0.0708701,-0.0452835 0.118988,-0.113831 0.14,-0.18987 0.0216535,-0.078374 0.0145039,-0.164717 -0.0262165,-0.24176 -0.00134646,-0.00298819 -0.00283465,-0.00594094 -0.00448425,-0.00884646l-0.000287402 0.000114173c-0.0320906,-0.0565984 -0.0784409,-0.100075 -0.13198,-0.128472l-0.0359685 0.0739724c-0.0191575,0.0396929 -0.0668701,0.0563425 -0.106563,0.037185 -0.0396929,-0.0191575 -0.0563425,-0.0668701 -0.037185,-0.106563l0.021 -0.043189c-0.0494961,0.000543307 -0.0995118,0.0122559 -0.146236,0.036189l-0.39052 0.109047c-0.0522638,-0.0462205 -0.116075,-0.104697 -0.186067,-0.168839 -0.216937,-0.198811 -0.490169,-0.449217 -0.617795,-0.522992 -0.143465,-0.0829252 -0.304071,-0.106138 -0.447736,-0.0766378 -0.148248,0.0304409 -0.278756,0.116402 -0.35635,0.250646 -0.0979685,0.169488 -0.139949,0.256831 -0.178772,0.337606 -0.0377953,0.0786339 -0.0723386,0.150508 -0.168366,0.309992z"/>
  <g id="_442818912">
   <path id="_442819584" class="fil1" d="M5.75596 3.16967c-0.103165,-0.0303346 -0.203461,-0.0445039 -0.301106,-0.0438346 -0.0947559,0.000653543 -0.187917,0.0154252 -0.279614,0.0430709l0.0643268 1.19509 0.452106 0 0.0642874 -1.19433zm-0.301941 -0.256339c0.143598,-0.000992126 0.290504,0.0240748 0.441043,0.0780315 0.047252,0.0130512 0.0807598,0.0575748 0.0780157,0.108535l-0.000275591 -1.5748e-005 -0.0736811 1.3689 2.3622e-005 0.00188583c0,0.0589094 -0.0477598,0.106669 -0.106669,0.106669l-0.653469 0 -0.000244094 0 0 -3.93701e-006c-0.0563228,4.72441e-005 -0.103449,-0.0440315 -0.106512,-0.100933l0.106512 -0.00573228 -0.106252 0.00541732 -0.0736457 -1.36821c-0.00624803,-0.0479213 0.020878,-0.0956102 0.0680394,-0.113465l0.0377677 0.0997598 -0.0375 -0.0995827c0.137748,-0.0521457 0.279854,-0.0802402 0.426846,-0.081252z"/>
   <path id="_442819512" class="fil1" d="M5.57229 2.84606c0,-0.0589094 -0.0477598,-0.106669 -0.106669,-0.106669 -0.0589094,0 -0.106669,0.0477598 -0.106669,0.106669l0 0.0933858c0,0.0589094 0.0477598,0.106669 0.106669,0.106669 0.0589094,0 0.106669,-0.0477598 0.106669,-0.106669l0 -0.0933858z"/>
   <path id="_442819440" class="fil1" d="M5.02796 4.2072c0.0589094,0 0.106669,-0.0477598 0.106669,-0.106669 0,-0.0589094 -0.0477598,-0.106669 -0.106669,-0.106669l-2.21166 0c-0.0584449,0 -0.105902,0.0470118 -0.10665,0.105276 -0.00373622,0.0750433 0.0463425,0.112004 0.0968268,0.14926l0.00435039 -0.00586614 -0.000200787 0.000645669 0.00748819 -0.0101457 -3.93701e-006 -0.000326772 -0.00728346 0.00982677c0.00400394,-0.0132756 0.00725591,-0.0418504 0.00725591,-0.0176811l2.75591e-005 0.00785433 0.00582677 -0.00785433 0.000216535 0 0.0130236 -0.0176496 -0.000153543 0 -0.0130866 0.0176496 0.000216535 0 -0.00603937 0.0081811 0 0.000133858 -0.00757087 0.0102795 8.26772e-005 -0.000267717 -0.00415354 0.00562992c0.00383071,0.00282677 0.00779134,0.00535433 0.0118465,0.00759843 0.00505512,0.34674 0.0938583,0.660461 0.274362,0.884717 0.172583,0.214421 0.424508,0.34539 0.761713,0.34539 0.382803,0 0.537681,-0.215252 0.707764,-0.451634 0.133524,-0.185571 0.278299,-0.386776 0.578571,-0.465472 0.0568386,-0.0147244 0.0909764,-0.0727441 0.076252,-0.129583 -0.0147244,-0.0568386 -0.0727441,-0.0909764 -0.129583,-0.076252 -0.37472,0.0982087 -0.54276,0.331744 -0.697744,0.547142 -0.1365,0.189709 -0.260799,0.362461 -0.53526,0.362461 -0.266492,0 -0.463272,-0.10063 -0.595878,-0.265382 -0.153795,-0.191071 -0.227094,-0.470122 -0.227094,-0.782941 0,-0.00613386 -0.00034252,-0.0120079 -0.000988189,-0.0176496l1.99753 0z"/>
   <path id="_442819728" class="fil1" d="M3.96106 5.39863c0,-0.0589094 -0.0477598,-0.106669 -0.106669,-0.106669 -0.0589094,0 -0.106669,0.0477598 -0.106669,0.106669l0 0.379508c0,0.0589094 0.0477598,0.106669 0.106669,0.106669l1.61122 0c0.0589094,0 0.106669,-0.0477598 0.106669,-0.106669 0,-0.0127756 -0.00225197,-0.0250276 -0.00637008,-0.0363819 -0.0710197,-0.237748 -0.108665,-0.460142 -0.109728,-0.665685 -0.00105512,-0.203657 0.0336772,-0.392028 0.107346,-0.563732 0.0230079,-0.0540748 -0.00217717,-0.116575 -0.056252,-0.139583 -0.0540748,-0.0230079 -0.116575,0.00217717 -0.139583,0.056252 -0.0850945,0.198339 -0.125224,0.414807 -0.124016,0.647898 0.000972441,0.188433 0.0288819,0.386866 0.0817559,0.594563l-1.36438 0 0 -0.272839z"/>
   <path id="_442820136" class="fil1" d="M2.22426 3.91657c-0.00390945,-0.0586811 -0.0546535,-0.103079 -0.113335,-0.0991693 -0.0586811,0.00390945 -0.103079,0.0546535 -0.0991693,0.113335 0.0277165,0.405276 0.0700039,0.741736 0.145929,1.34587 0.0107717,0.0857598 0.0222362,0.176925 0.0344213,0.274425 0.00666142,0.0546142 -0.0174016,0.0923622 -0.0517953,0.111224 -0.0149685,0.00820866 -0.032189,0.0135039 -0.0502205,0.0157047 -0.0181378,0.0022126 -0.0361969,0.00121654 -0.0527402,-0.00316142 -0.0377913,-0.01 -0.0701378,-0.0408543 -0.0768071,-0.0955 -0.0172087,-0.137677 -0.056,-0.440059 -0.0949016,-0.743335 -0.0245079,-0.191067 -0.0489213,-0.381331 -0.0938425,-0.740701l-0.105835 0.0129173 0.105843 -0.0132323c-0.00730709,-0.0584528 -0.060622,-0.0999173 -0.119075,-0.0926102 -0.0491457,0.00614173 -0.0862756,0.044815 -0.0925118,0.0917126l-0.259807 1.4656 -7.87402e-005 -1.5748e-005c-0.00106299,0.00599606 -0.00159449,0.0119646 -0.00164173,0.0178583 -0.0048622,0.0515984 -0.034311,0.0825787 -0.0700354,0.0944724 -0.0161969,0.0053937 -0.0341654,0.00751181 -0.0524331,0.00644094 -0.018185,-0.00106693 -0.035748,-0.0052874 -0.0512441,-0.012563 -0.0351417,-0.0164961 -0.0612913,-0.0522953 -0.058378,-0.106685l4.33071e-005 3.93701e-006 5.51181e-005 -0.000830709 0.000177165 1.1811e-005c0.000102362,-0.00175591 0.000161417,-0.00350394 0.000181102,-0.00524409 0.0156299,-0.229071 0.0419961,-0.418736 0.066185,-0.592728 0.0469803,-0.337941 0.0860591,-0.619012 0.028748,-1.00967 -0.0146732,-0.100059 -0.0128858,-0.255429 0.0317874,-0.438886 0.0339646,-0.139472 0.0928937,-0.294559 0.188437,-0.453248 0.0977874,-0.162406 0.135866,-0.241638 0.177531,-0.328323 0.0360551,-0.0750197 0.0750472,-0.156142 0.171268,-0.322606 0.0458661,-0.0793504 0.124559,-0.130476 0.214689,-0.148984 0.0947205,-0.0194488 0.201736,-0.00349606 0.298563,0.0524724 0.109591,0.0633504 0.372441,0.30424 0.581134,0.495496 0.0965472,0.0884764 0.182122,0.166906 0.233567,0.210862l0.0691654 -0.0808346 -0.0692913 0.0810945c0.0303386,0.0259252 0.0710197,0.0318504 0.106008,0.019063l0.440846 -0.123098c0.0109016,-0.00211024 0.0212126,-0.00588189 0.0306575,-0.0110433l0.00133858 -0.000748031 0.00073622 -0.000413386c0.00159843,-0.000917323 0.00316929,-0.00187008 0.00470866,-0.0028622 0.0267402,-0.0134055 0.0564449,-0.0156063 0.0834685,-0.0081378 0.0270433,0.0074685 0.0514252,0.0246299 0.0675157,0.0499094 0.00178346,0.00360236 0.00376772,0.00709449 0.00592913,0.0104528 0.0134606,0.0267638 0.0156654,0.0565157 0.00818898,0.0835787 -0.00727953,0.0263504 -0.0237598,0.0501732 -0.0479921,0.0662638 -0.024748,0.00850394 -0.0533031,0.0188031 -0.0834252,0.0296732 -0.0929764,0.0335394 -0.202626,0.0731024 -0.39128,0.121957 -0.060437,0.0156496 -0.114614,0.027126 -0.157248,0.031878 -0.0232008,0.00258661 -0.0246299,0.0122559 -0.0296575,0.00889764l-0.0591654 0.0883346 0.0592598 -0.0886929c-0.00514567,-0.00343701 -0.0104882,-0.0063622 -0.0159567,-0.00879921l-0.677528 -0.358992c-0.0520039,-0.0273819 -0.116366,-0.00742126 -0.143748,0.0445827 -0.0273819,0.0520039 -0.00742126,0.116366 0.0445827,0.143748l0.683598 0.362209c0.0402047,0.0224134 0.0958465,0.027752 0.161945,0.0203819 0.0519646,-0.00579528 0.116327,-0.0193504 0.187248,-0.0377126 0.196327,-0.0508425 0.311752,-0.0924882 0.409618,-0.127791 0.0269606,-0.00972441 0.0524528,-0.0189213 0.0829016,-0.0292598 0.0091811,-0.00229134 0.0182126,-0.00584646 0.0268465,-0.0107441l-0.0526181 -0.0927874 0.0525 0.0925c0.0791614,-0.0448898 0.132646,-0.117646 0.155118,-0.198976 0.0216535,-0.078374 0.0145039,-0.164717 -0.0262165,-0.24176 -0.00134646,-0.00298819 -0.00283465,-0.00594094 -0.00448425,-0.00884646l-0.000267717 0.000153543 -1.9685e-005 -3.54331e-005 -0.0850354 0.0482638 -0.00746457 0.00423228 0.0925 -0.0525c-0.0448819,-0.0791535 -0.117646,-0.132646 -0.198976,-0.155118 -0.0770827,-0.0212992 -0.161878,-0.0147283 -0.237957,0.0242402l-0.39052 0.109047c-0.0522638,-0.0462205 -0.116075,-0.104697 -0.186067,-0.168839 -0.216937,-0.198811 -0.490169,-0.449217 -0.617795,-0.522992 -0.143465,-0.0829252 -0.304071,-0.106138 -0.447736,-0.0766378 -0.148248,0.0304409 -0.278756,0.116402 -0.35635,0.250646 -0.0979685,0.169488 -0.139949,0.256831 -0.178772,0.337606 -0.0377953,0.0786339 -0.0723386,0.150508 -0.168366,0.309992 -0.107236,0.17811 -0.173831,0.354024 -0.212602,0.513248 -0.0521181,0.214024 -0.0536614,0.398984 -0.0359528,0.51972 0.0530276,0.361465 0.0158937,0.628547 -0.028748,0.949669 -0.0247913,0.178343 -0.0518189,0.372748 -0.0678386,0.607512 -0.000295276,0.00233858 -0.000519685,0.00470866 -0.000661417,0.00709843l0.000232283 1.1811e-005c-0.00916535,0.15585 0.072,0.261429 0.180839,0.31252 0.0405591,0.0190433 0.0846339,0.0299724 0.12874,0.032563 0.0440197,0.00258661 0.0890512,-0.0031063 0.131606,-0.0172756 0.112071,-0.037315 0.203795,-0.129941 0.215713,-0.280839l0.137748 -0.777071 0.00601969 0.0469094c0.0245669,0.191512 0.049248,0.383949 0.0940669,0.7425 0.0189488,0.155217 0.11789,0.244685 0.234311,0.2755 0.0434291,0.0114921 0.0888307,0.0143543 0.13274,0.00899606 0.0440157,-0.00537008 0.0874646,-0.0190827 0.12689,-0.0407047 0.10548,-0.0578465 0.179909,-0.168457 0.160961,-0.323728 -0.012185,-0.0975 -0.0236496,-0.188665 -0.0344213,-0.274425 -0.075874,-0.603728 -0.11813,-0.939957 -0.145094,-1.3342z"/>
   <path id="_442819704" class="fil1" d="M2.55184 3.11433c0.0237008,-0.0538465 -0.00073622,-0.116717 -0.0545827,-0.140417 -0.0538465,-0.0237008 -0.116717,0.00073622 -0.140417,0.0545827 -0.054252,0.12265 -0.111449,0.230354 -0.162594,0.326665 -0.11365,0.214012 -0.199823,0.376291 -0.187937,0.569303 0.00345276,0.0586811 0.0538228,0.103453 0.112504,0.1 0.0586811,-0.00345276 0.103453,-0.0538228 0.1,-0.112504 -0.00818898,-0.132988 0.0659646,-0.272638 0.163764,-0.456799 0.0522835,-0.0984567 0.110756,-0.208567 0.169264,-0.340831z"/>
   <path id="_442819656" class="fil1" d="M2.60513 1.14776c-0.0939173,0 -0.178937,0.038063 -0.240465,0.0995906 -0.0615276,0.0615276 -0.0995906,0.146547 -0.0995906,0.240461 0,0.0939134 0.038063,0.178933 0.0995906,0.240461 0.0615276,0.0615276 0.146547,0.0995906 0.240465,0.0995906 0.0939134,0 0.178933,-0.038063 0.240461,-0.0995906 0.0615276,-0.0615276 0.0995906,-0.146547 0.0995906,-0.240461 0,-0.0939134 -0.038063,-0.178933 -0.0995906,-0.240461 -0.0615276,-0.0615276 -0.146547,-0.0995906 -0.240461,-0.0995906zm-0.391299 -0.0512441c0.100142,-0.10015 0.238492,-0.162094 0.391299,-0.162094 0.152803,0 0.291154,0.0619449 0.391295,0.162094 0.10015,0.100142 0.162094,0.238492 0.162094,0.391295 0,0.152803 -0.0619449,0.291154 -0.162094,0.391295 -0.100142,0.10015 -0.238492,0.162094 -0.391295,0.162094 -0.152807,0 -0.291157,-0.0619449 -0.391299,-0.162094 -0.10015,-0.100142 -0.162094,-0.238492 -0.162094,-0.391295 0,-0.152803 0.0619449,-0.291154 0.162094,-0.391295z"/>
   <path id="_442819848" class="fil1" d="M3.67055 2.71674c-0.0191575,0.0396929 -0.00250787,0.0874055 0.037185,0.106563 0.0396929,0.0191575 0.0874055,0.00250787 0.106563,-0.037185l0.0914764 -0.188142 0.000173228 8.26772e-005c0.00739764,-0.0152087 0.00952756,-0.0316102 0.00712205,-0.0471496 -0.00138583,-0.0188701 -0.00407087,-0.111799 0.071315,-0.163736l0.179504 0.364024 -0.201886 0.558614 -0.29989 -0.0974055c-0.041937,-0.0136339 -0.0869921,0.00931102 -0.100626,0.051248 -0.0136339,0.041937 0.00931102,0.0869921 0.051248,0.100626l0.368705 0.11976 0.00212992 0.00080315c0.0415512,0.0150157 0.0874134,-0.00649213 0.102429,-0.0480433l-0.000208661 -7.48031e-005 0.237673 -0.657638c0.00940551,-0.021 0.00973228,-0.045878 -0.00124016,-0.068126l-0.071752 0.0353819 0.071563 -0.035311 -0.225516 -0.457335c-0.0149213,-0.0368583 -0.055311,-0.0576929 -0.0947283,-0.047189l4.72441e-005 0.000181102c-0.231449,0.0618228 -0.249535,0.267752 -0.248551,0.33989l-0.0827362 0.170161z"/>
   <path id="_442820112" class="fil1" d="M3.99239 2.20975c-0.0409016,0.0165669 -0.0606299,0.0631614 -0.044063,0.104063 0.0165669,0.0409016 0.0631614,0.0606299 0.104063,0.044063l0.232339 -0.094122 0.0125157 0.0245591 -0.212665 0.148839c-0.0360669,0.0251969 -0.0448819,0.0748701 -0.019685,0.110937 0.0251969,0.0360669 0.0748701,0.0448819 0.110937,0.019685l0.263787 -0.184618c0.0368661,-0.0210354 0.0510472,-0.0675591 0.0315709,-0.10578l-5.11811e-005 2.75591e-005 -0.0758937 -0.148917c-0.017811,-0.0384646 -0.0628819,-0.0565551 -0.102598,-0.0404685l3.54331e-005 8.26772e-005 -0.300291 0.12165z"/>
   <path id="_442818936" class="fil1" d="M4.36288 2.17187c-0.0265787,0.0125394 -0.0379567,0.0442559 -0.0254173,0.0708346 0.0125394,0.0265787 0.0442559,0.0379567 0.0708346,0.0254173l0.102248 -0.0486024c0.0265787,-0.0125394 0.0379567,-0.0442559 0.0254173,-0.0708346 -0.0125394,-0.0265787 -0.0442559,-0.0379567 -0.0708346,-0.0254173l-0.102248 0.0486024z"/>
  </g>
  <path class="fil2" d="M2.36467 1.24735c-0.0615276,0.0615276 -0.0995906,0.146547 -0.0995906,0.240461 0,0.0939134 0.038063,0.178933 0.0995906,0.240461 0.0615276,0.0615276 0.146547,0.0995906 0.240465,0.0995906 0.0939134,0 0.178933,-0.038063 0.240461,-0.0995906 0.0615276,-0.0615276 0.0995906,-0.146547 0.0995906,-0.240461 0,-0.0939134 -0.038063,-0.178933 -0.0995906,-0.240461 -0.0615276,-0.0615276 -0.146547,-0.0995906 -0.240461,-0.0995906 -0.0939173,0 -0.178937,0.038063 -0.240465,0.0995906z"/>
  <path class="fil3" d="M3.03142 4.22485c0,0.312819 0.0732992,0.59187 0.227094,0.782941 0.132606,0.164752 0.329386,0.265382 0.595878,0.265382 0.274461,0 0.39876,-0.172752 0.53526,-0.362461 0.146457,-0.203547 0.304571,-0.423291 0.63774,-0.529728l-0.00935433 -0.173783 -1.98761 0c0.000645669,0.00564173 0.000988189,0.0115157 0.000988189,0.0176496z"/>
  <path class="fil3" d="M4.56215 5.03488c-0.153339,0.21311 -0.294315,0.409043 -0.601094,0.445559l0 0.191028 1.36438 0c-0.052874,-0.207697 -0.0807835,-0.40613 -0.0817559,-0.594563 -0.000913386,-0.17624 0.0218071,-0.34298 0.0697244,-0.499563l-0.174402 0 -0.000244094 -3.93701e-006c-0.00682677,3.93701e-006 -0.0135197,-0.000637795 -0.0200157,-0.00187402 -0.285441,0.0825787 -0.426366,0.278433 -0.556591,0.459417z"/>
  <path class="fil3" d="M5.17524 3.16891l0.0643268 1.19509 0.452106 0 0.0642874 -1.19433c-0.103165,-0.0303346 -0.203461,-0.0445039 -0.301106,-0.0438346 -0.0947559,0.000653543 -0.187917,0.0154252 -0.279614,0.0430709z"/>
  <path class="fil4" d="M3.98225 2.84063l0 0zm-0.0764724 -0.242646l-0.0555079 0.114169c0.0535433,0.0283976 0.0998898,0.071874 0.132,0.128512l0.000267717 -0.000153543c0.00164961,0.00290551 0.0031378,0.00585827 0.00448425,0.00884646 0.0407205,0.0770433 0.0478701,0.163386 0.0262165,0.24176 -0.0210118,0.0760394 -0.0691299,0.144587 -0.14,0.18987l0.0887677 0.0288307 0.201886 -0.558614 -0.179504 -0.364024c-0.0753858,0.051937 -0.0727008,0.144866 -0.071315,0.163736 0.00240551,0.0155394 0.000275591,0.0319409 -0.00712205,0.0471496l-0.000173228 -8.26772e-005z"/>
  <polygon class="fil4" points="4.28473,2.26376 4.13199,2.32563 4.16071,2.38387 4.29725,2.28831 "/>
 </g>
 <rect class="fil5" width="6.82666" height="6.82666"/>
</svg>
