<?xml version="1.0" encoding="UTF-8"?>
<!DOCTYPE svg PUBLIC "-//W3C//DTD SVG 1.1//EN" "http://www.w3.org/Graphics/SVG/1.1/DTD/svg11.dtd">
<!-- Creator: CorelDRAW -->
<svg xmlns="http://www.w3.org/2000/svg" xml:space="preserve" width="6.82666in" height="6.82666in" style="shape-rendering:geometricPrecision; text-rendering:geometricPrecision; image-rendering:optimizeQuality; fill-rule:evenodd; clip-rule:evenodd"
viewBox="0 0 6.82666 6.82666"
 xmlns:xlink="http://www.w3.org/1999/xlink">
 <defs>
  <style type="text/css">
   <![CDATA[
    .fil4 {fill:none}
    .fil3 {fill:#949494}
    .fil0 {fill:#F45A52}
    .fil2 {fill:#FFD3B3}
    .fil1 {fill:#333333;fill-rule:nonzero}
   ]]>
  </style>
 </defs>
 <g id="Layer_x0020_1">
  <metadata id="CorelCorpID_0Corel-Layer"/>
  <g id="_442812744">
   <path id="_442813200" class="fil0" d="M2.14144 3.06454l0 0.21722c0.204783,0.0395079 0.411433,0.0497441 0.595661,0.0284252 0.159378,-0.0184449 0.303799,-0.0608425 0.419362,-0.128705 0.034937,0.866244 0.0346929,1.65632 0.0344843,2.32886l-3.14961e-005 0.152224 -0.000417323 0c0,0.0879449 0.0402559,0.166811 0.105343,0.223201 0.0608858,0.0527598 0.143823,0.0853976 0.234358,0.0853976 0.0905394,0 0.17348,-0.0326378 0.234366,-0.0853976 0.0650157,-0.0563425 0.105268,-0.135106 0.105343,-0.222949l0.0817598 -1.26185 0.0809724 1.26285c5.51181e-005,0.0881732 0.0404449,0.167244 0.105709,0.223791 0.0611063,0.0529567 0.144354,0.0857165 0.23524,0.0857165 0.0908858,0 0.174134,-0.0327598 0.23524,-0.0857165 0.0653071,-0.0565866 0.105709,-0.135724 0.105709,-0.223969l-0.000417323 0 -7.87402e-006 -0.107028c-8.66142e-005,-0.670311 -0.000185039,-1.45124 0.0306614,-2.30856 0.00575591,0.0160433 0.0112638,0.0325669 0.0165591,0.0495906 0.0445984,0.143339 0.0743346,0.322374 0.106819,0.540614 0.000181102,0.00181496 0.000405512,0.00363386 0.000681102,0.00545669l6.69291e-005 -1.1811e-005c0.0273701,0.181803 0.138941,0.284283 0.266756,0.318413 0.0490551,0.0130945 0.100193,0.0156378 0.149543,0.00832283 0.049185,-0.00729134 0.0972913,-0.024626 0.140465,-0.0512953 0.110524,-0.0682717 0.185866,-0.194268 0.161713,-0.365524l-0.000444882 -0.00364567 -7.08661e-005 1.1811e-005 -0.000122047 -0.000866142 -0.000177165 2.75591e-005c-0.0602559,-0.423614 -0.209075,-0.875098 -0.494965,-1.21226 -0.233335,-0.275173 -0.555559,-0.473508 -0.991638,-0.519626 -0.191819,-0.0202913 -0.375244,0.000755906 -0.543008,0.0625866 -0.16639,0.0613228 -0.316622,0.162248 -0.443657,0.302217 -0.254835,0.28076 -0.574079,0.230386 -0.905941,0.17802 -0.0222402,-0.00350787 -0.0445315,-0.00702756 -0.0659134,-0.0103465l0 0.215091 0 0.299705zm2.93822 0.747457l0 0z"/>
   <path id="_442812576" class="fil0" d="M1.86994 2.80514c-0.014685,0.017689 -0.0251063,0.0378504 -0.0304409,0.0586142 -0.00485827,0.0189016 -0.00530315,0.0384961 -0.000622047,0.0570748 0.00838189,0.0332677 0.0363583,0.0647362 0.0892165,0.0852677l0 -0.244866c-0.0234094,0.0104488 -0.043063,0.0257362 -0.0581535,0.0439094z"/>
  </g>
  <g id="_442812240">
   <path id="_442813056" class="fil1" d="M5.58674 3.74913l0.000122047 0.000866142 7.08661e-005 -1.1811e-005c0.000173228,0.00121654 0.000314961,0.00243307 0.000444882,0.00364567 0.0241535,0.171256 -0.051189,0.297252 -0.161713,0.365524 -0.0431732,0.0266693 -0.0912795,0.0440039 -0.140465,0.0512953 -0.0493504,0.00731496 -0.100488,0.00477165 -0.149543,-0.00832283 -0.127815,-0.0341299 -0.239386,-0.13661 -0.266756,-0.318413l-6.69291e-005 1.1811e-005c-0.000275591,-0.00182283 -0.0005,-0.00364173 -0.000681102,-0.00545669 -0.0324843,-0.21824 -0.0622205,-0.397276 -0.106819,-0.540614 -0.00529528,-0.0170236 -0.0108031,-0.0335472 -0.0165591,-0.0495906 -0.0308465,0.857311 -0.030748,1.63824 -0.0306614,2.30856l7.87402e-006 0.107028 0.000417323 0c0,0.0882441 -0.0404016,0.167382 -0.105709,0.223969 -0.0611063,0.0529567 -0.144354,0.0857165 -0.23524,0.0857165 -0.0908858,0 -0.174134,-0.0327598 -0.23524,-0.0857165 -0.0652638,-0.0565472 -0.105654,-0.135618 -0.105709,-0.223791l-0.0809724 -1.26285 -0.0817598 1.26185c-7.48031e-005,0.0878425 -0.0403268,0.166606 -0.105343,0.222949 -0.0608858,0.0527598 -0.143827,0.0853976 -0.234366,0.0853976 -0.0905354,0 -0.173472,-0.0326378 -0.234358,-0.0853976 -0.0650866,-0.0563898 -0.105343,-0.135256 -0.105343,-0.223201l0.000417323 0 3.14961e-005 -0.152224c0.000208661,-0.672539 0.000452756,-1.46261 -0.0344843,-2.32886 -0.115563,0.0678622 -0.259984,0.11026 -0.419362,0.128705 -0.264299,0.0305827 -0.574748,-0.00377559 -0.859626,-0.0963425l-6.29921e-005 0.000188976c-0.00298425,-0.000968504 -0.00588583,-0.00206299 -0.00872441,-0.00326378 -0.136406,-0.0468661 -0.211043,-0.13737 -0.236472,-0.238272 -0.0133307,-0.0528937 -0.0121693,-0.108217 0.00145669,-0.161248 0.0131535,-0.0511732 0.0381181,-0.100004 0.0729449,-0.141945 0.0768386,-0.0925315 0.201417,-0.152909 0.352236,-0.13189 0.0408071,0.0056811 0.0947992,0.0142047 0.1485,0.0226772 0.331862,0.0523661 0.651106,0.10274 0.905941,-0.17802 0.127035,-0.139969 0.277268,-0.240894 0.443657,-0.302217 0.167764,-0.0618307 0.351189,-0.082878 0.543008,-0.0625866 0.436079,0.0461181 0.758303,0.244453 0.991638,0.519626 0.28589,0.337165 0.434709,0.78865 0.494965,1.21226l0.000177165 -2.75591e-005zm-0.272744 0.189189c0.0434764,-0.0268543 0.0726732,-0.0796417 0.0623228,-0.154622 -0.000220472,-0.00124409 -0.000429134,-0.00249213 -0.000606299,-0.00375197l0.10561 -0.0149803 -0.105417 0.0145827c-0.0552402,-0.389394 -0.18985,-0.802102 -0.446811,-1.10515 -0.199988,-0.23585 -0.476409,-0.405866 -0.850803,-0.445461 -0.159264,-0.0168465 -0.310602,0.000275591 -0.448008,0.0509173 -0.134224,0.0494685 -0.255937,0.131461 -0.359484,0.245547 -0.331575,0.365303 -0.70635,0.306165 -1.09595,0.244689 -0.043748,-0.00690157 -0.0877165,-0.0138425 -0.145161,-0.0218425 -0.0699016,-0.00974016 -0.126138,0.0164213 -0.15974,0.0568898 -0.014685,0.017689 -0.0251063,0.0378504 -0.0304409,0.0586142 -0.00485827,0.0189016 -0.00530315,0.0384961 -0.000622047,0.0570748 0.00880709,0.0349528 0.0392441,0.0679213 0.0974449,0.0883031 0.00234252,0.000590551 0.0046811,0.00125591 0.00701181,0.00201181l-0.0329646 0.101445 0.0329173 -0.101252c0.256394,0.083315 0.534343,0.114406 0.769642,0.0871811 0.200886,-0.023248 0.366126,-0.0877874 0.449303,-0.197122 0.0178622,-0.0290394 0.0493031,-0.0490354 0.0859291,-0.050748 0.0588465,-0.00275197 0.108783,0.0427205 0.111535,0.101567l-0.106551 0.00498425 0.106252 -0.00458268c0.0445472,0.952555 0.0442756,1.82458 0.0440472,2.55772l-3.14961e-005 0.152224 0.000417323 0c0,0.0235669 0.0119134,0.045685 0.0311693,0.0623661 0.0234488,0.0203189 0.0570433,0.0328937 0.0951929,0.0328937 0.0381575,0 0.071748,-0.0125709 0.0952008,-0.0328937 0.0192559,-0.016685 0.0311693,-0.0387953 0.0311693,-0.0623661l3.93701e-006 0c3.93701e-006,-0.00228346 7.08661e-005,-0.00458268 0.000220472,-0.00689764l0.000208661 1.1811e-005 0.0926142 -1.42939c1.1811e-005,-0.00479528 0.00034252,-0.0096378 0.00101969,-0.0145197l0.000244094 3.54331e-005c0.00774803,-0.0556339 0.0308661,-0.0970472 0.0601772,-0.126815 0.0364803,-0.0370433 0.0822402,-0.0544961 0.121488,-0.0587677 0.00455118,-0.000740157 0.00920079,-0.00120079 0.0139331,-0.00134646l0.00332677 0.106614 -0.00291732 -0.106252c0.046122,-0.00143701 0.0977913,0.0207244 0.137102,0.0587717 0.0280866,0.027189 0.0520197,0.0640709 0.0640118,0.106996 0.00301575,0.00879134 0.00492913,0.0181181 0.00555118,0.0278386l-0.106449 0.00682677 0.106252 -0.00666535 0.0917598 1.43102c0.000570866,0.00446063 0.000862205,0.00901181 0.000862205,0.013626 0,0.0238701 0.0120551,0.0462559 0.0315354,0.0631339 0.0236732,0.0205157 0.0575787,0.0332126 0.0960748,0.0332126 0.0384961,0 0.0724016,-0.0126969 0.0960748,-0.0332126 0.0194803,-0.016878 0.0315354,-0.0392638 0.0315354,-0.0631339l0.000417323 0 -7.87402e-006 -0.107028c-0.000102362,-0.760004 -0.000220472,-1.66142 0.0440394,-2.64953 -0.000862205,-0.027 0.00846063,-0.0543425 0.0282323,-0.0757598 0.0399606,-0.0432835 0.107449,-0.0459764 0.150732,-0.00601575l-0.000145669 0.00015748c0.115004,0.106224 0.187563,0.239673 0.240197,0.40885 0.0490866,0.157768 0.0804213,0.345374 0.11426,0.572681 0.000322835,0.00164173 0.00061811,0.00329921 0.000870079,0.00497244l-0.000129921 1.9685e-005 7.87402e-006 2.75591e-005 5.90551e-005 -7.87402e-006c0.012689,0.0843228 0.0588189,0.130362 0.110925,0.144276 0.0205394,0.00548031 0.0423386,0.00648819 0.0637087,0.00332283 0.0215433,-0.00319291 0.0419882,-0.0103976 0.0596299,-0.0212953z"/>
   <path id="_442813008" class="fil1" d="M3.93839 1.06666c-0.099563,0 -0.189697,0.0403504 -0.254925,0.105579 -0.0652283,0.0652283 -0.105579,0.155362 -0.105579,0.254925 0,0.099563 0.0403504,0.189693 0.105579,0.254925 0.0652323,0.0652283 0.155362,0.105579 0.254925,0.105579 0.099563,0 0.189693,-0.0403504 0.254925,-0.105579 0.0652283,-0.0652323 0.105579,-0.155366 0.105579,-0.254925 0,-0.099563 -0.0403504,-0.189693 -0.105579,-0.254925 -0.0652323,-0.0652283 -0.155362,-0.105579 -0.254925,-0.105579zm-0.40576 -0.0452559c0.10385,-0.10385 0.247311,-0.168083 0.40576,-0.168083 0.158449,0 0.301913,0.0642402 0.40576,0.168083 0.103843,0.103846 0.168083,0.247311 0.168083,0.40576 0,0.158445 -0.0642362,0.301909 -0.168083,0.40576 -0.103846,0.103843 -0.247311,0.168083 -0.40576,0.168083 -0.158449,0 -0.301909,-0.0642362 -0.40576,-0.168083 -0.103846,-0.10385 -0.168083,-0.247311 -0.168083,-0.40576 0,-0.158449 0.0642362,-0.301913 0.168083,-0.40576z"/>
   <path id="_442813176" class="fil1" d="M1.39597 5.46562l1.2788 0c0.0556496,0 0.101343,0.042622 0.106228,0.097l0.0516496 0.285098 0.000413386 -7.48031e-005c0.0105,0.0579646 -0.0279803,0.113476 -0.0859449,0.123976 -0.00694488,0.00125591 -0.0138465,0.00180315 -0.0206496,0.00170866l-1.38504 0c-0.0589094,0 -0.106669,-0.0477598 -0.106669,-0.106669 0,-0.00985039 0.00134252,-0.0193937 0.00384252,-0.0284488l0.0515748 -0.284673 0.104583 0.018752 -0.104961 -0.0190157c0.00941732,-0.0519882 0.0550394,-0.0882913 0.106169,-0.0876535zm1.19015 0.213339l-1.1027 0 -0.0146811 0.0810315 1.13206 0 -0.0146811 -0.0810315z"/>
   <path id="_442812624" class="fil1" d="M2.14144 2.2873c0,-0.0589094 -0.0477598,-0.106669 -0.106669,-0.106669 -0.0589094,0 -0.106669,0.0477598 -0.106669,0.106669l0 3.25936c0,0.0589094 0.0477598,0.106669 0.106669,0.106669 0.0589094,0 0.106669,-0.0477598 0.106669,-0.106669l0 -3.25936z"/>
  </g>
  <path class="fil2" d="M3.57789 1.42717c0,0.099563 0.0403504,0.189693 0.105579,0.254925 0.0652323,0.0652283 0.155362,0.105579 0.254925,0.105579 0.099563,0 0.189693,-0.0403504 0.254925,-0.105579 0.0652283,-0.0652323 0.105579,-0.155366 0.105579,-0.254925 0,-0.099563 -0.0403504,-0.189693 -0.105579,-0.254925 -0.0652323,-0.0652283 -0.155362,-0.105579 -0.254925,-0.105579 -0.099563,0 -0.189697,0.0403504 -0.254925,0.105579 -0.0652283,0.0652283 -0.105579,0.155362 -0.105579,0.254925z"/>
  <polygon class="fil3" points="2.58612,5.67896 1.48342,5.67896 1.46874,5.75999 2.6008,5.75999 "/>
 </g>
 <rect class="fil4" width="6.82666" height="6.82666"/>
</svg>
