<svg id="Layer_3" data-name="Layer 3" xmlns="http://www.w3.org/2000/svg" viewBox="0 0 128 128"><title>Artboard 105</title><polygon points="57.072 85.782 64.013 64.912 21.515 39.667 14.328 60.683 35.7 73.232 57.072 85.782" style="fill:#c99e79;fill-rule:evenodd"/><polygon points="63.999 14.694 85.372 27.244 106.744 39.793 85.372 52.343 63.753 65.038 42.627 52.343 21.255 39.793 42.627 27.244 63.999 14.694" style="fill:#643513;fill-rule:evenodd"/><polygon points="63.753 65.038 63.753 113.85 21.255 89.247 21.255 64.75 35.7 73.232 57.072 85.782 63.753 65.038" style="fill:#926e43;fill-rule:evenodd"/><polygon points="21.256 39.793 12.915 39.249 55.66 14.15 64 14.694 42.628 27.244 21.256 39.793" style="fill:#d9ac80;fill-rule:evenodd"/><path d="M106.73,41.237l.014-1.444-.413.242Zm-42.977,23.8V113.85l42.5-24.6.246-24.641-14.69,8.626L70.433,85.782Z" style="fill:#a67e4f;fill-rule:evenodd"/><polygon points="70.433 85.782 63.753 65.038 106.251 39.794 113.178 60.683 91.806 73.232 70.433 85.782" style="fill:#d9ac80;fill-rule:evenodd"/><polygon points="106.744 39.793 115.085 39.249 72.34 14.15 64 14.694 85.372 27.244 106.744 39.793" style="fill:#d9ac80;fill-rule:evenodd"/><polygon points="64 47.982 64 14.694 42.628 27.244 21.256 39.793 42.627 52.343 49.516 56.389 64 47.982" style="fill:#8d5122;fill-rule:evenodd"/><polygon points="64 14.694 64 47.982 78.398 56.339 106.251 39.793 106.331 40.036 106.744 39.793 85.372 27.244 64 14.694" style="fill:#77411b;fill-rule:evenodd"/></svg>