<?xml version="1.0" encoding="UTF-8"?>
<!DOCTYPE svg PUBLIC "-//W3C//DTD SVG 1.1//EN" "http://www.w3.org/Graphics/SVG/1.1/DTD/svg11.dtd">
<!-- Creator: CorelDRAW -->
<svg xmlns="http://www.w3.org/2000/svg" xml:space="preserve" width="6.82666in" height="6.82666in" style="shape-rendering:geometricPrecision; text-rendering:geometricPrecision; image-rendering:optimizeQuality; fill-rule:evenodd; clip-rule:evenodd"
viewBox="0 0 6.82666 6.82666"
 xmlns:xlink="http://www.w3.org/1999/xlink">
 <defs>
  <style type="text/css">
   <![CDATA[
    .fil4 {fill:none}
    .fil1 {fill:#63CBE5}
    .fil2 {fill:#EBE5DF}
    .fil3 {fill:#F19A7B}
    .fil0 {fill:#333333;fill-rule:nonzero}
   ]]>
  </style>
 </defs>
 <g id="Layer_x0020_1">
  <metadata id="CorelCorpID_0Corel-Layer"/>
  <g id="_444907944">
   <path id="_444909528" class="fil0" d="M2.74507 2.99537c-0.0577087,0 -0.104492,0.0467835 -0.104492,0.104492 0,0.0577047 0.0467835,0.104492 0.104492,0.104492l3.01928 0 0 2.29874 -2.37952 0c-0.0577087,0 -0.104492,0.0467835 -0.104492,0.104488 0,0.0577087 0.0467835,0.104492 0.104492,0.104492l2.48401 0c0.0577047,0 0.104492,-0.0467835 0.104492,-0.104492l0 -2.50772c0,-0.0577087 -0.0467874,-0.104492 -0.104492,-0.104492l-3.12377 0z"/>
   <path id="_444909456" class="fil0" d="M3.74464 3.4129c-0.0577087,0 -0.104492,0.0467874 -0.104492,0.104492 0,0.0577047 0.0467835,0.104492 0.104492,0.104492l0.241429 0c0.0577087,0 0.104492,-0.0467874 0.104492,-0.104492 0,-0.0577047 -0.0467835,-0.104492 -0.104492,-0.104492l-0.241429 0z"/>
   <path id="_444909072" class="fil0" d="M4.26774 3.4129c-0.0577087,0 -0.104492,0.0467874 -0.104492,0.104492 0,0.0577047 0.0467835,0.104492 0.104492,0.104492l0.241429 0c0.0577087,0 0.104492,-0.0467874 0.104492,-0.104492 0,-0.0577047 -0.0467835,-0.104492 -0.104492,-0.104492l-0.241429 0z"/>
   <path id="_444909216" class="fil0" d="M4.79084 3.4129c-0.0577087,0 -0.104492,0.0467874 -0.104492,0.104492 0,0.0577047 0.0467835,0.104492 0.104492,0.104492l0.241433 0c0.0577047,0 0.104488,-0.0467874 0.104488,-0.104492 0,-0.0577047 -0.0467835,-0.104492 -0.104488,-0.104492l-0.241433 0z"/>
   <path id="_444909744" class="fil0" d="M5.31394 3.4129c-0.0577047,0 -0.104492,0.0467874 -0.104492,0.104492 0,0.0577047 0.0467874,0.104492 0.104492,0.104492l0.241433 0c0.0577047,0 0.104488,-0.0467874 0.104488,-0.104492 0,-0.0577047 -0.0467835,-0.104492 -0.104488,-0.104492l-0.241433 0z"/>
   <path id="_444909672" class="fil0" d="M3.74464 3.83107c-0.0577087,0 -0.104492,0.0467835 -0.104492,0.104492 0,0.0577047 0.0467835,0.104492 0.104492,0.104492l0.241429 0c0.0577087,0 0.104492,-0.0467874 0.104492,-0.104492 0,-0.0577087 -0.0467835,-0.104492 -0.104492,-0.104492l-0.241429 0z"/>
   <path id="_444909768" class="fil0" d="M4.26774 3.83107c-0.0577087,0 -0.104492,0.0467835 -0.104492,0.104492 0,0.0577047 0.0467835,0.104492 0.104492,0.104492l0.241429 0c0.0577087,0 0.104492,-0.0467874 0.104492,-0.104492 0,-0.0577087 -0.0467835,-0.104492 -0.104492,-0.104492l-0.241429 0z"/>
   <path id="_444909144" class="fil0" d="M4.79084 3.83107c-0.0577087,0 -0.104492,0.0467835 -0.104492,0.104492 0,0.0577047 0.0467835,0.104492 0.104492,0.104492l0.241433 0c0.0577047,0 0.104488,-0.0467874 0.104488,-0.104492 0,-0.0577087 -0.0467835,-0.104492 -0.104488,-0.104492l-0.241433 0z"/>
   <path id="_444909816" class="fil0" d="M5.31394 3.83107c-0.0577047,0 -0.104492,0.0467835 -0.104492,0.104492 0,0.0577047 0.0467874,0.104492 0.104492,0.104492l0.241433 0c0.0577047,0 0.104488,-0.0467874 0.104488,-0.104492 0,-0.0577087 -0.0467835,-0.104492 -0.104488,-0.104492l-0.241433 0z"/>
   <path id="_444908568" class="fil0" d="M3.74464 4.24923c-0.0577087,0 -0.104492,0.0467835 -0.104492,0.104492 0,0.0577047 0.0467835,0.104488 0.104492,0.104488l0.241429 0c0.0577087,0 0.104492,-0.0467835 0.104492,-0.104488 0,-0.0577087 -0.0467835,-0.104492 -0.104492,-0.104492l-0.241429 0z"/>
   <path id="_444908760" class="fil0" d="M4.26774 4.24923c-0.0577087,0 -0.104492,0.0467835 -0.104492,0.104492 0,0.0577047 0.0467835,0.104488 0.104492,0.104488l0.241429 0c0.0577087,0 0.104492,-0.0467835 0.104492,-0.104488 0,-0.0577087 -0.0467835,-0.104492 -0.104492,-0.104492l-0.241429 0z"/>
   <path id="_444908304" class="fil0" d="M4.79084 4.24923c-0.0577087,0 -0.104492,0.0467835 -0.104492,0.104492 0,0.0577047 0.0467835,0.104488 0.104492,0.104488l0.241433 0c0.0577047,0 0.104488,-0.0467835 0.104488,-0.104488 0,-0.0577087 -0.0467835,-0.104492 -0.104488,-0.104492l-0.241433 0z"/>
   <path id="_444909000" class="fil0" d="M5.31394 4.24923c-0.0577047,0 -0.104492,0.0467835 -0.104492,0.104492 0,0.0577047 0.0467874,0.104488 0.104492,0.104488l0.241433 0c0.0577047,0 0.104488,-0.0467835 0.104488,-0.104488 0,-0.0577087 -0.0467835,-0.104492 -0.104488,-0.104492l-0.241433 0z"/>
   <path id="_444908904" class="fil0" d="M3.74464 4.6674c-0.0577087,0 -0.104492,0.0467835 -0.104492,0.104488 0,0.0577087 0.0467835,0.104492 0.104492,0.104492l0.241429 0c0.0577087,0 0.104492,-0.0467835 0.104492,-0.104492 0,-0.0577047 -0.0467835,-0.104488 -0.104492,-0.104488l-0.241429 0z"/>
   <path id="_444908688" class="fil0" d="M4.26774 4.6674c-0.0577087,0 -0.104492,0.0467835 -0.104492,0.104488 0,0.0577087 0.0467835,0.104492 0.104492,0.104492l0.241429 0c0.0577087,0 0.104492,-0.0467835 0.104492,-0.104492 0,-0.0577047 -0.0467835,-0.104488 -0.104492,-0.104488l-0.241429 0z"/>
   <path id="_444908832" class="fil0" d="M4.79084 4.6674c-0.0577087,0 -0.104492,0.0467835 -0.104492,0.104488 0,0.0577087 0.0467835,0.104492 0.104492,0.104492l0.241433 0c0.0577047,0 0.104488,-0.0467835 0.104488,-0.104492 0,-0.0577047 -0.0467835,-0.104488 -0.104488,-0.104488l-0.241433 0z"/>
   <path id="_444908808" class="fil0" d="M5.31394 4.6674c-0.0577047,0 -0.104492,0.0467835 -0.104492,0.104488 0,0.0577087 0.0467874,0.104492 0.104492,0.104492l0.241433 0c0.0577047,0 0.104488,-0.0467835 0.104488,-0.104492 0,-0.0577047 -0.0467835,-0.104488 -0.104488,-0.104488l-0.241433 0z"/>
   <path id="_444908352" class="fil0" d="M3.74464 5.08556c-0.0577087,0 -0.104492,0.0467874 -0.104492,0.104492 0,0.0577087 0.0467835,0.104492 0.104492,0.104492l0.241429 0c0.0577087,0 0.104492,-0.0467835 0.104492,-0.104492 0,-0.0577047 -0.0467835,-0.104492 -0.104492,-0.104492l-0.241429 0z"/>
   <path id="_444908664" class="fil0" d="M4.26774 5.08556c-0.0577087,0 -0.104492,0.0467874 -0.104492,0.104492 0,0.0577087 0.0467835,0.104492 0.104492,0.104492l0.241429 0c0.0577087,0 0.104492,-0.0467835 0.104492,-0.104492 0,-0.0577047 -0.0467835,-0.104492 -0.104492,-0.104492l-0.241429 0z"/>
   <path id="_444907872" class="fil0" d="M4.79084 5.08556c-0.0577087,0 -0.104492,0.0467874 -0.104492,0.104492 0,0.0577087 0.0467835,0.104492 0.104492,0.104492l0.241433 0c0.0577047,0 0.104488,-0.0467835 0.104488,-0.104492 0,-0.0577047 -0.0467835,-0.104492 -0.104488,-0.104492l-0.241433 0z"/>
   <path id="_444907848" class="fil0" d="M5.31394 5.08556c-0.0577047,0 -0.104492,0.0467874 -0.104492,0.104492 0,0.0577087 0.0467874,0.104492 0.104492,0.104492l0.241433 0c0.0577047,0 0.104488,-0.0467835 0.104488,-0.104492 0,-0.0577047 -0.0467835,-0.104492 -0.104488,-0.104492l-0.241433 0z"/>
   <path id="_444907776" class="fil0" d="M1.86334 0.905602l1.15243 0c0.0577087,0 0.104492,0.0467874 0.104492,0.104492l0 0.538681c0,0.0577047 -0.0467835,0.104492 -0.104492,0.104492l-1.58663 0c-0.0577047,0 -0.104488,-0.0467874 -0.104488,-0.104492l0 -3.93701e-006c0,-0.178791 0.045811,-0.342929 0.140996,-0.461024 0.0910315,-0.112933 0.222843,-0.182146 0.397685,-0.182146zm1.04794 0.208984l-1.04794 0c-0.10565,0 -0.183378,0.0394331 -0.235236,0.103768 -0.0464921,0.0576811 -0.0753976,0.136063 -0.0876535,0.225929l1.37083 0 0 -0.329697z"/>
   <path id="_444908112" class="fil0" d="M2.89035 1.5622c0.0072126,-0.0570276 -0.0331732,-0.109114 -0.0902008,-0.116327 -0.0570276,-0.0072126 -0.109114,0.0331732 -0.116327,0.0902008 -0.000350394,0.00277165 -0.131272,0.963732 0.572079,1.31207 0.0516181,0.0254685 0.114118,0.00427165 0.139587,-0.0473504 0.0254724,-0.0516181 0.00427559,-0.114118 -0.0473465,-0.139587 -0.568795,-0.281701 -0.458087,-1.09665 -0.457791,-1.099z"/>
   <path id="_444907536" class="fil0" d="M1.06231 5.71208l2.20279 0 0 -2.00756c-0.110807,-0.0637362 -0.316634,-0.201071 -0.516965,-0.434909 -0.132866,-0.155087 -0.267539,-0.354075 -0.377465,-0.604453l-0.413933 0c-0.109925,0.250378 -0.244602,0.449366 -0.377465,0.604453 -0.200331,0.233843 -0.406157,0.371177 -0.516965,0.434913l0 2.00755zm2.30728 0.208984l-2.41178 0c-0.0577047,0 -0.104488,-0.0467874 -0.104488,-0.104492l0 -2.1706 1.5748e-005 -0.0016378 7.87402e-006 -0.000488189 5.51181e-005 -0.00184646 3.54331e-005 -0.000850394 9.44882e-005 -0.00175197 5.51181e-005 -0.00084252 0.000161417 -0.00201969 3.93701e-005 -0.000405512c0.00227165,-0.0242913 0.0128504,-0.0461654 0.028878,-0.062752l0.000220472 -0.000220472 0.00144094 -0.00146457 0.000555118 -0.000543307 0.00122835 -0.00117323 0.000728346 -0.000681102 0.001 -0.000917323 0.000996063 -0.000889764 0.000893701 -0.000775591 0.00117717 -0.001 0.000622047 -0.000515748 0.00159055 -0.00127559 0.000275591 -0.000224409 0.00162598 -0.00124409 0.000437008 -0.000330709 0.00153937 -0.00112205 0.000551181 -0.000393701 0.00142126 -0.000988189 0.000641732 -0.000437008 0.00159843 -0.00105118 0.000503937 -0.000322835 0.00139764 -0.000870079 0.000952756 -0.00057874 0.00105118 -0.000625984 0.00124409 -0.000716535 0.000811024 -0.000456693 0.00176772 -0.000956693 0.000149606 -7.87402e-005c0.00864961,-0.00457087 0.0180197,-0.0079685 0.0278976,-0.0099685 0.0146299,-0.00716535 0.235618,-0.11961 0.483913,-0.409445 0.130535,-0.15237 0.26326,-0.351957 0.368083,-0.607996 0.0142717,-0.0407244 0.0530394,-0.0699331 0.0986339,-0.0699331l0.550146 0c0.0419685,-0.00080315 0.0820354,0.0239016 0.0988071,0.0650984l-0.0967835 0.0393937 0.0967362 -0.039185c0.10511,0.258268 0.238657,0.459335 0.36998,0.612622 0.248307,0.289846 0.469311,0.402295 0.483913,0.409449 0.0477283,0.00965354 0.0836614,0.0518425 0.0836614,0.102413l0 3.93701e-006 0 2.1706c0,0.0577047 -0.0467835,0.104492 -0.104488,0.104492z"/>
   <path id="_444907632" class="fil0" d="M1.99211 1.54877c0,-0.0577087 -0.0467874,-0.104492 -0.104492,-0.104492 -0.0577087,0 -0.104492,0.0467835 -0.104492,0.104492l0 1.01193c0,0.0577047 0.0467835,0.104488 0.104492,0.104488 0.0577047,0 0.104492,-0.0467835 0.104492,-0.104488l0 -1.01193z"/>
   <path id="_444907608" class="fil0" d="M2.54453 1.54877c0,-0.0577087 -0.0467835,-0.104492 -0.104488,-0.104492 -0.0577087,0 -0.104492,0.0467835 -0.104492,0.104492l0 1.01193c0,0.0577047 0.0467835,0.104488 0.104492,0.104488 0.0577047,0 0.104488,-0.0467835 0.104488,-0.104488l0 -1.01193z"/>
   <path id="_444907968" class="fil0" d="M3.01578 1.15478c-0.0577047,0 -0.104492,0.0467835 -0.104492,0.104492 0,0.0577047 0.0467874,0.104488 0.104492,0.104488l0.207122 0c0.0577087,0 0.104492,-0.0467835 0.104492,-0.104488 0,-0.0577087 -0.0467835,-0.104492 -0.104492,-0.104492l-0.207122 0z"/>
  </g>
  <path class="fil1" d="M2.74814 3.26961c-0.0271693,-0.0317126 -0.0544134,-0.0652598 -0.0815039,-0.100705 -0.00336614,-0.0038189 -0.00645669,-0.00788976 -0.00924016,-0.0121732 -0.102181,-0.135512 -0.201831,-0.29822 -0.28672,-0.491575l-0.413933 0c-0.109925,0.250378 -0.244602,0.449366 -0.377465,0.604453 -0.200331,0.233843 -0.406157,0.371177 -0.516965,0.434913l0 2.00755 2.20279 0 0 -2.00756c-0.110807,-0.0637362 -0.316634,-0.201071 -0.516965,-0.434909z"/>
  <polygon class="fil2" points="1.99211,2.45618 2.33555,2.45618 2.33555,1.65327 1.99211,1.65327 "/>
  <path class="fil2" d="M1.88854 1.44428l0.550583 0c0.000307087,-3.93701e-006 0.000610236,-3.93701e-006 0.000917323,-3.93701e-006 0.000307087,0 0.000610236,0 0.000917323,3.93701e-006l0.470327 0 3.93701e-006 -0.185008 -3.93701e-006 -0.144689 -1.04794 0c-0.10565,0 -0.183378,0.0394331 -0.235236,0.103768 -0.0464921,0.0576811 -0.0753976,0.136063 -0.0876535,0.225929l0.346252 0c0.000307087,-3.93701e-006 0.000610236,-3.93701e-006 0.000917323,-3.93701e-006 0.000307087,0 0.000610236,0 0.000917323,3.93701e-006z"/>
  <path class="fil3" d="M4.09056 3.93556c0,0.0577047 -0.0467835,0.104492 -0.104492,0.104492l-0.241429 0c-0.0577087,0 -0.104492,-0.0467874 -0.104492,-0.104492 0,-0.0577087 0.0467835,-0.104492 0.104492,-0.104492l0.241429 0c0.0577087,0 0.104492,0.0467835 0.104492,0.104492zm-0.345921 -0.313673c-0.0577087,0 -0.104492,-0.0467874 -0.104492,-0.104492 0,-0.0577047 0.0467835,-0.104492 0.104492,-0.104492l0.241429 0c0.0577087,0 0.104492,0.0467874 0.104492,0.104492 0,0.0577047 -0.0467835,0.104492 -0.104492,0.104492l-0.241429 0zm2.0197 -0.417528l-2.79509 0c0.221713,0.237988 0.407807,0.332654 0.421165,0.339197 0.0477283,0.00965354 0.0836614,0.0518425 0.0836614,0.102417l0 1.85712 2.29026 0 0 -2.29874zm-1.60109 1.14937c0,-0.0577087 0.0467835,-0.104492 0.104492,-0.104492l0.241429 0c0.0577087,0 0.104492,0.0467835 0.104492,0.104492 0,0.0577047 -0.0467835,0.104488 -0.104492,0.104488l-0.241429 0c-0.0577087,0 -0.104492,-0.0467835 -0.104492,-0.104488zm0.523098 0.418161c0,-0.0577047 0.0467835,-0.104488 0.104492,-0.104488l0.241433 0c0.0577047,0 0.104488,0.0467835 0.104488,0.104488 0,0.0577087 -0.0467835,0.104492 -0.104488,0.104492l-0.241433 0c-0.0577087,0 -0.104492,-0.0467835 -0.104492,-0.104492zm0.523102 0.418165c0,-0.0577047 0.0467874,-0.104492 0.104492,-0.104492l0.241433 0c0.0577047,0 0.104488,0.0467874 0.104488,0.104492 0,0.0577087 -0.0467835,0.104492 -0.104488,0.104492l-0.241433 0c-0.0577047,0 -0.104492,-0.0467835 -0.104492,-0.104492zm-0.941709 -0.522654l0.241429 0c0.0577087,0 0.104492,0.0467835 0.104492,0.104488 0,0.0577087 -0.0467835,0.104492 -0.104492,0.104492l-0.241429 0c-0.0577087,0 -0.104492,-0.0467835 -0.104492,-0.104492 0,-0.0577047 0.0467835,-0.104488 0.104492,-0.104488zm0.418606 0.522654c0,-0.0577047 0.0467835,-0.104492 0.104492,-0.104492l0.241433 0c0.0577047,0 0.104488,0.0467874 0.104488,0.104492 0,0.0577087 -0.0467835,0.104492 -0.104488,0.104492l-0.241433 0c-0.0577087,0 -0.104492,-0.0467835 -0.104492,-0.104492zm-0.523098 0c0,-0.0577047 0.0467835,-0.104492 0.104492,-0.104492l0.241429 0c0.0577087,0 0.104492,0.0467874 0.104492,0.104492 0,0.0577087 -0.0467835,0.104492 -0.104492,0.104492l-0.241429 0c-0.0577087,0 -0.104492,-0.0467835 -0.104492,-0.104492zm1.0462 -0.418165c0,-0.0577047 0.0467874,-0.104488 0.104492,-0.104488l0.241433 0c0.0577047,0 0.104488,0.0467835 0.104488,0.104488 0,0.0577087 -0.0467835,0.104492 -0.104488,0.104492l-0.241433 0c-0.0577047,0 -0.104492,-0.0467835 -0.104492,-0.104492zm0 -0.418161c0,-0.0577087 0.0467874,-0.104492 0.104492,-0.104492l0.241433 0c0.0577047,0 0.104488,0.0467835 0.104488,0.104492 0,0.0577047 -0.0467835,0.104488 -0.104488,0.104488l-0.241433 0c-0.0577047,0 -0.104492,-0.0467835 -0.104492,-0.104488zm-0.523102 0c0,-0.0577087 0.0467835,-0.104492 0.104492,-0.104492l0.241433 0c0.0577047,0 0.104488,0.0467835 0.104488,0.104492 0,0.0577047 -0.0467835,0.104488 -0.104488,0.104488l-0.241433 0c-0.0577087,0 -0.104492,-0.0467835 -0.104492,-0.104488zm-0.70028 -0.104492c0.0577087,0 0.104492,0.0467835 0.104492,0.104492 0,0.0577047 -0.0467835,0.104488 -0.104492,0.104488l-0.241429 0c-0.0577087,0 -0.104492,-0.0467835 -0.104492,-0.104488 0,-0.0577087 0.0467835,-0.104492 0.104492,-0.104492l0.241429 0zm-0.241429 0.418165l0.241429 0c0.0577087,0 0.104492,0.0467835 0.104492,0.104488 0,0.0577087 -0.0467835,0.104492 -0.104492,0.104492l-0.241429 0c-0.0577087,0 -0.104492,-0.0467835 -0.104492,-0.104492 0,-0.0577047 0.0467835,-0.104488 0.104492,-0.104488zm-0.104492 0.522654c0,-0.0577047 0.0467835,-0.104492 0.104492,-0.104492l0.241429 0c0.0577087,0 0.104492,0.0467874 0.104492,0.104492 0,0.0577087 -0.0467835,0.104492 -0.104492,0.104492l-0.241429 0c-0.0577087,0 -0.104492,-0.0467835 -0.104492,-0.104492zm1.15069 -1.15c-0.0577087,0 -0.104492,-0.0467874 -0.104492,-0.104492 0,-0.0577087 0.0467835,-0.104492 0.104492,-0.104492l0.241433 0c0.0577047,0 0.104488,0.0467835 0.104488,0.104492 0,0.0577047 -0.0467835,0.104492 -0.104488,0.104492l-0.241433 0zm0.41861 -0.104492c0,-0.0577087 0.0467874,-0.104492 0.104492,-0.104492l0.241433 0c0.0577047,0 0.104488,0.0467835 0.104488,0.104492 0,0.0577047 -0.0467835,0.104492 -0.104488,0.104492l-0.241433 0c-0.0577047,0 -0.104492,-0.0467874 -0.104492,-0.104492zm-0.941709 0.104492c-0.0577087,0 -0.104492,-0.0467874 -0.104492,-0.104492 0,-0.0577087 0.0467835,-0.104492 0.104492,-0.104492l0.241429 0c0.0577087,0 0.104492,0.0467835 0.104492,0.104492 0,0.0577047 -0.0467835,0.104492 -0.104492,0.104492l-0.241429 0zm0.764531 -0.418165l-0.241433 0c-0.0577087,0 -0.104492,-0.0467874 -0.104492,-0.104492 0,-0.0577047 0.0467835,-0.104492 0.104492,-0.104492l0.241433 0c0.0577047,0 0.104488,0.0467874 0.104488,0.104492 0,0.0577047 -0.0467835,0.104492 -0.104488,0.104492zm0.177177 -0.104492c0,-0.0577047 0.0467874,-0.104492 0.104492,-0.104492l0.241433 0c0.0577047,0 0.104488,0.0467874 0.104488,0.104492 0,0.0577047 -0.0467835,0.104492 -0.104488,0.104492l-0.241433 0c-0.0577047,0 -0.104492,-0.0467874 -0.104492,-0.104492zm-0.941709 0.104492c-0.0577087,0 -0.104492,-0.0467874 -0.104492,-0.104492 0,-0.0577047 0.0467835,-0.104492 0.104492,-0.104492l0.241429 0c0.0577087,0 0.104492,0.0467874 0.104492,0.104492 0,0.0577047 -0.0467835,0.104492 -0.104492,0.104492l-0.241429 0z"/>
 </g>
 <rect class="fil4" width="6.82666" height="6.82666"/>
</svg>
