<?xml version="1.0" encoding="iso-8859-1"?>
<!-- Generator: Adobe Illustrator 19.0.0, SVG Export Plug-In . SVG Version: 6.00 Build 0)  -->
<svg version="1.1" id="Layer_1" xmlns="http://www.w3.org/2000/svg" xmlns:xlink="http://www.w3.org/1999/xlink" x="0px" y="0px"
	 viewBox="0 0 512 512" style="enable-background:new 0 0 512 512;" xml:space="preserve">
<path style="fill:#EDEDED;" d="M334.769,447.297h33.758V25.319c0-9.322-7.557-16.879-16.879-16.879l0,0
	c-9.322,0-16.879,7.557-16.879,16.879V447.297z"/>
<path style="fill:#D8D8DA;" d="M351.648,8.44c-3.078,0-5.955,0.837-8.44,2.276c5.04,2.92,8.44,8.359,8.44,14.603v421.978h16.879
	V25.319C368.527,15.997,360.97,8.44,351.648,8.44z"/>
<path style="fill:#B29A7E;" d="M182.857,188.484h-33.758v298.198c0,9.322,7.557,16.879,16.879,16.879l0,0
	c9.322,0,16.879-7.557,16.879-16.879V188.484z"/>
<path style="fill:#A58868;" d="M165.978,188.484v298.198c0,6.244-3.399,11.683-8.44,14.603c2.485,1.439,5.362,2.276,8.44,2.276
	c9.322,0,16.879-7.557,16.879-16.879V188.484H165.978z"/>
<path style="fill:#F8E99B;" d="M244.747,120.967c0,43.503-35.266,78.769-78.769,78.769s-78.769-35.266-78.769-78.769V8.44h157.538
	V120.967z"/>
<path style="fill:#F6E27D;" d="M199.736,8.44v112.527c0,35.68-23.73,65.803-56.264,75.489c7.133,2.123,14.683,3.28,22.505,3.28
	c43.503,0,78.769-35.266,78.769-78.769V8.44H199.736z"/>
<polygon style="fill:#98C8ED;" points="233.495,503.56 233.495,481.055 424.791,402.286 424.791,503.56 "/>
<polygon style="fill:#7AB9E8;" points="379.78,420.82 379.78,503.56 424.791,503.56 424.791,402.286 "/>
<g>
	<path style="fill:#EFC27B;" d="M132.22,140.659c-4.662,0-8.44-3.778-8.44-8.44V87.209c0-4.662,3.778-8.44,8.44-8.44
		c4.662,0,8.44,3.778,8.44,8.44v45.011C140.659,136.882,136.882,140.659,132.22,140.659z"/>
	<path style="fill:#EFC27B;" d="M199.736,163.165c-4.662,0-8.44-3.778-8.44-8.44V87.209c0-4.662,3.778-8.44,8.44-8.44
		s8.44,3.778,8.44,8.44v67.516C208.176,159.387,204.398,163.165,199.736,163.165z"/>
	<path style="fill:#EFC27B;" d="M165.978,118.154c-4.662,0-8.44-3.778-8.44-8.44V87.209c0-4.662,3.778-8.44,8.44-8.44
		s8.44,3.778,8.44,8.44v22.506C174.418,114.376,170.64,118.154,165.978,118.154z"/>
	<path style="fill:#EFC27B;" d="M132.22,61.89c-4.662,0-8.44-3.778-8.44-8.44V42.198c0-4.662,3.778-8.44,8.44-8.44
		c4.662,0,8.44,3.778,8.44,8.44v11.253C140.659,58.113,136.882,61.89,132.22,61.89z"/>
	<path style="fill:#EFC27B;" d="M165.978,61.89c-4.662,0-8.44-3.778-8.44-8.44V30.945c0-4.662,3.778-8.44,8.44-8.44
		s8.44,3.778,8.44,8.44v22.505C174.418,58.113,170.64,61.89,165.978,61.89z"/>
	<path style="fill:#EFC27B;" d="M199.736,61.89c-4.662,0-8.44-3.778-8.44-8.44V42.198c0-4.662,3.778-8.44,8.44-8.44
		s8.44,3.778,8.44,8.44v11.253C208.176,58.113,204.398,61.89,199.736,61.89z"/>
</g>
<rect x="87.209" y="53.451" style="fill:#D1E5F5;" width="157.538" height="33.758"/>
<rect x="199.736" y="53.451" style="fill:#B4D8F1;" width="45.011" height="33.758"/>
<g>
	<path style="fill:#2E2D31;" d="M253.187,120.967c0-4.662-3.778-8.44-8.44-8.44s-8.44,3.778-8.44,8.44
		c0,38.78-31.549,70.33-70.33,70.33s-70.33-31.549-70.33-70.33V95.648h149.099c4.662,0,8.44-3.778,8.44-8.44v-0.003V8.44
		c0-4.662-3.778-8.44-8.44-8.44H87.209c-4.662,0-8.44,3.778-8.44,8.44v112.527c0,39.283,26.114,72.572,61.89,83.448v282.266
		c0,13.96,11.359,25.319,25.319,25.319c13.96,0,25.319-11.358,25.319-25.319V204.415
		C227.073,193.539,253.187,160.25,253.187,120.967z M95.648,61.89h140.659v16.879H95.648V61.89z M236.308,16.879v28.132H95.648
		V16.879H236.308z M174.418,208.176v278.505c0,4.654-3.785,8.44-8.44,8.44c-4.654,0-8.44-3.785-8.44-8.44V208.176H174.418z"/>
	<path style="fill:#2E2D31;" d="M429.487,395.274c-2.338-1.568-5.305-1.865-7.908-0.792l-78.37,32.27V25.319
		c0-4.654,3.785-8.44,8.44-8.44c4.654,0,8.44,3.785,8.44,8.44v354.458c0,4.661,3.778,8.44,8.44,8.44s8.44-3.779,8.44-8.44V25.319
		C376.967,11.359,365.609,0,351.648,0c-13.96,0-25.319,11.359-25.319,25.319v408.382l-96.048,39.55
		c-3.163,1.302-5.227,4.384-5.227,7.804v22.505c0,4.662,3.778,8.44,8.44,8.44h191.297c4.662,0,8.44-3.778,8.44-8.44V402.286
		C433.231,399.47,431.826,396.839,429.487,395.274z M416.352,495.121H241.934v-8.415l174.418-71.818V495.121z"/>
</g>
<g>
</g>
<g>
</g>
<g>
</g>
<g>
</g>
<g>
</g>
<g>
</g>
<g>
</g>
<g>
</g>
<g>
</g>
<g>
</g>
<g>
</g>
<g>
</g>
<g>
</g>
<g>
</g>
<g>
</g>
</svg>
