<?xml version="1.0" encoding="UTF-8"?>
<!DOCTYPE svg PUBLIC "-//W3C//DTD SVG 1.1//EN" "http://www.w3.org/Graphics/SVG/1.1/DTD/svg11.dtd">
<!-- Creator: CorelDRAW -->
<svg xmlns="http://www.w3.org/2000/svg" xml:space="preserve" width="6.82666in" height="6.82666in" style="shape-rendering:geometricPrecision; text-rendering:geometricPrecision; image-rendering:optimizeQuality; fill-rule:evenodd; clip-rule:evenodd"
viewBox="0 0 6.82666 6.82666"
 xmlns:xlink="http://www.w3.org/1999/xlink">
 <defs>
  <style type="text/css">
   <![CDATA[
    .fil4 {fill:none}
    .fil2 {fill:#949494}
    .fil0 {fill:#9DD5C0}
    .fil3 {fill:#FECA5F}
    .fil1 {fill:#333333;fill-rule:nonzero}
   ]]>
  </style>
 </defs>
 <g id="Layer_x0020_1">
  <metadata id="CorelCorpID_0Corel-Layer"/>
  <path class="fil0" d="M3.01216 3.67712l3.93701e-006 -0.000925197 -3.93701e-006 0.000637795 2.3622e-005 -0.00155118 -1.9685e-005 0.000913386 0 -0.391409c0,-0.267398 -0.109469,-0.510567 -0.285827,-0.686921 -0.176354,-0.176358 -0.419524,-0.285827 -0.686921,-0.285827l-0.153972 0 0 0.918827c0,0.228976 0.0937559,0.43722 0.244795,0.58826 0.151039,0.151039 0.359287,0.244795 0.58826,0.244795l0.293661 0 0 -0.386799zm0 1.04142l3.93701e-006 0.000925197 1.9685e-005 0.000913386 -2.3622e-005 -0.00183858z"/>
  <path class="fil1" d="M1.38687 4.42093c0.147319,0 0.280705,0.0597244 0.377264,0.15628 0.0965551,0.0965591 0.15628,0.229945 0.15628,0.377264 0,0.147319 -0.0597244,0.280709 -0.15628,0.377264 -0.0965551,0.0965551 -0.229945,0.15628 -0.377264,0.15628 -0.147323,0 -0.280709,-0.0597244 -0.377264,-0.15628 -0.0965551,-0.0965551 -0.15628,-0.229941 -0.15628,-0.377264 0,-0.147319 0.0597244,-0.280709 0.15628,-0.377264 0.0965551,-0.0965551 0.229945,-0.15628 0.377264,-0.15628zm0.226429 0.307114c-0.057937,-0.0579331 -0.137996,-0.0937756 -0.226429,-0.0937756 -0.0884331,0 -0.168492,0.0358386 -0.226429,0.0937756 -0.057937,0.057937 -0.0937756,0.137996 -0.0937756,0.226429 0,0.088437 0.0358386,0.168492 0.0937756,0.226429 0.057937,0.057937 0.137992,0.0937756 0.226429,0.0937756 0.0884331,0 0.168492,-0.0358386 0.226429,-0.0937756 0.057937,-0.057937 0.0937756,-0.137996 0.0937756,-0.226429 0,-0.0884331 -0.0358425,-0.168492 -0.0937756,-0.226429z"/>
  <path class="fil1" d="M1.91807 4.93218l0.00897638 0 1.08511 0 0 -1.64739c0,-0.267398 -0.109469,-0.510567 -0.285827,-0.686921 -0.176354,-0.176358 -0.419524,-0.285827 -0.686921,-0.285827l-0.567972 0 0 2.12457c0,0.0523583 0.00497638,0.166272 -0.0383425,0.187134 -0.0139803,0.00673622 -0.0296693,0.0105157 -0.0462323,0.0105157 -0.0131457,0 -0.00172441,-0.000444882 -0.00858268,-0.000271654l-0.000169291 7.87402e-006c-0.00437008,0.000547244 -0.00882677,0.000830709 -0.0133425,0.000830709 -0.0589094,0 -0.106669,-0.0477598 -0.106669,-0.106669l0 -2.32279c0,-0.0589094 0.0477598,-0.106669 0.106669,-0.106669l0.674642 0c0.326283,0 0.622835,0.133406 0.837756,0.348331 0.214925,0.214921 0.348331,0.511472 0.348331,0.837756l0 1.75406c0,0.0589094 -0.0477598,0.106669 -0.106669,0.106669l-1.31194 0c-0.00739764,9.84252e-005 -0.0149213,-0.000570866 -0.0224685,-0.00208268 -0.0577598,-0.0115748 -0.0952008,-0.0677874 -0.083626,-0.125547l2.75591e-005 3.93701e-006c0.00245276,-0.0122598 0.0041378,-0.0227756 0.00498819,-0.0314016 0.000830709,-0.00838976 0.00125984,-0.0190472 0.00125984,-0.0320197 0,-0.0589094 0.0477598,-0.106669 0.106669,-0.106669 0.0473622,0 0.0897795,0.0302087 0.101433,0.0735906l0.00289764 0.0107874 0 0z"/>
  <path class="fil1" d="M3.11883 3.57045l7.87402e-006 0c0.14228,0 0.271559,0.0581339 0.365209,0.151783 0.0936496,0.0936496 0.151783,0.222925 0.151783,0.365205l0 0.220776c0,0.14228 -0.0581339,0.271559 -0.151783,0.365209 -0.0936575,0.0936496 -0.222929,0.151783 -0.365209,0.151783l-7.87402e-006 0c-0.0589094,0 -0.106669,-0.0477598 -0.106669,-0.106669l0 -1.04142c0,-0.0589094 0.0477598,-0.106669 0.106669,-0.106669zm0.214382 0.302618c-0.0303346,-0.0303346 -0.0669803,-0.0543268 -0.107713,-0.0697717l0 0.789059c0.0407323,-0.0154449 0.077378,-0.039437 0.107713,-0.0697677 0.0550827,-0.0550827 0.0892795,-0.13098 0.0892795,-0.214374l0 -0.220776c0,-0.0833937 -0.0341969,-0.159287 -0.0892795,-0.21437z"/>
  <path class="fil1" d="M3.52916 4.09116c-0.0589094,0 -0.106669,0.0477598 -0.106669,0.106669 0,0.0589094 0.0477598,0.106669 0.106669,0.106669 0.700169,0 0.855689,-0.366299 0.855689,-0.92913 0,-0.183445 -0.0188976,-0.39522 -0.0392598,-0.623445 -0.0228898,-0.256535 -0.0477087,-0.534705 -0.0477087,-0.827909 0,-0.102197 0.0418898,-0.195185 0.109366,-0.262661 0.0674764,-0.0674764 0.160465,-0.109366 0.262665,-0.109366l3.93701e-006 0c0.102197,0 0.195185,0.0418898 0.262661,0.109366 0.0674764,0.0674764 0.109366,0.160465 0.109366,0.262661l0 2.88959c0,0.0589094 0.0477598,0.106669 0.106669,0.106669 0.0589094,0 0.106669,-0.0477598 0.106669,-0.106669l0 -2.88959c0,-0.161083 -0.0658268,-0.307453 -0.17187,-0.413496 -0.106043,-0.106043 -0.252413,-0.17187 -0.413496,-0.17187l-3.93701e-006 0c-0.161087,0 -0.307457,0.0658268 -0.4135,0.17187 -0.106043,0.106039 -0.17187,0.252413 -0.17187,0.413496 0,0.292831 0.025689,0.580728 0.049378,0.84624 0.0195,0.218524 0.0375906,0.421299 0.0375906,0.605114 0,0.433598 -0.116744,0.715791 -0.64235,0.715791z"/>
  <path class="fil1" d="M4.43056 4.70694l1.4361 0c0.0589094,0 0.106669,0.0477598 0.106669,0.106669l0 0.38363c0,0.0589094 -0.0477598,0.106669 -0.106669,0.106669l-1.4361 0c-0.0589094,0 -0.106669,-0.0477598 -0.106669,-0.106669l0 -0.38363c0,-0.0589094 0.0477598,-0.106669 0.106669,-0.106669zm1.32943 0.213339l-1.22276 0 0 0.170291 1.22276 0 0 -0.170291z"/>
  <path class="fil1" d="M2.13333 1.70666c0,-0.0589094 -0.0477598,-0.106669 -0.106669,-0.106669 -0.0589094,0 -0.106669,0.0477598 -0.106669,0.106669l0 0.407594c0,0.0589094 0.0477598,0.106669 0.106669,0.106669 0.0589094,0 0.106669,-0.0477598 0.106669,-0.106669l0 -0.407594z"/>
  <path class="fil1" d="M1.88544 2.22621c0,-0.0589094 -0.0477598,-0.106669 -0.106669,-0.106669 -0.0589094,0 -0.106669,0.0477598 -0.106669,0.106669l0 1.00466c0,0.287862 0.117693,0.549488 0.307299,0.739094 0.189606,0.189606 0.451236,0.307299 0.739094,0.307299l0.36524 0c0.0589094,0 0.106669,-0.0477598 0.106669,-0.106669 0,-0.0589094 -0.0477598,-0.106669 -0.106669,-0.106669l-0.36524 0c-0.228972,0 -0.43722,-0.0937559 -0.58826,-0.244795 -0.151039,-0.151039 -0.244795,-0.359283 -0.244795,-0.58826l0 -1.00466z"/>
  <path class="fil2" d="M1.70083 5.01789l0 0zm-0.0875276 -0.28985c-0.057937,-0.0579331 -0.137996,-0.0937756 -0.226429,-0.0937756 -0.0131457,0 -0.00172441,-0.000444882 -0.00858268,-0.000271654l-0.000169291 7.87402e-006c-0.00230315,0.000287402 -0.00462598,0.000503937 -0.00697244,0.000641732 -2.3622e-005,0 -4.72441e-005,3.93701e-006 -7.08661e-005,3.93701e-006 -0.000535433,3.14961e-005 -0.00107087,5.90551e-005 -0.00161024,8.26772e-005 -0.0815039,0.00436614 -0.154913,0.0392008 -0.209024,0.093311 -0.057937,0.057937 -0.0937756,0.137996 -0.0937756,0.226429 0,0.088437 0.0358386,0.168492 0.0937756,0.226429 0.057937,0.057937 0.137992,0.0937756 0.226429,0.0937756 0.0884331,0 0.168492,-0.0358386 0.226429,-0.0937756 0.0437126,-0.0437126 0.0748465,-0.10002 0.0875276,-0.163008 0.00245276,-0.0122598 0.0041378,-0.0227756 0.00498819,-0.0314016 0.000830709,-0.00838976 0.00125984,-0.0190472 0.00125984,-0.0320197 0,-0.0884331 -0.0358425,-0.168492 -0.0937756,-0.226429z"/>
  <path class="fil0" d="M1.76413 4.5772c0.0916614,0.0916654 0.15013,0.216516 0.155823,0.354972l1.09221 0 0 -0.212713c-3.93701e-006,-0.000307087 -3.93701e-006,-0.00061811 -3.93701e-006,-0.000925197l0 -0.44128 -0.293661 0c-0.287858,0 -0.549488,-0.117693 -0.739094,-0.307299 -0.189606,-0.189606 -0.307299,-0.451232 -0.307299,-0.739094l0 -0.918827 -0.200661 0 0 2.11556c0.113457,0.0180709 0.214992,0.0719173 0.292689,0.14961z"/>
  <polygon class="fil3" points="5.14861,4.92028 4.53723,4.92028 4.53723,5.09057 5.75999,5.09057 5.75999,4.92028 "/>
  <path class="fil3" d="M3.42249 4.30822l0 -0.109461c-3.93701e-006,-0.000307087 -3.93701e-006,-0.00061811 -3.93701e-006,-0.000925197 0,-0.000307087 0,-0.00061811 3.93701e-006,-0.000925197l0 -0.109465c0,-0.0833937 -0.0341969,-0.159287 -0.0892795,-0.21437 -0.0303346,-0.0303346 -0.0669803,-0.0543268 -0.107713,-0.0697717l0 0.789059c0.0407323,-0.0154449 0.077378,-0.039437 0.107713,-0.0697677 0.0550827,-0.0550827 0.0892795,-0.13098 0.0892795,-0.214374z"/>
 </g>
 <rect class="fil4" width="6.82666" height="6.82666"/>
</svg>
