<?xml version="1.0" encoding="UTF-8"?>
<!DOCTYPE svg PUBLIC "-//W3C//DTD SVG 1.1//EN" "http://www.w3.org/Graphics/SVG/1.1/DTD/svg11.dtd">
<!-- Creator: CorelDRAW -->
<svg xmlns="http://www.w3.org/2000/svg" xml:space="preserve" width="6.82666in" height="6.82666in" style="shape-rendering:geometricPrecision; text-rendering:geometricPrecision; image-rendering:optimizeQuality; fill-rule:evenodd; clip-rule:evenodd"
viewBox="0 0 6.82666 6.82666"
 xmlns:xlink="http://www.w3.org/1999/xlink">
 <defs>
  <style type="text/css">
   <![CDATA[
    .fil2 {fill:none}
    .fil1 {fill:#FECA5F}
    .fil0 {fill:#333333;fill-rule:nonzero}
   ]]>
  </style>
 </defs>
 <g id="Layer_x0020_1">
  <metadata id="CorelCorpID_0Corel-Layer"/>
  <path class="fil0" d="M0.855685 5.33282c-0.0122756,0.0579213 0.0247244,0.114835 0.0826417,0.12711 0.0579213,0.0122756 0.114835,-0.0247205 0.12711,-0.0826417l0.761831 -3.55519 0.796398 3.71653c0.0122756,0.0579213 0.069189,0.0949213 0.12711,0.0826417 0.0579173,-0.0122756 0.0949173,-0.069185 0.0826417,-0.127106l-0.899925 -4.19964c-0.00644094,-0.0429488 -0.0387441,-0.0794567 -0.0837244,-0.0890906 -0.0579921,-0.0124291 -0.115083,0.0245118 -0.127512,0.0825039l0.105012 0.0225039 -0.104878 -0.0222323 -0.866705 4.04461z"/>
  <path class="fil0" d="M5.0697 1.28821c-0.0122756,-0.0579213 -0.069189,-0.0949173 -0.127106,-0.0826417 -0.0579213,0.0122756 -0.0949213,0.069189 -0.0826457,0.127106l0.901276 4.20595c0.0122756,0.0579213 0.069189,0.0949213 0.12711,0.0826417 0.0579173,-0.0122756 0.0949173,-0.069185 0.0826417,-0.127106l-0.901276 -4.20595z"/>
  <path class="fil0" d="M1.82727 1.20305c-0.059311,0 -0.107398,0.0480827 -0.107398,0.107394 0,0.059311 0.0480866,0.107398 0.107398,0.107398l3.13756 0c0.059311,0 0.107394,-0.0480866 0.107394,-0.107398 0,-0.059311 -0.0480827,-0.107394 -0.107394,-0.107394l-3.13756 0z"/>
  <path class="fil0" d="M2.5998 4.80816c-0.059311,0 -0.107398,0.0480866 -0.107398,0.107398 0,0.059311 0.0480866,0.107398 0.107398,0.107398l3.13444 0c0.059311,0 0.107398,-0.0480866 0.107398,-0.107398 0,-0.059311 -0.0480866,-0.107398 -0.107398,-0.107398l-3.13444 0z"/>
  <path class="fil0" d="M1.12414 4.48392c-0.059311,0 -0.107398,0.0480866 -0.107398,0.107394 0,0.059311 0.0480866,0.107398 0.107398,0.107398l1.385 0c0.059311,0 0.107398,-0.0480866 0.107398,-0.107398 0,-0.0593071 -0.0480866,-0.107394 -0.107398,-0.107394l-1.385 0z"/>
  <polygon class="fil1" points="1.82727,1.8221 1.25687,4.48392 2.39766,4.48392 "/>
  <polygon class="fil1" points="1.95992,1.41784 2.68642,4.80816 5.6047,4.80816 4.8782,1.41784 "/>
  <path class="fil0" d="M4.25767 2.25893c0.0630945,0 0.120232,0.0255787 0.161583,0.066937 0.0413583,0.0413583 0.066937,0.0984843 0.066937,0.161583 0,0.0630945 -0.0255787,0.120224 -0.066937,0.161583 -0.0413504,0.0413583 -0.0984882,0.066937 -0.161583,0.066937 -0.0630945,0 -0.120228,-0.0255787 -0.161579,-0.066937 -0.0413583,-0.0413583 -0.066937,-0.0984882 -0.066937,-0.161583 0,-0.0630984 0.0255787,-0.120224 0.066937,-0.161583 0.0413504,-0.0413583 0.0984843,-0.066937 0.161579,-0.066937zm0.047685 0.180835c-0.0121969,-0.0121969 -0.0290591,-0.0197441 -0.047685,-0.0197441 -0.018622,0 -0.0354843,0.00754724 -0.0476811,0.0197441 -0.0121969,0.0121969 -0.0197441,0.0290591 -0.0197441,0.047685 0,0.018626 0.00754724,0.0354882 0.0197441,0.047685 0.0121969,0.0121969 0.0290591,0.0197441 0.0476811,0.0197441 0.018626,0 0.0354882,-0.00754724 0.047685,-0.0197441 0.0121969,-0.0121969 0.0197441,-0.0290591 0.0197441,-0.047685 0,-0.018626 -0.00754724,-0.0354882 -0.0197441,-0.047685z"/>
  <path class="fil0" d="M4.11767 2.82782c0.026063,-0.0357913 0.0181732,-0.0859449 -0.0176181,-0.112004 -0.0357953,-0.026063 -0.0859449,-0.0181772 -0.112008,0.0176181l-0.38978 0.535358c-0.026063,0.0357953 -0.0181732,0.0859449 0.0176181,0.112008 0.0357953,0.026063 0.0859449,0.0181732 0.112008,-0.0176181l0.38978 -0.535362z"/>
  <path class="fil0" d="M2.85026 3.41863c-0.0354488,0.0267598 -0.0424921,0.0771929 -0.0157323,0.112642 0.0267598,0.0354488 0.077189,0.0424921 0.112638,0.0157323l0.338024 -0.254902 0.35587 0.101283c0.0427402,0.0121614 0.0872598,-0.0126339 0.0994213,-0.055378 0.0121575,-0.0427402 -0.0126339,-0.0872598 -0.055378,-0.0994173l-0.390941 -0.111272c-0.0242638,-0.00803543 -0.0519409,-0.00442126 -0.0738937,0.0121299l0.0484961 0.064311 -0.0484528 -0.064189 -0.370051 0.279059z"/>
  <path class="fil0" d="M3.65137 2.39281c-0.00729528,-0.0437874 -0.0487126,-0.0733701 -0.0925039,-0.0660709 -0.0437874,0.00729528 -0.0733701,0.0487126 -0.0660709,0.0925039l0.0606614 0.360953 0.0792874 -0.0132126 -0.0794291 0.0133504c0.00684646,0.040752 0.043185,0.0691732 0.0834764,0.0670945l0.372634 0.0121063 0.183701 0.268866 -0.0996417 0.298913c-0.0139016,0.0420472 0.00892126,0.0874094 0.0509685,0.101311 0.0420472,0.0139016 0.0874094,-0.00892126 0.101311,-0.0509685l0.10978 -0.329323c0.0108465,-0.024622 0.00911417,-0.054122 -0.0071811,-0.0779724l-0.000141732 9.44882e-005 -0.225992 -0.330764c-0.0135551,-0.0229213 -0.0381732,-0.0386378 -0.0667559,-0.039563l-0.00261417 0.0805 0.00251575 -0.0802323 -0.354244 -0.0115079 -0.0497598 -0.296079z"/>
  <path class="fil0" d="M3.73828 3.3443c0.0156378,-0.0415276 -0.00535039,-0.087878 -0.0468819,-0.103516 -0.0415276,-0.0156378 -0.087878,0.00535433 -0.103516,0.0468819l-0.154665 0.409409 -0.000177165 -6.69291e-005c-0.0069685,0.0184409 -0.00672047,0.0378425 -0.000661417,0.0551024l0.0854724 0.325803c0.0111181,0.0429213 0.0549291,0.0686969 0.0978504,0.0575787 0.0429213,-0.0111181 0.0686969,-0.0549331 0.0575787,-0.0978543l-0.0807087 -0.307638 0.145709 -0.385701z"/>
  <path class="fil0" d="M3.25636 4.58964l0.0333386 -0.284012 -0.0826063 0 -0.010563 0.189484 -0.0805551 -0.189484 -0.0562087 0 -0.0165236 0.189484 -0.0750197 -0.189484 -0.082185 0 0.129323 0.284012 0.0774961 0 0.0129291 -0.177984 0.0730827 0.177984 0.0774921 0zm0.312539 0l-0.0107953 -0.0638701 -0.134976 0 -0.00812992 -0.0481181 0.131996 0 -0.0107953 -0.0638701 -0.131996 0 -0.00748031 -0.0442835 0.13498 0 -0.0107953 -0.0638701 -0.208217 0 0.0479882 0.284012 0.20822 0zm0.17926 0l-0.0371969 -0.220142 0.0792008 0 -0.0107953 -0.0638701 -0.232063 0 0.0107953 0.0638701 0.079626 0 0.0371969 0.220142 0.0732362 0zm0.296358 0l-0.0189213 -0.111988 0.131996 0 -0.0107953 -0.0638701 -0.131996 0 -0.00748031 -0.0442835 0.134976 0 -0.0107913 -0.0638701 -0.208217 0 0.0479882 0.284012 0.0732402 0zm0.36065 0l-0.0107913 -0.0638701 -0.114114 0 -0.0371969 -0.220142 -0.0732362 0 0.0479882 0.284012 0.18735 0zm0.16565 0.0051063c0.0218465,-7.08661e-005 0.041315,-0.00368898 0.0585,-0.0107835 0.0171772,-0.00709843 0.0315157,-0.0171772 0.042937,-0.0302323 0.0114134,-0.0130591 0.019378,-0.0285276 0.0238661,-0.0464843 0.00457087,-0.0178858 0.00505512,-0.037685 0.00145669,-0.0593976 -0.00373622,-0.0217205 -0.0109134,-0.0415197 -0.0215315,-0.0593976 -0.0105551,-0.0179567 -0.023748,-0.0334291 -0.0395748,-0.0464843 -0.0158346,-0.0130591 -0.0335748,-0.0231378 -0.0531535,-0.0302323 -0.0195787,-0.00709449 -0.0402717,-0.0107205 -0.0621457,-0.0107874 -0.0218465,6.69291e-005 -0.041315,0.00369291 -0.0585709,0.0107874 -0.017248,0.00709449 -0.0315866,0.0171732 -0.0430748,0.0302323 -0.0114921,0.0130551 -0.0195197,0.0285276 -0.0240118,0.0464843 -0.00456693,0.017878 -0.00505512,0.0376772 -0.0015315,0.0593976 0.00381496,0.0217126 0.0109921,0.0415118 0.0216024,0.0593976 0.010563,0.0179567 0.0238189,0.0334252 0.0397244,0.0464843 0.0159016,0.0130551 0.0336417,0.0231339 0.0532913,0.0302323 0.0196496,0.00709449 0.0403465,0.0107126 0.0622165,0.0107835zm-0.0109331 -0.0647205c-0.0117244,-7.08661e-005 -0.0227283,-0.00220079 -0.0329449,-0.00638583 -0.0102165,-0.00418898 -0.0193583,-0.0100079 -0.0273622,-0.0174606 -0.00807087,-0.00744882 -0.0148031,-0.0161811 -0.0200984,-0.0261142 -0.00537008,-0.00993307 -0.00894882,-0.0206496 -0.0109803,-0.0322165 -0.00190551,-0.0117087 -0.00195669,-0.0225 5.51181e-005,-0.0324331 0.00194094,-0.00993701 0.00571654,-0.0186654 0.0112874,-0.0260472 0.00548031,-0.00745276 0.0126614,-0.0132717 0.0214764,-0.0173858 0.00879921,-0.00418504 0.0190945,-0.00624409 0.0307913,-0.00631102 0.0117913,6.69291e-005 0.0227165,0.00212598 0.0328622,0.00631102 0.0102047,0.00411417 0.0192756,0.00993307 0.0272795,0.0173858 0.00798819,0.00738189 0.0146417,0.0161102 0.0198701,0.0260472 0.00529528,0.00993307 0.00896457,0.0207244 0.0109409,0.0324331 0.00196063,0.0115669 0.00192126,0.0222835 -1.5748e-005,0.0322165 -0.00187008,0.00993307 -0.00557087,0.0186654 -0.0110591,0.0261142 -0.00548031,0.00745276 -0.0125906,0.0132717 -0.0213937,0.0174606 -0.00872835,0.00418504 -0.0189409,0.00631496 -0.0307087,0.00638583zm0.337094 0.0647205c0.0218465,-7.08661e-005 0.041315,-0.00368898 0.0585,-0.0107835 0.0171772,-0.00709843 0.0315157,-0.0171772 0.042937,-0.0302323 0.0114134,-0.0130591 0.019378,-0.0285276 0.0238661,-0.0464843 0.00456693,-0.0178858 0.00505512,-0.037685 0.00145669,-0.0593976 -0.00373622,-0.0217205 -0.0109173,-0.0415197 -0.0215315,-0.0593976 -0.0105551,-0.0179567 -0.023748,-0.0334291 -0.0395748,-0.0464843 -0.0158346,-0.0130591 -0.0335748,-0.0231378 -0.0531535,-0.0302323 -0.0195787,-0.00709449 -0.0402756,-0.0107205 -0.0621457,-0.0107874 -0.0218465,6.69291e-005 -0.041315,0.00369291 -0.0585709,0.0107874 -0.017252,0.00709449 -0.0315866,0.0171732 -0.0430748,0.0302323 -0.0114921,0.0130551 -0.0195236,0.0285276 -0.0240118,0.0464843 -0.00456693,0.017878 -0.00505512,0.0376772 -0.0015315,0.0593976 0.00381496,0.0217126 0.0109921,0.0415118 0.0216024,0.0593976 0.0105591,0.0179567 0.0238189,0.0334252 0.0397244,0.0464843 0.0159016,0.0130551 0.0336378,0.0231339 0.0532913,0.0302323 0.0196496,0.00709449 0.0403465,0.0107126 0.0622165,0.0107835zm-0.010937 -0.0647205c-0.0117205,-7.08661e-005 -0.0227244,-0.00220079 -0.0329409,-0.00638583 -0.0102165,-0.00418898 -0.0193622,-0.0100079 -0.0273622,-0.0174606 -0.00807087,-0.00744882 -0.0148031,-0.0161811 -0.0200984,-0.0261142 -0.00537008,-0.00993307 -0.00894882,-0.0206496 -0.0109803,-0.0322165 -0.00190551,-0.0117087 -0.00195669,-0.0225 5.51181e-005,-0.0324331 0.00194094,-0.00993701 0.00571654,-0.0186654 0.0112874,-0.0260472 0.00548031,-0.00745276 0.0126575,-0.0132717 0.0214764,-0.0173858 0.00879921,-0.00418504 0.0190906,-0.00624409 0.0307913,-0.00631102 0.0117913,6.69291e-005 0.0227165,0.00212598 0.0328622,0.00631102 0.0102047,0.00411417 0.0192756,0.00993307 0.0272795,0.0173858 0.00798819,0.00738189 0.0146417,0.0161102 0.0198701,0.0260472 0.00529528,0.00993307 0.00896457,0.0207244 0.0109409,0.0324331 0.00195669,0.0115669 0.00192126,0.0222835 -1.5748e-005,0.0322165 -0.00187008,0.00993307 -0.0055748,0.0186654 -0.0110591,0.0261142 -0.00548031,0.00745276 -0.0125906,0.0132717 -0.0213937,0.0174606 -0.00872835,0.00418504 -0.0189409,0.00631496 -0.0307126,0.00638583zm0.440984 0.0596142l-0.0755354 -0.104323c0.00641339,-0.00234252 0.0125787,-0.00574803 0.0184094,-0.0102874 0.00590551,-0.00454331 0.0110236,-0.0103622 0.015315,-0.0173189 0.0042874,-0.00695276 0.00729921,-0.015185 0.00901181,-0.0247677 0.00166142,-0.00950787 0.00151969,-0.020437 -0.000496063,-0.0327835 -0.00224016,-0.0132717 -0.0065315,-0.025622 -0.0128622,-0.0370472 -0.00625984,-0.0114252 -0.0143346,-0.0214331 -0.0242283,-0.0300197 -0.00989764,-0.00858268 -0.0213307,-0.0153268 -0.0344213,-0.0201535 -0.0130118,-0.00475197 -0.0274843,-0.00724016 -0.043248,-0.00731102l-0.142217 0 0.0479882 0.284012 0.0732402 0 -0.0161181 -0.095378 0.0374724 0 0.0638031 0.095378 0.0838858 0zm-0.138047 -0.159248l-0.0579055 0 -0.0102874 -0.0608937 0.0579094 0c0.00659843,0 0.012752,0.0011378 0.0184685,0.00348031 0.00571654,0.00233858 0.0104685,0.00567717 0.0143583,0.0102205 0.00394882,0.0044685 0.00644488,0.0100039 0.00761811,0.0165315 0.00105906,0.00667323 0.000444882,0.0122795 -0.00198425,0.0168189 -0.00235039,0.00454331 -0.00595669,0.00801969 -0.010878,0.0103622 -0.00493701,0.00227165 -0.0106969,0.00348031 -0.0172992,0.00348031z"/>
  <path class="fil0" d="M2.46472 2.11078c0.0236024,-0.000204724 0.0441614,-0.00341339 0.0615709,-0.00964173 0.0174921,-0.00632283 0.0322047,-0.0146575 0.0444094,-0.0250984 0.0121024,-0.0104409 0.0219685,-0.0219882 0.029689,-0.0346378 0.00771654,-0.0126535 0.0136417,-0.0255039 0.0177795,-0.0384528l-0.0940551 -0.0421732c-0.00264173,0.0107441 -0.00738976,0.0205827 -0.0143819,0.0293189 -0.00688189,0.00883465 -0.0155315,0.0158661 -0.025752,0.0210866 -0.0103189,0.00521654 -0.0217402,0.00792913 -0.034374,0.0080315 -0.0161024,-0.000102362 -0.031311,-0.00311417 -0.0456102,-0.00893701 -0.0143031,-0.00582283 -0.0272323,-0.0140551 -0.0386811,-0.0245984 -0.0115472,-0.0105433 -0.0210276,-0.0227913 -0.0287402,-0.0368465 -0.00761417,-0.0140591 -0.0127992,-0.0294173 -0.0156142,-0.0458819 -0.00265354,-0.0166732 -0.00253937,-0.0320315 0.000433071,-0.0460866 0.00305512,-0.0141575 0.00849213,-0.0264094 0.0165591,-0.0369488 0.00798031,-0.0104409 0.0182165,-0.0185748 0.0305945,-0.0243976 0.012374,-0.00582283 0.0266063,-0.00873622 0.0426811,-0.00883858 0.0126614,0.000102362 0.0249764,0.00281496 0.0370197,0.0080315 0.0119488,0.00522441 0.0229173,0.012252 0.0327126,0.0210866 0.00987402,0.00873622 0.017874,0.0185748 0.0240591,0.0293189l0.0800354 -0.0427677c-0.00846063,-0.0132559 -0.0186417,-0.0262087 -0.0305394,-0.0388583 -0.0118937,-0.0126535 -0.0255551,-0.0240984 -0.0410906,-0.0344409 -0.0156181,-0.0102362 -0.033063,-0.0184724 -0.0526102,-0.0245984 -0.0194331,-0.00601969 -0.0410512,-0.00923622 -0.0647047,-0.00933465 -0.0242047,9.84252e-005 -0.0464331,0.00331496 -0.0668543,0.00973622 -0.0203346,0.00632677 -0.0382283,0.015563 -0.053878,0.0277126 -0.0155669,0.0120512 -0.0283701,0.0266063 -0.038315,0.0435748 -0.00993701,0.0170669 -0.0165787,0.0362441 -0.0200315,0.0575315 -0.00334646,0.0212835 -0.00307087,0.044374 0.000944882,0.0692795 0.00418898,0.0247953 0.0115197,0.0477874 0.0218937,0.0690748 0.0104606,0.021185 0.0234331,0.0403622 0.0390039,0.0574291 0.0155669,0.0170669 0.0331732,0.0316299 0.0527362,0.0437756 0.0196417,0.0120472 0.0406024,0.0213858 0.0630433,0.027811 0.0225433,0.00642913 0.0458268,0.0096378 0.0700669,0.00974016zm0.590224 -0.00722835l-0.214031 -0.401815 -0.127701 0 -0.081378 0.401815 0.114748 0 0.00987795 -0.0578346 0.154768 0 0.0289646 0.0578346 0.114752 0zm-0.186287 -0.148197l-0.0994528 0 0.0250551 -0.151205 0.0743976 0.151205zm0.3805 0.155425c0.0314646,-0.000102362 0.0581339,-0.00431496 0.0799213,-0.0125512 0.0218701,-0.00833465 0.0391693,-0.0199803 0.0518543,-0.0352441 0.0126969,-0.0151575 0.0210118,-0.0331299 0.0250512,-0.053815 0.00402362,-0.0207835 0.00395276,-0.0437717 -0.000188976,-0.068874l-0.039378 -0.238559 -0.102394 0 0.038878 0.235547c0.0026378,0.0159646 0.00183858,0.030122 -0.0023189,0.0423661 -0.00416142,0.012252 -0.0117913,0.0218898 -0.0228858,0.0289173 -0.0110197,0.00693307 -0.025626,0.0105433 -0.0436535,0.0106457 -0.0182598,-0.000102362 -0.0341614,-0.0037126 -0.0475591,-0.0106457 -0.0135197,-0.00702756 -0.0243307,-0.0166654 -0.032626,-0.0289173 -0.00820472,-0.0122441 -0.0136772,-0.0264016 -0.016315,-0.0423661l-0.038878 -0.235547 -0.102984 0 0.0394764 0.239165c0.00409449,0.0247953 0.0115827,0.0475866 0.0226496,0.0682677 0.0109449,0.0205866 0.0253898,0.0385551 0.0432913,0.0537165 0.0177992,0.0151614 0.0390591,0.0269055 0.0637795,0.0352441 0.0247205,0.00833465 0.0527795,0.0125472 0.0842795,0.0126496zm0.443098 -0.00722835l-0.0514055 -0.311449 0.109453 0 -0.0149134 -0.0903661 -0.320717 0 0.0149173 0.0903661 0.110039 0 0.0514094 0.311449 0.101217 0zm0.258933 0l-0.0663228 -0.401815 -0.10122 0 0.0663228 0.401815 0.10122 0zm0.261886 0.00722835c0.0301929,-0.000102362 0.0571063,-0.00522047 0.0808465,-0.0152598 0.023748,-0.0100433 0.0435591,-0.0243031 0.0593425,-0.0427756 0.0157795,-0.0184724 0.0267835,-0.0403583 0.0329843,-0.0657598 0.0063189,-0.0253031 0.00698819,-0.053315 0.00201969,-0.0840354 -0.00517323,-0.0307244 -0.0150906,-0.0587402 -0.0297598,-0.0840394 -0.0145906,-0.0254055 -0.0328189,-0.0472874 -0.0546969,-0.0657638 -0.0218819,-0.0184724 -0.0464016,-0.0327323 -0.0734606,-0.0427717 -0.0270591,-0.0100394 -0.0556575,-0.0151614 -0.0858858,-0.0152598 -0.0301929,9.84252e-005 -0.0570984,0.00522047 -0.0809488,0.0152598 -0.0238386,0.0100394 -0.0436535,0.0242992 -0.0595315,0.0427717 -0.015878,0.0184764 -0.0269803,0.0403583 -0.0331811,0.0657638 -0.00632283,0.0252992 -0.00699606,0.053315 -0.00211811,0.0840394 0.00526378,0.0307205 0.015189,0.0587323 0.0298583,0.0840354 0.0145866,0.0254016 0.0329173,0.0472874 0.0548898,0.0657598 0.0219803,0.0184724 0.0465,0.0327323 0.0736535,0.0427756 0.0271654,0.0100394 0.0557638,0.0151575 0.0859882,0.0152598zm-0.0151142 -0.0915669c-0.0162008,-0.000102362 -0.0314055,-0.00311417 -0.0455315,-0.00903937 -0.014122,-0.00592126 -0.026752,-0.0141535 -0.037811,-0.0246969 -0.0111575,-0.0105433 -0.0204528,-0.0228937 -0.0277795,-0.0369449 -0.00741339,-0.0140591 -0.0123701,-0.0292205 -0.0151693,-0.0455827 -0.0026378,-0.0165709 -0.00270472,-0.0318307 7.48031e-005,-0.0458858 0.00268504,-0.0140591 0.00790157,-0.0264094 0.0155945,-0.0368465 0.00757874,-0.0105433 0.0174961,-0.0187756 0.0296772,-0.0246024 0.0121654,-0.00592126 0.0263937,-0.00883465 0.042563,-0.00893701 0.0162953,0.000102362 0.0313937,0.00301575 0.0454134,0.00893701 0.0141063,0.00582677 0.0266457,0.0140591 0.0377047,0.0246024 0.0110394,0.010437 0.0202402,0.0227874 0.0274606,0.0368465 0.00732283,0.0140551 0.0123898,0.029315 0.015126,0.0458858 0.00270079,0.0163622 0.00265748,0.0315236 -3.14961e-005,0.0455827 -0.00257874,0.0140512 -0.00770079,0.0264016 -0.0152756,0.0369449 -0.00757874,0.0105433 -0.0174016,0.0187756 -0.0295709,0.0246969 -0.0120591,0.0059252 -0.0261811,0.00893701 -0.0424449,0.00903937zm0.639469 0.0843386l-0.0663268 -0.401815 -0.101807 0 0.0364961 0.221091 -0.195378 -0.221091 -0.104165 0 0.0663268 0.401815 0.101217 0 -0.038378 -0.232535 0.204331 0.232535 0.097685 0z"/>
 </g>
 <rect class="fil2" width="6.82666" height="6.82666"/>
</svg>
